<?xml version="1.0" encoding="utf-8"?>
<!-- Generator: Adobe Illustrator 18.1.1, SVG Export Plug-In . SVG Version: 6.00 Build 0)  -->
<svg version="1.1" id="组_6_1_" xmlns="http://www.w3.org/2000/svg" xmlns:xlink="http://www.w3.org/1999/xlink" x="0px" y="0px"
	 viewBox="0 0 32 38" enable-background="new 0 0 32 38" xml:space="preserve">
<g id="圆角矩形_12">
	<g>
		<path fill="#999999" d="M28,2c1.1,0,2,0.9,2,2v30c0,1.1-0.9,2-2,2H4c-1.1,0-2-0.9-2-2V4c0-1.1,0.9-2,2-2H28 M28,0H4
			C1.8,0,0,1.8,0,4v30c0,2.2,1.8,4,4,4h24c2.2,0,4-1.8,4-4V4C32,1.8,30.2,0,28,0L28,0z"/>
	</g>
</g>
<g id="圆角矩形_10">
	<g>
		<path fill-rule="evenodd" clip-rule="evenodd" fill="#999999" d="M6.5,14h-1C4.7,14,4,14.7,4,15.5S4.7,17,5.5,17h1
			C7.3,17,8,16.3,8,15.5S7.3,14,6.5,14z"/>
	</g>
</g>
<g id="圆角矩形_10_拷贝">
	<g>
		<path fill-rule="evenodd" clip-rule="evenodd" fill="#999999" d="M7,20H5c-0.6,0-1,0.4-1,1v1c0,0.6,0.4,1,1,1h2c0.6,0,1-0.4,1-1
			v-1C8,20.4,7.6,20,7,20z"/>
	</g>
</g>
<g id="圆角矩形_10_拷贝_2">
	<g>
		<path fill-rule="evenodd" clip-rule="evenodd" fill="#999999" d="M7,27H5c-0.6,0-1,0.4-1,1v1c0,0.6,0.4,1,1,1h2c0.6,0,1-0.4,1-1
			v-1C8,27.4,7.6,27,7,27z"/>
	</g>
</g>
<g id="圆角矩形_11">
	<g>
		<path fill-rule="evenodd" clip-rule="evenodd" fill="#999999" d="M14.5,14h-3c-0.8,0-1.5,0.7-1.5,1.5s0.7,1.5,1.5,1.5h3
			c0.8,0,1.5-0.7,1.5-1.5S15.3,14,14.5,14z"/>
	</g>
</g>
<g id="圆角矩形_11_拷贝_2">
	<g>
		<path fill-rule="evenodd" clip-rule="evenodd" fill="#999999" d="M15,21h-4c-0.6,0-1,0.4-1,1s0.4,1,1,1h4c0.6,0,1-0.4,1-1
			S15.6,21,15,21z"/>
	</g>
</g>
<g id="圆角矩形_11_拷贝">
	<g>
		<path fill-rule="evenodd" clip-rule="evenodd" fill="#999999" d="M22.5,27h-11c-0.8,0-1.5,0.7-1.5,1.5s0.7,1.5,1.5,1.5h11
			c0.8,0,1.5-0.7,1.5-1.5S23.3,27,22.5,27z"/>
	</g>
</g>
<g id="矩形_10">
	<g>
		<polygon fill-rule="evenodd" clip-rule="evenodd" fill="#999999" points="26.9,8.6 13.7,21 15.1,22.4 28.3,10 		"/>
	</g>
</g>
</svg>
