<?xml version="1.0" encoding="utf-8"?>
<!-- Generator: Adobe Illustrator 18.1.1, SVG Export Plug-In . SVG Version: 6.00 Build 0)  -->
<svg version="1.1" id="组_7_1_" xmlns="http://www.w3.org/2000/svg" xmlns:xlink="http://www.w3.org/1999/xlink" x="0px" y="0px"
	 viewBox="0 0 31 29" enable-background="new 0 0 31 29" xml:space="preserve">
<g id="圆角矩形_13">
	<g>
		<path fill="#999999" d="M24,2v1H7V2H24 M24,0H7C5.9,0,5,0.9,5,2v1c0,1.1,0.9,2,2,2h17c1.1,0,2-0.9,2-2V2C26,0.9,25.1,0,24,0L24,0z
			"/>
	</g>
</g>
<g id="矩形_11_拷贝">
	<g>
		<rect x="17" y="2" fill-rule="evenodd" clip-rule="evenodd" fill="#999999" width="1" height="2"/>
	</g>
</g>
<g id="矩形_11_拷贝_2">
	<g>
		<rect x="13" y="2" fill-rule="evenodd" clip-rule="evenodd" fill="#999999" width="1" height="2"/>
	</g>
</g>
<g id="矩形_11">
	<g>
		<path fill="#999999" d="M25.2,6l0.6,6H5.2l0.6-6H25.2 M27,4H4L3,14h25L27,4L27,4z"/>
	</g>
</g>
<g id="椭圆_5">
	<g>
		<path fill-rule="evenodd" clip-rule="evenodd" fill="#999999" d="M0,10c0,0-0.3,3.7,4,3v-2c0,0.6-0.4,1-1,1c-0.6,0-1-0.4-1-1
			c0-0.6,0.4-1,1-1c0.6,0,1,0.4,1,1v-1C4,10,1.7,6.5,0,10z"/>
	</g>
</g>
<g id="椭圆_5_拷贝">
	<g>
		<path fill-rule="evenodd" clip-rule="evenodd" fill="#999999" d="M31,9.7c-1.7-3.8-4,0-4,0v1.1c0-0.6,0.4-1.1,1-1.1
			c0.6,0,1,0.5,1,1.1c0,0.6-0.4,1.1-1,1.1c-0.6,0-1-0.5-1-1.1v2.1C31.3,13.7,31,9.7,31,9.7z"/>
	</g>
</g>
<g id="矩形_12">
	<g>
		<path fill="#999999" d="M26.6,14l2,2H2l1.5-2H26.6 M27,13H3l-3,4h31L27,13L27,13z"/>
	</g>
</g>
<g id="矩形_13">
	<g>
		<polygon fill-rule="evenodd" clip-rule="evenodd" fill="#999999" points="14.8,13.9 13.4,16.6 14.2,17.1 15.8,14 		"/>
	</g>
</g>
<g id="矩形_13_拷贝">
	<g>
		<polygon fill-rule="evenodd" clip-rule="evenodd" fill="#999999" points="16.8,14 15.8,14 17.2,17 18,16.5 		"/>
	</g>
</g>
<g id="圆角矩形_14">
	<g>
		<path fill="#999999" d="M28.9,19l-0.9,3.5L28,22.8V23H3v-0.2l-0.1-0.2L2.1,19H28.9 M30.6,16.9c-0.5,0-1.2,0.1-1.6,0.1H2
			c-0.5,0-1.2-0.1-1.6-0.1c-0.2,0-0.4,0-0.4,0.1c0,0.4,0,1.6,0,2l1,4c0,1.1,0.9,2,2,2h25c1.1,0,2-0.9,2-2l1-4c0-0.6,0-1.4,0-2
			C31,16.9,30.8,16.9,30.6,16.9L30.6,16.9z"/>
	</g>
</g>
<g id="圆角矩形_15">
	<g>
		<path fill-rule="evenodd" clip-rule="evenodd" fill="#999999" d="M8.5,20h-2C5.7,20,5,20.7,5,21.5S5.7,23,6.5,23h2
			c0.8,0,1.5-0.7,1.5-1.5S9.3,20,8.5,20z"/>
	</g>
</g>
<g id="圆角矩形_15_拷贝">
	<g>
		<path fill-rule="evenodd" clip-rule="evenodd" fill="#999999" d="M24.5,20h-2c-0.8,0-1.5,0.7-1.5,1.5s0.7,1.5,1.5,1.5h2
			c0.8,0,1.5-0.7,1.5-1.5S25.3,20,24.5,20z"/>
	</g>
</g>
<g id="矩形_15">
	<g>
		<path fill-rule="evenodd" clip-rule="evenodd" fill="#999999" d="M8,25v2H5v-2H3v2c0,1.1,0.9,2,2,2h3c1.1,0,2-0.9,2-2v-2H8z"/>
	</g>
</g>
<g id="矩形_15_拷贝">
	<g>
		<path fill-rule="evenodd" clip-rule="evenodd" fill="#999999" d="M26,25v2h-3v-2h-2v2c0,1.1,0.9,2,2,2h3c1.1,0,2-0.9,2-2v-2H26z"
			/>
	</g>
</g>
</svg>
