<?xml version="1.0" encoding="utf-8"?>
<!-- Generator: Adobe Illustrator 18.1.1, SVG Export Plug-In . SVG Version: 6.00 Build 0)  -->
<svg version="1.1" id="通知_1_" xmlns="http://www.w3.org/2000/svg" xmlns:xlink="http://www.w3.org/1999/xlink" x="0px" y="0px"
	 viewBox="0 0 33 23" enable-background="new 0 0 33 23" xml:space="preserve">
<g id="圆角矩形_20">
	<g>
		<path fill="#3F95FE" d="M29,2c1.1,0,2,0.9,2,2v15c0,1.1-0.9,2-2,2H4c-1.1,0-2-0.9-2-2V4c0-1.1,0.9-2,2-2H29 M29,0H4
			C1.8,0,0,1.8,0,4v15c0,2.2,1.8,4,4,4h25c2.2,0,4-1.8,4-4V4C33,1.8,31.2,0,29,0L29,0z"/>
	</g>
</g>
<g id="矩形_1">
	<g>
		<path fill-rule="evenodd" clip-rule="evenodd" fill="#3F95FE" d="M26.7,2l-8.6,6.7c-1.7,1.4-4.3,1-5.6-0.7L5.7,2h-3l9.5,8.8
			c1.4,1.7,3.9,2.1,5.6,0.7L30,2H26.7z"/>
	</g>
</g>
</svg>
