<?xml version="1.0" encoding="utf-8"?>
<!-- Generator: Adobe Illustrator 18.1.1, SVG Export Plug-In . SVG Version: 6.00 Build 0)  -->
<svg version="1.1" id="组_1_1_" xmlns="http://www.w3.org/2000/svg" xmlns:xlink="http://www.w3.org/1999/xlink" x="0px" y="0px"
	 viewBox="0 0 28 28" enable-background="new 0 0 28 28" xml:space="preserve">
<g id="圆角矩形_18">
	<g>
		<path fill="#999999" d="M10,17c0.6,0,1,0.4,1,1v7c0,0.6-0.4,1-1,1H3c-0.6,0-1-0.4-1-1v-7c0-0.6,0.4-1,1-1H10 M10,15H3
			c-1.7,0-3,1.3-3,3v7c0,1.7,1.3,3,3,3h7c1.7,0,3-1.3,3-3v-7C13,16.3,11.7,15,10,15L10,15z"/>
	</g>
</g>
<g id="圆角矩形_18_拷贝_2">
	<g>
		<path fill="#999999" d="M10,2c0.6,0,1,0.4,1,1v7c0,0.6-0.4,1-1,1H3c-0.6,0-1-0.4-1-1V3c0-0.6,0.4-1,1-1H10 M10,0H3
			C1.3,0,0,1.3,0,3v7c0,1.7,1.3,3,3,3h7c1.7,0,3-1.3,3-3V3C13,1.3,11.7,0,10,0L10,0z"/>
	</g>
</g>
<g id="圆角矩形_18_拷贝_3">
	<g>
		<path fill="#999999" d="M25,17c0.6,0,1,0.4,1,1v7c0,0.6-0.4,1-1,1h-7c-0.6,0-1-0.4-1-1v-7c0-0.6,0.4-1,1-1H25 M25,15h-7
			c-1.7,0-3,1.3-3,3v7c0,1.7,1.3,3,3,3h7c1.7,0,3-1.3,3-3v-7C28,16.3,26.7,15,25,15L25,15z"/>
	</g>
</g>
<g id="圆角矩形_18_拷贝_3_1_">
	<g>
		<path fill="#999999" d="M25,2c0.6,0,1,0.4,1,1v7c0,0.6-0.4,1-1,1h-7c-0.6,0-1-0.4-1-1V3c0-0.6,0.4-1,1-1H25 M25,0h-7
			c-1.7,0-3,1.3-3,3v7c0,1.7,1.3,3,3,3h7c1.7,0,3-1.3,3-3V3C28,1.3,26.7,0,25,0L25,0z"/>
	</g>
</g>
</svg>
