<?xml version="1.0" encoding="utf-8"?>
<!-- Generator: Adobe Illustrator 18.1.1, SVG Export Plug-In . SVG Version: 6.00 Build 0)  -->
<svg version="1.1" id="密码_1_" xmlns="http://www.w3.org/2000/svg" xmlns:xlink="http://www.w3.org/1999/xlink" x="0px" y="0px"
	 viewBox="0 0 25 32" enable-background="new 0 0 25 32" xml:space="preserve">
<g id="矩形_19">
	<g>
		<path fill-rule="evenodd" clip-rule="evenodd" fill="#666666" d="M23,14H2c-1.1,0-2,0.9-2,2v14c0,1.1,0.9,2,2,2h21
			c1.1,0,2-0.9,2-2V16C25,14.9,24.1,14,23,14z M13,23.9V27h-1v-3.1c-1.1-0.2-2-1.2-2-2.4s0.9-2.2,2-2.4V18h1v1.1
			c1.1,0.2,2,1.2,2,2.4S14.1,23.7,13,23.9z"/>
	</g>
</g>
<g id="矩形_18">
	<g>
		<path fill-rule="evenodd" clip-rule="evenodd" fill="#666666" d="M12.5,0C6.7,0,2,4.7,2,10.5v2c0,0.5,0,1,0.1,1.5H5V9.5
			C5,5.9,7.9,3,11.5,3h2C17.1,3,20,5.9,20,9.5V14h2.9c0.1-0.5,0.1-1,0.1-1.5v-2C23,4.7,18.3,0,12.5,0z"/>
	</g>
</g>
</svg>
