<?xml version="1.0" encoding="utf-8"?>
<!-- Generator: Adobe Illustrator 18.1.1, SVG Export Plug-In . SVG Version: 6.00 Build 0)  -->
<svg version="1.1" xmlns="http://www.w3.org/2000/svg" xmlns:xlink="http://www.w3.org/1999/xlink" x="0px" y="0px"
	 viewBox="0 0 36 30" enable-background="new 0 0 36 30" xml:space="preserve">
<g id="圆角矩形_1109_1_" enable-background="new    ">
	<g id="圆角矩形_1109">
		<g>
			<path fill="#5EA6C8" d="M32,2.5c0.8,0,1.5,0.7,1.5,1.5v12c0,0.8-0.7,1.5-1.5,1.5H4c-0.8,0-1.5-0.7-1.5-1.5V4
				c0-0.8,0.7-1.5,1.5-1.5H32 M32,0H4C1.8,0,0,1.8,0,4v12c0,2.2,1.8,4,4,4h28c2.2,0,4-1.8,4-4V4C36,1.8,34.2,0,32,0L32,0z"/>
		</g>
	</g>
</g>
<g id="矩形_1110_1_" enable-background="new    ">
	<g id="矩形_1110">
		<g>
			<rect x="2" y="13" fill-rule="evenodd" clip-rule="evenodd" fill="#5EA6C8" width="32" height="1.5"/>
		</g>
	</g>
</g>
<g id="椭圆_1111_1_" enable-background="new    ">
	<g id="椭圆_1111">
		<g>
			<circle fill-rule="evenodd" clip-rule="evenodd" fill="#5EA6C8" cx="7.5" cy="8.5" r="1.5"/>
		</g>
	</g>
</g>
<g id="圆角矩形_1112_1_" enable-background="new    ">
	<g id="圆角矩形_1112">
		<g>
			<path fill-rule="evenodd" clip-rule="evenodd" fill="#5EA6C8" d="M17.5,23c-0.8,0-1.5,0.7-1.5,1.5v4c0,0.8,0.7,1.5,1.5,1.5
				s1.5-0.7,1.5-1.5v-4C19,23.7,18.3,23,17.5,23z"/>
		</g>
	</g>
</g>
<g id="圆角矩形_1112_拷贝_1_" enable-background="new    ">
	<g id="圆角矩形_1112_拷贝">
		<g>
			<path fill-rule="evenodd" clip-rule="evenodd" fill="#5EA6C8" d="M6.3,23.5c-0.7-0.4-1.6-0.2-2,0.5l-2,3.5
				c-0.4,0.7-0.2,1.6,0.5,2c0.7,0.4,1.6,0.2,2-0.5l2-3.5C7.2,24.8,7,23.9,6.3,23.5z"/>
		</g>
	</g>
</g>
<g id="圆角矩形_1112_拷贝_2_1_" enable-background="new    ">
	<g id="圆角矩形_1112_拷贝_2">
		<g>
			<path fill-rule="evenodd" clip-rule="evenodd" fill="#5EA6C8" d="M33.8,26.9l-2-3.2c-0.4-0.7-1.3-0.9-2-0.5
				c-0.7,0.4-1,1.2-0.5,1.9l2,3.2c0.4,0.7,1.3,0.9,2,0.5C34,28.4,34.2,27.6,33.8,26.9z"/>
		</g>
	</g>
</g>
</svg>
