<?xml version="1.0" encoding="utf-8"?>
<!-- Generator: Adobe Illustrator 18.1.1, SVG Export Plug-In . SVG Version: 6.00 Build 0)  -->
<svg version="1.1" xmlns="http://www.w3.org/2000/svg" xmlns:xlink="http://www.w3.org/1999/xlink" x="0px" y="0px"
	 viewBox="0 0 49 55" enable-background="new 0 0 49 55" xml:space="preserve">
<g id="圆角矩形_18_1_" enable-background="new    ">
	<g id="圆角矩形_18">
		<g>
			<path fill="#02B5B9" d="M15.6,2.5c0.2,0.1,0.4,0.3,0.6,0.4c0.9,0.7,2.1,1.6,3.7,1.6c1.5,0,2.6-0.8,3.5-1.4
				c0.2-0.2,0.6-0.4,0.8-0.5c0.3,0.1,0.7,0.4,1,0.6c1,0.6,2.1,1.4,3.6,1.4c1.6,0,2.8-0.9,3.7-1.6c0.1-0.1,0.3-0.3,0.5-0.4
				c0.8,0.1,1.4,0.4,1.5,0.5l0.3,0.2l-5.1,7.3H19.2l-5.9-7.4l0,0C13.3,3.1,14.2,2.6,15.6,2.5 M32.7,0c-1.1,0-2.4,2-3.9,2
				c-1.5,0-3.1-2-4.7-2c-1.4,0-2.9,2-4.3,2c-1.5,0-2.9-2-4.1-2C13.5,0,12,1,12,1c-1.1,0-2,0.9-2,2l8,10h13l7-10c0-1.1-0.9-2-2-2
				C36,1,34.7,0,32.7,0L32.7,0z"/>
		</g>
	</g>
</g>
<g id="椭圆_6_1_" enable-background="new    ">
	<g id="椭圆_6">
		<g>
			<path fill="#02B5B9" d="M30.1,13.5l11.5,8.8L44.4,44c-0.1,0.1-0.1,0.3-0.1,0.4c-0.3,1.1,0.2,2.2,1.1,2.8c0.6,0.4,1,0.7,1.1,0.9
				c-1.1,1.6-9.1,4.5-21.9,4.5c-12.8,0-20.9-2.8-21.9-4.5c0-0.1,0.1-0.1,0.2-0.2c0.5-0.5,0.8-1.2,0.8-1.9l1.9-21.7l12.5-10.7H30.1
				 M31,11H17L3,23L1,46l0,0c-0.7,0.6-1,1.3-1,2c0,3.9,11,7,24.5,7C38,55,49,51.9,49,48c0-1.1-0.9-2.1-2.4-3l0.4,0l-3-24L31,11
				L31,11z"/>
		</g>
	</g>
</g>
<g id="S_拷贝_4_1_" enable-background="new    ">
	<g id="S_拷贝_4">
		<g>
			<path fill-rule="evenodd" clip-rule="evenodd" fill="#02B5B9" d="M28.9,34.4c-0.7-0.7-2.1-1.4-4.2-2.3c-2.1-0.9-3.4-1.5-4-2
				c-0.6-0.5-0.9-1.2-0.9-2c0-0.9,0.5-1.6,1.4-2.2c0.9-0.6,2.1-0.8,3.7-0.8c1.5,0,2.9,1.2,4.3,1.6v-1.2C27.7,25.1,26.3,24,25,24
				c-2.1,0-3.7,0.4-5,1.2c-1.2,0.8-1.9,1.8-1.9,3c0,0.9,0.3,1.6,0.9,2.3c0.6,0.7,2.1,1.5,4.4,2.4c2.1,0.9,3.4,1.5,4,2
				c0.6,0.5,0.9,1.2,0.9,2c0,1-0.5,1.7-1.4,2.2c-0.9,0.5-2.3,0.8-4,0.8c-1.7,0-3.3-1.3-4.9-2.1v1.3c0.5,0.2,1.3,1.4,2.3,1.5
				c1,0.2,1.9,0.3,2.7,0.3c2.2,0,3.9-0.4,5.1-1.2C29.4,39,30,38,30,36.7C30,35.8,29.6,35.1,28.9,34.4z"/>
		</g>
	</g>
</g>
<g id="矩形_30_拷贝_4_1_" enable-background="new    ">
	<g id="矩形_30_拷贝_4">
		<g>
			<rect x="23" y="20" fill-rule="evenodd" clip-rule="evenodd" fill="#02B5B9" width="1.5" height="24"/>
		</g>
	</g>
</g>
</svg>
