<?xml version="1.0" encoding="utf-8"?>
<!-- Generator: Adobe Illustrator 18.1.1, SVG Export Plug-In . SVG Version: 6.00 Build 0)  -->
<svg version="1.1" xmlns="http://www.w3.org/2000/svg" xmlns:xlink="http://www.w3.org/1999/xlink" x="0px" y="0px"
	 viewBox="0 0 65 52" enable-background="new 0 0 65 52" xml:space="preserve">
<g id="多边形_1_1_" enable-background="new    ">
	<g id="多边形_1">
		<g>
			<path fill="#02B5B9" d="M33,3l21.2,14.6l-43,0.7L33,3 M33,0L3,21l59-1L33,0L33,0z"/>
		</g>
	</g>
</g>
<g id="矩形_1_1_" enable-background="new    ">
	<g id="矩形_1">
		<g>
			<rect x="11" y="20" fill-rule="evenodd" clip-rule="evenodd" fill="#02B5B9" width="2.5" height="23"/>
		</g>
	</g>
</g>
<g id="矩形_1_拷贝_1_" enable-background="new    ">
	<g id="矩形_1_拷贝">
		<g>
			<rect x="21" y="20" fill-rule="evenodd" clip-rule="evenodd" fill="#02B5B9" width="2.5" height="23"/>
		</g>
	</g>
</g>
<g id="矩形_1_拷贝_2_1_" enable-background="new    ">
	<g id="矩形_1_拷贝_2">
		<g>
			<rect x="31" y="20" fill-rule="evenodd" clip-rule="evenodd" fill="#02B5B9" width="2.5" height="23"/>
		</g>
	</g>
</g>
<g id="矩形_1_拷贝_3_1_" enable-background="new    ">
	<g id="矩形_1_拷贝_3">
		<g>
			<rect x="42" y="20" fill-rule="evenodd" clip-rule="evenodd" fill="#02B5B9" width="2.5" height="23"/>
		</g>
	</g>
</g>
<g id="矩形_1_拷贝_4_1_" enable-background="new    ">
	<g id="矩形_1_拷贝_4">
		<g>
			<rect x="52" y="20" fill-rule="evenodd" clip-rule="evenodd" fill="#02B5B9" width="2.5" height="23"/>
		</g>
	</g>
</g>
<g id="圆角矩形_1_1_" enable-background="new    ">
	<g id="圆角矩形_1">
		<g>
			<path fill-rule="evenodd" clip-rule="evenodd" fill="#02B5B9" d="M57.8,42H8.2C7.6,42,7,42.6,7,43.2c0,0.7,0.6,1.3,1.3,1.3h49.5
				c0.7,0,1.3-0.6,1.3-1.3C59,42.6,58.4,42,57.8,42z"/>
		</g>
	</g>
</g>
<g id="圆角矩形_2_1_" enable-background="new    ">
	<g id="圆角矩形_2">
		<g>
			<path fill-rule="evenodd" clip-rule="evenodd" fill="#02B5B9" d="M62.8,49H3.2C2.6,49,2,49.6,2,50.2s0.6,1.3,1.3,1.3h59.5
				c0.7,0,1.3-0.6,1.3-1.3S63.4,49,62.8,49z"/>
		</g>
	</g>
</g>
</svg>
