<?xml version="1.0" encoding="utf-8"?>
<!-- Generator: Adobe Illustrator 18.1.1, SVG Export Plug-In . SVG Version: 6.00 Build 0)  -->
<svg version="1.1" xmlns="http://www.w3.org/2000/svg" xmlns:xlink="http://www.w3.org/1999/xlink" x="0px" y="0px"
	 viewBox="0 0 36 36" enable-background="new 0 0 36 36" xml:space="preserve">
<g id="圆角矩形_993_拷贝_1_" enable-background="new    ">
	<g id="圆角矩形_993_拷贝">
		<g>
			<path fill="#888888" d="M15.4,2c0.9,0,1.8,0.4,2.4,1L33,18.2c0.6,0.6,1,1.5,1,2.4c0,0.9-0.4,1.8-1,2.4c-0.6,0.6-1.5,1-2.4,1
				s-1.8-0.4-2.4-1L13,7.8c-0.6-0.6-1-1.5-1-2.4c0-0.9,0.4-1.8,1-2.4C13.6,2.3,14.5,2,15.4,2 M15.4,0c-1.4,0-2.8,0.5-3.8,1.6
				c-2.1,2.1-2.1,5.5,0,7.6l15.2,15.2c1.1,1.1,2.4,1.6,3.8,1.6c1.4,0,2.8-0.5,3.8-1.6c2.1-2.1,2.1-5.5,0-7.6L19.2,1.6
				C18.1,0.5,16.7,0,15.4,0L15.4,0z"/>
		</g>
	</g>
</g>
<g id="圆角矩形_993_拷贝_2_1_" enable-background="new    ">
	<g id="圆角矩形_993_拷贝_2">
		<g>
			<path fill="#888888" d="M5.4,12c0.9,0,1.8,0.4,2.4,1L23,28.2c0.6,0.6,1,1.5,1,2.4c0,0.9-0.4,1.8-1,2.4c-0.6,0.6-1.5,1-2.4,1
				s-1.8-0.4-2.4-1L3,17.8c-0.6-0.6-1-1.5-1-2.4c0-0.9,0.4-1.8,1-2.4S4.5,12,5.4,12 M5.4,10c-1.4,0-2.8,0.5-3.8,1.6
				c-2.1,2.1-2.1,5.5,0,7.6l15.2,15.2c1.1,1.1,2.4,1.6,3.8,1.6s2.8-0.5,3.8-1.6c2.1-2.1,2.1-5.5,0-7.6L9.2,11.6
				C8.1,10.5,6.7,10,5.4,10L5.4,10z"/>
		</g>
	</g>
</g>
<g id="圆角矩形_993_拷贝_3_1_" enable-background="new    ">
	<g id="圆角矩形_993_拷贝_3">
		<g>
			<path fill-rule="evenodd" clip-rule="evenodd" fill="#888888" d="M7.2,34.9l1.4,1.4l5-5l-1.4-1.4L7.2,34.9z M0.2,27.9l1.4,1.4
				l5-5l-1.4-1.4L0.2,27.9z M34.4,7.7l-4.5,4.5l1.4,1.4l4.5-4.5L34.4,7.7z M12.8,15.2l1.4,1.4l2.4-2.4l-1.4-1.4L12.8,15.2z
				 M22.8,5.2l1.4,1.4l4.5-4.5l-1.4-1.4L22.8,5.2z M19.8,22.2l1.4,1.4l2.4-2.4l-1.4-1.4L19.8,22.2z"/>
		</g>
	</g>
</g>
<g id="圆角矩形_997_1_" enable-background="new    ">
	<g id="圆角矩形_997">
		<g>
			<circle fill-rule="evenodd" clip-rule="evenodd" fill="#888888" cx="7.5" cy="17.5" r="1.5"/>
		</g>
	</g>
</g>
<g id="圆角矩形_997_拷贝_1_" enable-background="new    ">
	<g id="圆角矩形_997_拷贝">
		<g>
			<circle fill-rule="evenodd" clip-rule="evenodd" fill="#888888" cx="13.5" cy="23.5" r="1.5"/>
		</g>
	</g>
</g>
<g id="圆角矩形_997_拷贝_2_1_" enable-background="new    ">
	<g id="圆角矩形_997_拷贝_2">
		<g>
			<circle fill-rule="evenodd" clip-rule="evenodd" fill="#888888" cx="19.5" cy="29.5" r="1.5"/>
		</g>
	</g>
</g>
<g id="圆角矩形_997_拷贝_3_5_" enable-background="new    ">
	<g id="圆角矩形_997_拷贝_3">
		<g>
			<circle fill-rule="evenodd" clip-rule="evenodd" fill="#888888" cx="17.5" cy="7.5" r="1.5"/>
		</g>
	</g>
</g>
<g id="圆角矩形_997_拷贝_3_4_" enable-background="new    ">
	<g id="圆角矩形_997_拷贝_3_1_">
		<g>
			<circle fill-rule="evenodd" clip-rule="evenodd" fill="#888888" cx="23.5" cy="13.5" r="1.5"/>
		</g>
	</g>
</g>
<g id="圆角矩形_997_拷贝_3_3_" enable-background="new    ">
	<g id="圆角矩形_997_拷贝_3_2_">
		<g>
			<circle fill-rule="evenodd" clip-rule="evenodd" fill="#888888" cx="29.5" cy="19.5" r="1.5"/>
		</g>
	</g>
</g>
</svg>
