<?xml version="1.0" encoding="utf-8"?>
<!-- Generator: Adobe Illustrator 18.1.1, SVG Export Plug-In . SVG Version: 6.00 Build 0)  -->
<svg version="1.1" xmlns="http://www.w3.org/2000/svg" xmlns:xlink="http://www.w3.org/1999/xlink" x="0px" y="0px"
	 viewBox="0 0 36 36" enable-background="new 0 0 36 36" xml:space="preserve">
<g id="圆角矩形_1145_1_" enable-background="new    ">
	<g id="圆角矩形_1145">
		<g>
			<path fill-rule="evenodd" clip-rule="evenodd" fill="#5435BF" d="M34.8,17H1.3C0.6,17,0,17.6,0,18.2s0.6,1.3,1.3,1.3h33.5
				c0.7,0,1.3-0.6,1.3-1.3S35.4,17,34.8,17z"/>
		</g>
	</g>
</g>
<g id="矩形_1147_1_" enable-background="new    ">
	<g id="矩形_1147">
		<g>
			<path fill-rule="evenodd" clip-rule="evenodd" fill="#5435BF" d="M30,19v8c0,2.2-1.8,4-4,4H10c-2.2,0-4-1.8-4-4v-8H4v10
				c0,2.2,1.8,4,4,4h20c2.2,0,4-1.8,4-4V19H30z"/>
		</g>
	</g>
</g>
<g id="圆角矩形_1147_1_" enable-background="new    ">
	<g id="圆角矩形_1147">
		<g>
			<path fill-rule="evenodd" clip-rule="evenodd" fill="#5435BF" d="M11.5,32H11c-0.6,0-1,0.4-1,1v2c0,0.6,0.4,1,1,1h0.5
				c0.6,0,1-0.4,1-1v-2C12.5,32.4,12.1,32,11.5,32z"/>
		</g>
	</g>
</g>
<g id="圆角矩形_1147_拷贝_1_" enable-background="new    ">
	<g id="圆角矩形_1147_拷贝">
		<g>
			<path fill-rule="evenodd" clip-rule="evenodd" fill="#5435BF" d="M24.5,32H24c-0.6,0-1,0.4-1,1v2c0,0.6,0.4,1,1,1h0.5
				c0.6,0,1-0.4,1-1v-2C25.5,32.4,25.1,32,24.5,32z"/>
		</g>
	</g>
</g>
<g id="矩形_1150_1_" enable-background="new    ">
	<g id="矩形_1150">
		<g>
			<path fill-rule="evenodd" clip-rule="evenodd" fill="#5435BF" d="M28,0h-2c-2.2,0-4,1.8-4,4v2h2V5c0-1.7,1.3-3,3-3
				c1.7,0,3,1.3,3,3v1v13h2V4C32,1.8,30.2,0,28,0z"/>
		</g>
	</g>
</g>
<g id="椭圆_1150_1_" enable-background="new    ">
	<g id="椭圆_1150">
		<g>
			<circle fill-rule="evenodd" clip-rule="evenodd" fill="#5435BF" cx="12.5" cy="24.5" r="1.5"/>
		</g>
	</g>
</g>
<g id="椭圆_1150_拷贝_1_" enable-background="new    ">
	<g id="椭圆_1150_拷贝">
		<g>
			<circle fill-rule="evenodd" clip-rule="evenodd" fill="#5435BF" cx="21.5" cy="24.5" r="1.5"/>
		</g>
	</g>
</g>
</svg>
