<?xml version="1.0" encoding="utf-8"?>
<!-- Generator: Adobe Illustrator 18.1.1, SVG Export Plug-In . SVG Version: 6.00 Build 0)  -->
<svg version="1.1" xmlns="http://www.w3.org/2000/svg" xmlns:xlink="http://www.w3.org/1999/xlink" x="0px" y="0px"
	 viewBox="0 0 36 33" enable-background="new 0 0 36 33" xml:space="preserve">
<g id="圆角矩形_1115_1_" enable-background="new    ">
	<g id="圆角矩形_1115">
		<g>
			<path fill="#5EA6C8" d="M32.5,26.5c0.6,0,1,0.4,1,1v2c0,0.6-0.4,1-1,1h-29c-0.6,0-1-0.4-1-1v-2c0-0.6,0.4-1,1-1H32.5 M32.5,24
				h-29C1.6,24,0,25.6,0,27.5v2C0,31.4,1.6,33,3.5,33h29c1.9,0,3.5-1.6,3.5-3.5v-2C36,25.6,34.4,24,32.5,24L32.5,24z"/>
		</g>
	</g>
</g>
<g id="矩形_1119_1_" enable-background="new    ">
	<g id="矩形_1119">
		<g>
			<path fill-rule="evenodd" clip-rule="evenodd" fill="#5EA6C8" d="M28.5,0h-21C5.6,0,4,1.6,4,3.5V19l3-2V6.5C7,4.6,7.6,3,9.5,3h16
				C27.4,3,29,4.6,29,6.5V17l3,2V3.5C32,1.6,30.4,0,28.5,0z"/>
		</g>
	</g>
</g>
<g id="矩形_1117_1_" enable-background="new    ">
	<g id="矩形_1117">
		<g>
			<path fill-rule="evenodd" clip-rule="evenodd" fill="#5EA6C8" d="M18,11C9.3,11,2.1,17.6,1.1,26h2c1-7.3,7.2-13,14.9-13
				c7.6,0,13.9,5.7,14.9,13h2C33.9,17.6,26.7,11,18,11z"/>
		</g>
	</g>
</g>
</svg>
