<?xml version="1.0" encoding="utf-8"?>
<!-- Generator: Adobe Illustrator 18.1.1, SVG Export Plug-In . SVG Version: 6.00 Build 0)  -->
<svg version="1.1" xmlns="http://www.w3.org/2000/svg" xmlns:xlink="http://www.w3.org/1999/xlink" x="0px" y="0px"
	 viewBox="0 0 53 54" enable-background="new 0 0 53 54" xml:space="preserve">
<g id="矩形_16_1_" enable-background="new    ">
	<g id="矩形_16">
		<g>
			<path fill="#02B5B9" d="M50.5,2.5v34h-48v-34H50.5 M53,0H0v39h53V0L53,0z"/>
		</g>
	</g>
</g>
<g id="矩形_17_1_" enable-background="new    ">
	<g id="矩形_17">
		<g>
			<rect x="2" y="8" fill-rule="evenodd" clip-rule="evenodd" fill="#02B5B9" width="49" height="2.5"/>
		</g>
	</g>
</g>
<g id="圆角矩形_8_1_" enable-background="new    ">
	<g id="圆角矩形_8">
		<g>
			<path fill-rule="evenodd" clip-rule="evenodd" fill="#02B5B9" d="M13.3,22c-0.7,0-1.3,0.6-1.3,1.3v7.5c0,0.7,0.6,1.3,1.3,1.3
				c0.7,0,1.3-0.6,1.3-1.3v-7.5C14.5,22.6,13.9,22,13.3,22z"/>
		</g>
	</g>
</g>
<g id="圆角矩形_9_1_" enable-background="new    ">
	<g id="圆角矩形_9">
		<g>
			<path fill-rule="evenodd" clip-rule="evenodd" fill="#02B5B9" d="M22.3,14c-0.7,0-1.3,0.6-1.3,1.3v15.5c0,0.7,0.6,1.3,1.3,1.3
				c0.7,0,1.3-0.6,1.3-1.3V15.3C23.5,14.6,22.9,14,22.3,14z"/>
		</g>
	</g>
</g>
<g id="圆角矩形_10_1_" enable-background="new    ">
	<g id="圆角矩形_10">
		<g>
			<path fill-rule="evenodd" clip-rule="evenodd" fill="#02B5B9" d="M31,24c-0.6,0-1,0.4-1,1v6c0,0.6,0.4,1,1,1c0.6,0,1-0.4,1-1v-6
				C32,24.4,31.6,24,31,24z"/>
		</g>
	</g>
</g>
<g id="圆角矩形_11_1_" enable-background="new    ">
	<g id="圆角矩形_11">
		<g>
			<path fill-rule="evenodd" clip-rule="evenodd" fill="#02B5B9" d="M39.2,17c-0.7,0-1.3,0.6-1.3,1.3v12.5c0,0.7,0.6,1.3,1.3,1.3
				c0.7,0,1.3-0.6,1.3-1.3V18.2C40.5,17.6,39.9,17,39.2,17z"/>
		</g>
	</g>
</g>
<g id="圆角矩形_12_1_" enable-background="new    ">
	<g id="圆角矩形_12">
		<g>
			<path fill-rule="evenodd" clip-rule="evenodd" fill="#02B5B9" d="M26.2,38c-0.7,0-1.3,0.6-1.3,1.3v8.5c0,0.7,0.6,1.3,1.3,1.3
				c0.7,0,1.3-0.6,1.3-1.3v-8.5C27.5,38.6,26.9,38,26.2,38z"/>
		</g>
	</g>
</g>
<g id="矩形_18_1_" enable-background="new    ">
	<g id="矩形_18">
		<g>
			
				<rect x="31" y="37" transform="matrix(0.7038 -0.7104 0.7104 0.7038 -23.1994 36.3553)" fill-rule="evenodd" clip-rule="evenodd" fill="#02B5B9" width="2" height="18"/>
		</g>
	</g>
</g>
<g id="矩形_18_拷贝_1_" enable-background="new    ">
	<g id="矩形_18_拷贝">
		<g>
			<polygon fill-rule="evenodd" clip-rule="evenodd" fill="#02B5B9" points="26.6,39 14,51.6 15.4,53 28,40.4 			"/>
		</g>
	</g>
</g>
</svg>
