<?xml version="1.0" encoding="utf-8"?>
<!-- Generator: Adobe Illustrator 18.1.1, SVG Export Plug-In . SVG Version: 6.00 Build 0)  -->
<svg version="1.1" id="圆角矩形_829_拷贝_1_" xmlns="http://www.w3.org/2000/svg" xmlns:xlink="http://www.w3.org/1999/xlink"
	 x="0px" y="0px" viewBox="0 0 28 36" enable-background="new 0 0 28 36" xml:space="preserve">
<g id="圆角矩形_829_拷贝">
	<g>
		<path fill-rule="evenodd" clip-rule="evenodd" fill="#433FC3" d="M0,0v36h28V0H0z M21.8,16.5H6.3c-0.7,0-1.3-0.6-1.3-1.3
			C5,14.6,5.6,14,6.3,14h15.5c0.7,0,1.3,0.6,1.3,1.2C23,15.9,22.4,16.5,21.8,16.5z M21.8,11.5H6.3c-0.7,0-1.3-0.6-1.3-1.3
			C5,9.6,5.6,9,6.3,9h15.5c0.7,0,1.3,0.6,1.3,1.2C23,10.9,22.4,11.5,21.8,11.5z"/>
	</g>
</g>
</svg>
