<?xml version="1.0" encoding="utf-8"?>
<!-- Generator: Adobe Illustrator 18.1.1, SVG Export Plug-In . SVG Version: 6.00 Build 0)  -->
<svg version="1.1" xmlns="http://www.w3.org/2000/svg" xmlns:xlink="http://www.w3.org/1999/xlink" x="0px" y="0px"
	 viewBox="0 0 36 36" enable-background="new 0 0 36 36" xml:space="preserve">
<g id="矩形_828_1_" enable-background="new    ">
	<g id="矩形_828">
		<g>
			<path fill-rule="evenodd" clip-rule="evenodd" fill="#433FC3" d="M27.1,0C24.3,0,18,3,18,3s-6.5-3-9.3-3C3.7,0,0,3,0,3v28
				c0,0,3.7-3,8.7-3c2.9,0,9.5,3,9.5,3s6.3-3,9.1-3c5,0,8.7,3,8.7,3V3C36,3,32.2,0,27.1,0z"/>
		</g>
	</g>
</g>
<g id="矩形_828_拷贝_1_" enable-background="new    ">
	<g id="矩形_828_拷贝">
		<g>
			<path fill-rule="evenodd" clip-rule="evenodd" fill="#433FC3" d="M27.1,30c-2.8,0-9.1,3-9.1,3s-6.5-3-9.3-3c-5,0-8.7,3-8.7,3v3
				c0,0,3.7-3,8.7-3c2.9,0,9.5,3,9.5,3s6.3-3,9.1-3c5,0,8.7,3,8.7,3v-3C36,33,32.2,30,27.1,30z"/>
		</g>
	</g>
</g>
</svg>
