<?xml version="1.0" encoding="utf-8"?>
<!-- Generator: Adobe Illustrator 18.1.1, SVG Export Plug-In . SVG Version: 6.00 Build 0)  -->
<svg version="1.1" xmlns="http://www.w3.org/2000/svg" xmlns:xlink="http://www.w3.org/1999/xlink" x="0px" y="0px"
	 viewBox="0 0 28 36" enable-background="new 0 0 28 36" xml:space="preserve">
<g id="圆角矩形_1118_1_" enable-background="new    ">
	<g id="圆角矩形_1118">
		<g>
			<path fill="#5EA6C8" d="M24,2.5c0.8,0,1.5,0.7,1.5,1.5v24c0,0.8-0.7,1.5-1.5,1.5H4c-0.8,0-1.5-0.7-1.5-1.5V4
				c0-0.8,0.7-1.5,1.5-1.5H24 M24,0H4C1.8,0,0,1.8,0,4v24c0,2.2,1.8,4,4,4h20c2.2,0,4-1.8,4-4V4C28,1.8,26.2,0,24,0L24,0z"/>
		</g>
	</g>
</g>
<g id="矩形_1119_1_" enable-background="new    ">
	<g id="矩形_1119">
		<g>
			<rect x="2" y="8" fill-rule="evenodd" clip-rule="evenodd" fill="#5EA6C8" width="24" height="2.5"/>
		</g>
	</g>
</g>
<g id="矩形_1119_拷贝_1_" enable-background="new    ">
	<g id="矩形_1119_拷贝">
		<g>
			<rect x="13" y="10" fill-rule="evenodd" clip-rule="evenodd" fill="#5EA6C8" width="2.5" height="20"/>
		</g>
	</g>
</g>
<g id="椭圆_1121_1_" enable-background="new    ">
	<g id="椭圆_1121">
		<g>
			<circle fill-rule="evenodd" clip-rule="evenodd" fill="#5EA6C8" cx="9.5" cy="16.5" r="1.5"/>
		</g>
	</g>
</g>
<g id="椭圆_1121_拷贝_1_" enable-background="new    ">
	<g id="椭圆_1121_拷贝">
		<g>
			<circle fill-rule="evenodd" clip-rule="evenodd" fill="#5EA6C8" cx="19.5" cy="16.5" r="1.5"/>
		</g>
	</g>
</g>
<g id="圆角矩形_1123_1_" enable-background="new    ">
	<g id="圆角矩形_1123">
		<g>
			<path fill-rule="evenodd" clip-rule="evenodd" fill="#5EA6C8" d="M8.5,31H8c-0.6,0-1,0.4-1,1v3c0,0.6,0.4,1,1,1h0.5
				c0.6,0,1-0.4,1-1v-3C9.5,31.4,9.1,31,8.5,31z"/>
		</g>
	</g>
</g>
<g id="圆角矩形_1123_拷贝_1_" enable-background="new    ">
	<g id="圆角矩形_1123_拷贝">
		<g>
			<path fill-rule="evenodd" clip-rule="evenodd" fill="#5EA6C8" d="M20.5,31H20c-0.6,0-1,0.4-1,1v3c0,0.6,0.4,1,1,1h0.5
				c0.6,0,1-0.4,1-1v-3C21.5,31.4,21.1,31,20.5,31z"/>
		</g>
	</g>
</g>
</svg>
