<?xml version="1.0" encoding="utf-8"?>
<!-- Generator: Adobe Illustrator 18.1.1, SVG Export Plug-In . SVG Version: 6.00 Build 0)  -->
<svg version="1.1" xmlns="http://www.w3.org/2000/svg" xmlns:xlink="http://www.w3.org/1999/xlink" x="0px" y="0px"
	 viewBox="0 0 36 30" enable-background="new 0 0 36 30" xml:space="preserve">
<g id="椭圆_902_拷贝_1_" enable-background="new    ">
	<g id="椭圆_902_拷贝">
		<g>
			<path fill="#4F6CA5" d="M10.7,2c0.3,0,0.7,0,1,0.1c-1.5,1.1-3,2.5-4.1,3.7c-0.2-1-0.1-2,0.5-2.9C8.8,2.4,9.7,2,10.7,2 M10.7,0.5
				C9.4,0.5,8.1,0.9,7,2C5,4.6,6.6,7.8,7.1,8.8C8.3,7.1,12.2,3,15,2C14.6,1.4,12.7,0.5,10.7,0.5L10.7,0.5z M7.1,8.8C7.1,8.9,7,9,7,9
				c0.2,0.2,0.2,0.2,0.3,0.2C7.3,9.2,7.2,9.1,7.1,8.8L7.1,8.8z"/>
		</g>
	</g>
</g>
<g id="椭圆_902_拷贝_3_1_" enable-background="new    ">
	<g id="椭圆_902_拷贝_3">
		<g>
			<path fill="#4F6CA5" d="M25.4,2.1c1,0,1.8,0.4,2.4,1.3c0.7,1,0.8,2.1,0.6,3.1c-1.2-1.4-2.9-3-4.6-4.2C24.3,2.2,24.8,2.1,25.4,2.1
				 M25.4,0.6c-2,0-3.9,1.3-4.4,2c2.8,1,6.8,5.3,7.9,7.1C29.5,8.5,31,5.2,29,2.5C27.9,1.1,26.6,0.6,25.4,0.6L25.4,0.6z M28.9,9.6
				c-0.1,0.2-0.2,0.4-0.2,0.4c0,0,0.1-0.1,0.3-0.2C29,9.7,29,9.7,28.9,9.6L28.9,9.6z"/>
		</g>
	</g>
</g>
<g id="椭圆_902_拷贝_2_1_" enable-background="new    ">
	<g id="椭圆_902_拷贝_2">
		<g>
			<path fill="#4F6CA5" d="M18,3c6.6,0,12,8.2,12,15c0,6.5-7,10-12,10c-5.9,0-12-3.7-12-10C6,10.1,11.7,3,18,3 M18,1
				C10.3,1,4,9.4,4,18c0,7.7,7.3,12,14,12c6.2,0,14-4.3,14-12C32,9.9,25.7,1,18,1L18,1z"/>
		</g>
	</g>
</g>
<g id="椭圆_905_1_" enable-background="new    ">
	<g id="椭圆_905">
		<g>
			<ellipse fill-rule="evenodd" clip-rule="evenodd" fill="#4F6CA5" cx="18.1" cy="15.8" rx="2.4" ry="1.8"/>
		</g>
	</g>
</g>
<g id="圆角矩形_912_1_" enable-background="new    ">
	<g id="圆角矩形_912">
		<g>
			<path fill-rule="evenodd" clip-rule="evenodd" fill="#4F6CA5" d="M22.3,17.2c-0.5-0.1-1,0.2-1,0.7c0,0-0.3,0.5-0.7,0.8
				c-1.9,0.5-3.7,0.7-4.8,0c-0.5-0.2-1-0.7-1-0.7c-0.2-0.5-0.7-0.7-1.2-0.5s-0.7,0.7-0.5,1.1c0,0,0.3,2.4,2.6,2.4c1.7,0,3,0,4.8,0
				c2.2,0,2.5-2.8,2.5-2.8C23.1,17.7,22.8,17.3,22.3,17.2z"/>
		</g>
	</g>
</g>
<g id="矩形_907_1_" enable-background="new    ">
	<g id="矩形_907">
		<g>
			<rect x="16.9" y="17.5" fill-rule="evenodd" clip-rule="evenodd" fill="#4F6CA5" width="2.4" height="2.3"/>
		</g>
	</g>
</g>
<g id="矩形_909_1_" enable-background="new    ">
	<g id="矩形_909">
		<g>
			<path fill-rule="evenodd" clip-rule="evenodd" fill="#4F6CA5" d="M10,15c0,0-2.3,0-4.9,0C3.9,15,1,16,1,16c-0.6,0-1,0.4-1,1
				c0,0.6,0.4,1,1,1c0,0,3-1,4.3-1C8,17,10,17,10,17c0.6,0,1-0.4,1-1C11,15.4,10.6,15,10,15z"/>
		</g>
	</g>
</g>
<g id="矩形_909_拷贝_2_1_" enable-background="new    ">
	<g id="矩形_909_拷贝_2">
		<g>
			<path fill-rule="evenodd" clip-rule="evenodd" fill="#4F6CA5" d="M35,16c0,0-2.9-1-4.1-1c-2.7,0-4.9,0-4.9,0c-0.6,0-1,0.4-1,1
				c0,0.6,0.4,1,1,1c0,0,2,0,4.7,0c1.3,0,4.3,1,4.3,1c0.6,0,1-0.4,1-1C36,16.4,35.6,16,35,16z"/>
		</g>
	</g>
</g>
<g id="矩形_909_拷贝_3_1_" enable-background="new    ">
	<g id="矩形_909_拷贝_3">
		<g>
			<path fill-rule="evenodd" clip-rule="evenodd" fill="#4F6CA5" d="M35,20c0,0-3.9-2-5.1-2c-2.7,0-3.9,0-3.9,0c-0.6,0-1,0.4-1,1
				c0,0.6,0.4,1,1,1c0,0,1,0,3.7,0c1.3,0,5.3,2,5.3,2c0.6,0,1-0.4,1-1C36,20.4,35.6,20,35,20z"/>
		</g>
	</g>
</g>
<g id="矩形_909_拷贝_4_1_" enable-background="new    ">
	<g id="矩形_909_拷贝_4">
		<g>
			<path fill-rule="evenodd" clip-rule="evenodd" fill="#4F6CA5" d="M10,18c0,0-1.3,0-3.9,0C4.9,18,1,20,1,20c-0.6,0-1,0.4-1,1
				c0,0.6,0.4,1,1,1c0,0,4-2,5.3-2C9,20,10,20,10,20c0.6,0,1-0.4,1-1C11,18.4,10.6,18,10,18z"/>
		</g>
	</g>
</g>
</svg>
