<?xml version="1.0" encoding="utf-8"?>
<!-- Generator: Adobe Illustrator 18.1.1, SVG Export Plug-In . SVG Version: 6.00 Build 0)  -->
<svg version="1.1" id="组_1_1_" xmlns="http://www.w3.org/2000/svg" xmlns:xlink="http://www.w3.org/1999/xlink" x="0px" y="0px"
	 viewBox="0 0 27 36" enable-background="new 0 0 27 36" xml:space="preserve">
<g id="圆角矩形_7_拷贝">
	<g>
		<path fill-rule="evenodd" clip-rule="evenodd" fill="#999999" d="M25,4h-4.3C20.9,4.3,21,4.6,21,5v1h2c1.1,0,2,0.9,2,2v24
			c0,1.1-0.9,2-2,2H4c-1.1,0-2-0.9-2-2V8c0-1.1,0.9-2,2-2h2V5c0-0.4,0.1-0.7,0.3-1H2C0.9,4,0,4.9,0,6v28c0,1.1,0.9,2,2,2h23
			c1.1,0,2-0.9,2-2V6C27,4.9,26.1,4,25,4z"/>
	</g>
</g>
<g id="矩形_2">
	<g>
		<path fill-rule="evenodd" clip-rule="evenodd" fill="#999999" d="M17,3c0-1.7-1.3-3-3-3h-1c-1.7,0-3,1.3-3,3H7v5h13V3H17z M14,4
			h-1V2h1V4z"/>
	</g>
</g>
<g id="矩形_4">
	<g>
		<path fill-rule="evenodd" clip-rule="evenodd" fill="#999999" d="M20,16c-0.1,3.4-2.8,5-6.5,7C9.7,20.9,7,18.8,7,15.8
			c0.1-1.2,1-3,2.1-3.5c1.5-0.6,3.3,0.3,4.4,1.5c0.8-1.1,2.5-2,3.9-1.8c0.2,0,0.4,0.1,0.6,0.1v-0.9c-1.6-0.1-3.5,0.9-4.5,2.1
			c-1.2-1.4-3.3-2.5-5-1.8c-1.3,0.6-2.4,2.7-2.5,4.1c0,3.4,3.1,5.9,7.5,8.3c4.2-2.3,7.3-4.2,7.5-8H20z"/>
	</g>
</g>
<g id="矩形_3_拷贝">
	<g>
		<polygon fill-rule="evenodd" clip-rule="evenodd" fill="#999999" points="21.3,11.3 14.2,18.4 10.7,14.8 9.3,16.3 14.2,21.2 
			22.7,12.7 		"/>
	</g>
</g>
<g id="矩形_3">
	<g>
		<rect x="5" y="28" fill-rule="evenodd" clip-rule="evenodd" fill="#999999" width="17" height="2"/>
	</g>
</g>
<g id="矩形_3_拷贝_2">
	<g>
		<rect x="5" y="26" fill-rule="evenodd" clip-rule="evenodd" fill="#999999" width="17" height="1"/>
	</g>
</g>
</svg>
