<?xml version="1.0" encoding="utf-8"?>
<!-- Generator: Adobe Illustrator 18.1.1, SVG Export Plug-In . SVG Version: 6.00 Build 0)  -->
<svg version="1.1" xmlns="http://www.w3.org/2000/svg" xmlns:xlink="http://www.w3.org/1999/xlink" x="0px" y="0px"
	 viewBox="0 0 36 36" enable-background="new 0 0 36 36" xml:space="preserve">
<g id="矩形_935_1_" enable-background="new    ">
	<g id="矩形_935">
		<g>
			<path fill-rule="evenodd" clip-rule="evenodd" fill="#4F6CA5" d="M4,23c0-3.4,3.3-9.8,8-13.1V8C6.1,11.6,2,19.5,2,23.5
				c0,4.7,5.6,8.6,13,9.5v-1.7C8.7,30.5,4,27.1,4,23z M24,8v2c4.7,3.3,8,9.7,8,13.1c0,4-4.7,7.4-11,8.2V33c7.4-0.8,13-4.8,13-9.5
				C34,19.5,29.9,11.6,24,8z"/>
		</g>
	</g>
</g>
<g id="椭圆_935_1_" enable-background="new    ">
	<g id="椭圆_935">
		<g>
			<path fill="#4F6CA5" d="M18,22c2.4,0,5,1.6,5,2.5c0,0.9-2.5,2.5-5,2.5c-2.3,0-5-1.7-5-2.5C13,23.6,15.6,22,18,22 M18,20
				c-3,0-7,2-7,4.5c0,2.5,4.1,4.5,7,4.5c3.1,0,7-2,7-4.5C25,22,21,20,18,20L18,20z"/>
		</g>
	</g>
</g>
<g id="椭圆_879_拷贝_2_1_" enable-background="new    ">
	<g id="椭圆_879_拷贝_2">
		<g>
			<path fill="#4F6CA5" d="M18,30.7c0,0,0.1,0.1,0.1,0.1c1.4,1.2,1.9,1.7,1.9,2.5c0,0.4-0.1,0.6-0.2,0.7c-0.1,0-0.3-0.1-0.5-0.3
				l-1.2-1l-1.3,0.9c-0.4,0.3-0.6,0.3-0.7,0.3c0-0.1-0.1-0.3-0.1-0.7C16,32.4,16.5,32,18,30.7C17.9,30.7,18,30.7,18,30.7 M18,28
				c-2.1,2-4,2.9-4,5.3c0,1.6,0.9,2.7,2.1,2.7c0.6,0,1.2-0.2,1.9-0.7c0.6,0.5,1.3,0.8,1.9,0.8c1.2,0,2.1-1.1,2.1-2.7
				C22,30.9,20,30,18,28L18,28z"/>
		</g>
	</g>
</g>
<g id="椭圆_879_拷贝_3_1_" enable-background="new    ">
	<g id="椭圆_879_拷贝_3">
		<g>
			<path fill="#4F6CA5" d="M17.1,23c-0.6,0-1.1,0.4-1.1,1c0,0.9,1,1.2,2,2c1-0.7,2-1.1,2-2c0-0.6-0.4-1-1-1c-0.3,0-0.6,0.1-1,0.3
				C17.7,23.1,17.4,23,17.1,23L17.1,23z"/>
		</g>
	</g>
</g>
<g id="圆角矩形_932_拷贝_1_" enable-background="new    ">
	<g id="圆角矩形_932_拷贝">
		<g>
			<path fill="#4F6CA5" d="M18,2c0.6,0,1,0.4,1,1c0,0.6,0.2,1.1,0.6,1.5C20,4.8,20.5,5,21,5c0,0,0.1,0,0.1,0c0,0,0.1,0,0.1,0
				C22.5,5,23,6.3,23,7.4c0,1.9-1.2,3-3.8,5c-0.4,0.3-0.8,0.6-1.2,1c-0.4-0.3-0.8-0.6-1.1-0.9c-2.6-2-3.8-3.1-3.8-5.1
				c0-0.8,0.2-1.4,0.5-1.8c0.3-0.3,0.6-0.5,1.1-0.5c0.1,0,0.1,0,0.2,0c0.1,0,0.1,0,0.2,0c0.5,0,1-0.2,1.4-0.5
				C16.8,4.2,17,3.7,17,3.1V3C17,2.4,17.4,2,18,2 M18,0c-1.7,0-3,1.3-3,3v0.1c-0.1,0-0.2,0-0.3,0c-2.1,0-3.7,1.7-3.7,4.3
				c0,3.9,3.3,5.4,7,8.6c3.6-3.2,7-4.7,7-8.6C25,4.8,23.4,3,21.3,3c-0.1,0-0.2,0-0.3,0v0C21,1.3,19.7,0,18,0L18,0z"/>
		</g>
	</g>
</g>
<g id="眼睛_3_" enable-background="new    ">
	<g id="眼睛">
		<g>
			<path fill="#4F6CA5" d="M12.5,16c0.3,0,0.5,0.2,0.5,0.5S12.8,17,12.5,17S12,16.8,12,16.5S12.2,16,12.5,16 M12.5,14
				c-1.4,0-2.5,1.1-2.5,2.5s1.1,2.5,2.5,2.5s2.5-1.1,2.5-2.5S13.9,14,12.5,14L12.5,14z"/>
		</g>
	</g>
</g>
<g id="眼睛_2_" enable-background="new    ">
	<g id="眼睛_1_">
		<g>
			<path fill="#4F6CA5" d="M24.5,16c0.3,0,0.5,0.2,0.5,0.5S24.8,17,24.5,17S24,16.8,24,16.5S24.2,16,24.5,16 M24.5,14
				c-1.4,0-2.5,1.1-2.5,2.5s1.1,2.5,2.5,2.5s2.5-1.1,2.5-2.5S25.9,14,24.5,14L24.5,14z"/>
		</g>
	</g>
</g>
</svg>
