<?xml version="1.0" encoding="utf-8"?>
<!-- Generator: Adobe Illustrator 18.1.1, SVG Export Plug-In . SVG Version: 6.00 Build 0)  -->
<svg version="1.1" xmlns="http://www.w3.org/2000/svg" xmlns:xlink="http://www.w3.org/1999/xlink" x="0px" y="0px"
	 viewBox="0 0 20 20" enable-background="new 0 0 20 20" xml:space="preserve">
<g id="矩形_3_拷贝_5_1_" enable-background="new    ">
	<g id="矩形_3_拷贝_5">
		<g>
			<path fill="#6C6C6C" d="M18,16v2h-2v-2H18 M20,14h-6v6h6V14L20,14z"/>
		</g>
	</g>
</g>
<g id="矩形_3_拷贝_6_1_" enable-background="new    ">
	<g id="矩形_3_拷贝_6">
		<g>
			<path fill="#6C6C6C" d="M18,2v2h-2V2H18 M20,0h-6v6h6V0L20,0z"/>
		</g>
	</g>
</g>
<g id="矩形_3_拷贝_7_1_" enable-background="new    ">
	<g id="矩形_3_拷贝_7">
		<g>
			<path fill="#6C6C6C" d="M4,2v2H2V2H4 M6,0H0v6h6V0L6,0z"/>
		</g>
	</g>
</g>
<g id="矩形_3_拷贝_8_1_" enable-background="new    ">
	<g id="矩形_3_拷贝_8">
		<g>
			<path fill="#6C6C6C" d="M4,16v2H2v-2H4 M6,14H0v6h6V14L6,14z"/>
		</g>
	</g>
</g>
<g id="矩形_1_1_" enable-background="new    ">
	<g id="矩形_1">
		<g>
			<rect x="2" y="5" fill-rule="evenodd" clip-rule="evenodd" fill="#6C6C6C" width="2" height="9"/>
		</g>
	</g>
</g>
<g id="矩形_1_拷贝_1_" enable-background="new    ">
	<g id="矩形_1_拷贝">
		<g>
			<rect x="16" y="5" fill-rule="evenodd" clip-rule="evenodd" fill="#6C6C6C" width="2" height="9"/>
		</g>
	</g>
</g>
<g id="矩形_1_拷贝_2_1_" enable-background="new    ">
	<g id="矩形_1_拷贝_2">
		<g>
			<rect x="6" y="2" fill-rule="evenodd" clip-rule="evenodd" fill="#6C6C6C" width="9" height="2"/>
		</g>
	</g>
</g>
<g id="矩形_1_拷贝_3_1_" enable-background="new    ">
	<g id="矩形_1_拷贝_3">
		<g>
			<rect x="6" y="16" fill-rule="evenodd" clip-rule="evenodd" fill="#6C6C6C" width="9" height="2"/>
		</g>
	</g>
</g>
</svg>
