<?xml version="1.0" encoding="utf-8"?>
<!-- Generator: Adobe Illustrator 18.1.1, SVG Export Plug-In . SVG Version: 6.00 Build 0)  -->
<svg version="1.1" xmlns="http://www.w3.org/2000/svg" xmlns:xlink="http://www.w3.org/1999/xlink" x="0px" y="0px"
	 viewBox="0 0 36 36" enable-background="new 0 0 36 36" xml:space="preserve">
<g id="椭圆_874_拷贝_1_" enable-background="new    ">
	<g id="椭圆_874_拷贝">
		<g>
			<path fill-rule="evenodd" clip-rule="evenodd" fill="#FE8F71" d="M18,0C8.1,0,0,8.1,0,18c0,9.9,8.1,18,18,18c9.9,0,18-8.1,18-18
				C36,8.1,27.9,0,18,0z M18,32c-7.7,0-14-6.3-14-14c0-7.7,6.3-14,14-14c7.7,0,14,6.3,14,14C32,25.7,25.7,32,18,32z"/>
		</g>
	</g>
</g>
<g id="圆角矩形_875_1_" enable-background="new    ">
	<g id="圆角矩形_875">
		<g>
			<path fill-rule="evenodd" clip-rule="evenodd" fill="#FE8F71" d="M17.5,10c-0.8,0-1.5,0.7-1.5,1.5v7c0,0.8,0.7,1.5,1.5,1.5
				s1.5-0.7,1.5-1.5v-7C19,10.7,18.3,10,17.5,10z"/>
		</g>
	</g>
</g>
<g id="圆角矩形_875_拷贝_1_" enable-background="new    ">
	<g id="圆角矩形_875_拷贝">
		<g>
			<path fill-rule="evenodd" clip-rule="evenodd" fill="#FE8F71" d="M24.5,17h-7c-0.8,0-1.5,0.7-1.5,1.5c0,0.8,0.7,1.5,1.5,1.5h7
				c0.8,0,1.5-0.7,1.5-1.5C26,17.7,25.3,17,24.5,17z"/>
		</g>
	</g>
</g>
</svg>
