<?xml version="1.0" encoding="utf-8"?>
<!-- Generator: Adobe Illustrator 18.1.1, SVG Export Plug-In . SVG Version: 6.00 Build 0)  -->
<svg version="1.1" id="椭圆_886_拷贝_1_" xmlns="http://www.w3.org/2000/svg" xmlns:xlink="http://www.w3.org/1999/xlink"
	 x="0px" y="0px" viewBox="0 0 37 28" enable-background="new 0 0 37 28" xml:space="preserve">
<g id="椭圆_886_拷贝">
	<g>
		<path fill="#FE8F71" d="M20,4c3.7,0,6.8,2.9,7,6.7l0.1,2.7l2.6,0.9c2,0.7,3.3,2.6,3.3,4.7c0,2.6-1.9,4.7-4.4,5l-0.3,0H10.4
			l-0.7-0.1C6.4,23.3,4,20.4,4,17c0-3.6,2.8-6.7,6.5-7l2.3-0.2l1-2C15,5.5,17.4,4,20,4 M20,0c-4.3,0-8,2.5-9.8,6
			C4.5,6.5,0,11.2,0,17c0,5.4,3.9,9.9,9,10.8V28h20v-0.1c4.5-0.5,8-4.3,8-8.9c0-3.9-2.5-7.3-6-8.5C30.7,4.7,25.9,0,20,0L20,0z"/>
	</g>
</g>
</svg>
