<?xml version="1.0" encoding="utf-8"?>
<!-- Generator: Adobe Illustrator 18.1.1, SVG Export Plug-In . SVG Version: 6.00 Build 0)  -->
<svg version="1.1" xmlns="http://www.w3.org/2000/svg" xmlns:xlink="http://www.w3.org/1999/xlink" x="0px" y="0px"
	 viewBox="0 0 36 36" enable-background="new 0 0 36 36" xml:space="preserve">
<g id="矩形_982_拷贝_1_" enable-background="new    ">
	<g id="矩形_982_拷贝">
		<g>
			<polygon fill-rule="evenodd" clip-rule="evenodd" fill="#888888" points="14,0 14,2 19,2 19,5 21,5 21,0 			"/>
		</g>
	</g>
</g>
<g id="圆角矩形_983_1_" enable-background="new    ">
	<g id="圆角矩形_983">
		<g>
			<path fill="#888888" d="M33,10c0.6,0,1,0.4,1,1s-0.4,1-1,1H3c-0.6,0-1-0.4-1-1s0.4-1,1-1H33 M33,8H3c-1.7,0-3,1.3-3,3s1.3,3,3,3
				h30c1.7,0,3-1.3,3-3S34.7,8,33,8L33,8z"/>
		</g>
	</g>
</g>
<g id="圆角矩形_983_拷贝_1_" enable-background="new    ">
	<g id="圆角矩形_983_拷贝">
		<g>
			<path fill="#888888" d="M30,7v1H6V7L30,7L30,7 M30,5H6C4.9,5,4,5.9,4,7v1c0,1.1,0.9,2,2,2h24c1.1,0,2-0.9,2-2V7
				C32,5.9,31.1,5,30,5L30,5z"/>
		</g>
	</g>
</g>
<g id="圆角矩形_983_拷贝_2_1_" enable-background="new    ">
	<g id="圆角矩形_983_拷贝_2">
		<g>
			<path fill="#888888" d="M28.6,14L25,31.6l0,0.2V32c0,1.1-0.9,2-2,2h-9c-1.1,0-2-0.9-2-2v-0.2l-0.1-0.2L7.6,14H28.6 M31,12H5l5,20
				c0,2.2,1.8,4,4,4h9c2.2,0,4-1.8,4-4L31,12L31,12z"/>
		</g>
	</g>
</g>
<g id="矩形_1008_1_" enable-background="new    ">
	<g id="矩形_1008">
		<g>
			<rect x="8" y="19" fill-rule="evenodd" clip-rule="evenodd" fill="#888888" width="21" height="2"/>
		</g>
	</g>
</g>
<g id="矩形_1008_拷贝_1_" enable-background="new    ">
	<g id="矩形_1008_拷贝">
		<g>
			<rect x="9" y="24" fill-rule="evenodd" clip-rule="evenodd" fill="#888888" width="18" height="1.5"/>
		</g>
	</g>
</g>
<g id="矩形_1008_拷贝_2_1_" enable-background="new    ">
	<g id="矩形_1008_拷贝_2">
		<g>
			<rect x="11" y="31" fill-rule="evenodd" clip-rule="evenodd" fill="#888888" width="15" height="1.5"/>
		</g>
	</g>
</g>
</svg>
