<?xml version="1.0" encoding="utf-8"?>
<!-- Generator: Adobe Illustrator 18.1.1, SVG Export Plug-In . SVG Version: 6.00 Build 0)  -->
<svg version="1.1" id="椭圆_879_1_" xmlns="http://www.w3.org/2000/svg" xmlns:xlink="http://www.w3.org/1999/xlink" x="0px"
	 y="0px" viewBox="0 0 36 33" enable-background="new 0 0 36 33" xml:space="preserve">
<g id="椭圆_879">
	<g>
		<path fill="#FE8F71" d="M26.4,3.7c3.4,0,5.6,2.9,5.6,7.3c0,5.4-3.5,8.4-10.1,13.6c-1.2,1-2.5,2-3.9,3.1c-1.3-1-2.5-2-3.7-2.9
			C7.3,19.4,4,16.5,4,11c0-2.3,0.6-4.2,1.7-5.4c0.9-1.1,2.2-1.6,3.7-1.6c1.9,0,4.1,0.8,6.3,2.4L18.2,8l2.3-1.8
			C22.5,4.5,24.5,3.7,26.4,3.7 M26.4-0.3c-2.6,0-5.5,1-8.4,3.3c-3.1-2.1-6-3.1-8.6-3.1C3.9-0.1,0,4.2,0,11c0,9.9,8.6,13.8,18,22
			c9.2-8.2,18-12.1,18-22C36,4.3,31.9-0.3,26.4-0.3L26.4-0.3z"/>
	</g>
</g>
</svg>
