<?xml version="1.0" encoding="utf-8"?>
<!-- Generator: Adobe Illustrator 18.1.1, SVG Export Plug-In . SVG Version: 6.00 Build 0)  -->
<svg version="1.1" xmlns="http://www.w3.org/2000/svg" xmlns:xlink="http://www.w3.org/1999/xlink" x="0px" y="0px"
	 viewBox="0 0 32 36" enable-background="new 0 0 32 36" xml:space="preserve">
<g id="椭圆_879_拷贝_1_" enable-background="new    ">
	<g id="椭圆_879_拷贝">
		<g>
			<path fill="#4F6CA5" d="M15.7,14C20.2,14,30,16.8,30,25c0,4.4-2.4,7.3-6,7.3c-2.1,0-4.5-1-6.8-2.8l-1.2-0.9l-1.2,0.8
				c-2.5,1.7-5,2.6-7.1,2.6C4.2,32,2,29.4,2,25C2,17.4,10,14,15.7,14 M15.7,12C9.2,12,0,15.9,0,25C0,30.7,3.2,34,7.8,34
				c2.4,0,5.3-0.9,8.2-3c2.8,2.2,5.6,3.2,8,3.2c4.6,0,8-3.5,8-9.3C32,15.4,21.1,12,15.7,12L15.7,12z"/>
		</g>
	</g>
</g>
<g id="椭圆_879_拷贝_4_1_" enable-background="new    ">
	<g id="椭圆_879_拷贝_4">
		<g>
			<path fill="#4F6CA5" d="M17,7c4.5,0,8.2,3.3,8.9,7.6c-3.4-1.8-7.3-2.6-10.2-2.6c-2.7,0-6.3,0.7-9.5,2.4C6.9,10.2,10.6,7,15,7H17
				 M17,5h-2C8.9,5,4,9.9,4,16v2.2c3.3-2.9,7.9-4.2,11.7-4.2c3.3,0,8.6,1.3,12.3,4.4V16C28,9.9,23.1,5,17,5L17,5z"/>
		</g>
	</g>
</g>
<g id="椭圆_939_1_" enable-background="new    ">
	<g id="椭圆_939">
		<g>
			<path fill="#4F6CA5" d="M9,24c0.6,0,1,0.4,1,1s-0.4,1-1,1s-1-0.4-1-1S8.4,24,9,24 M9,22c-1.7,0-3,1.3-3,3s1.3,3,3,3s3-1.3,3-3
				S10.7,22,9,22L9,22z"/>
		</g>
	</g>
</g>
<g id="椭圆_939_拷贝_1_" enable-background="new    ">
	<g id="椭圆_939_拷贝">
		<g>
			<path fill="#4F6CA5" d="M22,24c0.6,0,1,0.4,1,1s-0.4,1-1,1s-1-0.4-1-1S21.4,24,22,24 M22,22c-1.7,0-3,1.3-3,3s1.3,3,3,3
				s3-1.3,3-3S23.7,22,22,22L22,22z"/>
		</g>
	</g>
</g>
<g id="形状_1_拷贝_1_" enable-background="new    ">
	<g id="形状_1_拷贝">
		<g>
			<path fill-rule="evenodd" clip-rule="evenodd" fill="#4F6CA5" d="M27,0c0,0-0.7,7.3-5,7l5,5c0,0,2.9-2.8,3-7S27,0,27,0z M28,7
				c-0.7,2.4-2,3-2,3l-2-2c2.5,0.2,4-5,4-5S28.5,5,28,7z"/>
		</g>
	</g>
</g>
<g id="形状_1_拷贝_2_1_" enable-background="new    ">
	<g id="形状_1_拷贝_2">
		<g>
			<path fill-rule="evenodd" clip-rule="evenodd" fill="#4F6CA5" d="M5,0c0,0-3.1,0.8-3,5s3,7,3,7l5-5C5.7,7.3,5,0,5,0z M4,7
				C3.5,5,4,3,4,3s1.5,5.2,4,5l-2,2C6,10,4.7,9.4,4,7z"/>
		</g>
	</g>
</g>
<g id="椭圆_943_1_" enable-background="new    ">
	<g id="椭圆_943">
		<g>
			<path fill="#4F6CA5" d="M15.5,31c0.8,0,1.5,0.7,1.5,1.5S16.3,34,15.5,34S14,33.3,14,32.5S14.7,31,15.5,31 M15.5,29
				c-1.9,0-3.5,1.6-3.5,3.5s1.6,3.5,3.5,3.5s3.5-1.6,3.5-3.5S17.4,29,15.5,29L15.5,29z"/>
		</g>
	</g>
</g>
</svg>
