<?xml version="1.0" encoding="utf-8"?>
<!-- Generator: Adobe Illustrator 18.1.1, SVG Export Plug-In . SVG Version: 6.00 Build 0)  -->
<svg version="1.1" xmlns="http://www.w3.org/2000/svg" xmlns:xlink="http://www.w3.org/1999/xlink" x="0px" y="0px"
	 viewBox="0 0 55 39" enable-background="new 0 0 55 39" xml:space="preserve">
<g id="圆角矩形_4_1_" enable-background="new    ">
	<g id="圆角矩形_4">
		<g>
			<path fill="#02B5B9" d="M51,2.5c0.8,0,1.5,0.7,1.5,1.5v31c0,0.8-0.7,1.5-1.5,1.5H4c-0.8,0-1.5-0.7-1.5-1.5V4
				c0-0.8,0.7-1.5,1.5-1.5H51 M51,0H4C1.8,0,0,1.8,0,4v31c0,2.2,1.8,4,4,4h47c2.2,0,4-1.8,4-4V4C55,1.8,53.2,0,51,0L51,0z"/>
		</g>
	</g>
</g>
<g id="矩形_4_1_" enable-background="new    ">
	<g id="矩形_4">
		<g>
			<rect x="8" y="28" fill-rule="evenodd" clip-rule="evenodd" fill="#02B5B9" width="40" height="2.5"/>
		</g>
	</g>
</g>
<g id="矩形_5_1_" enable-background="new    ">
	<g id="矩形_5">
		<g>
			<path fill="#02B5B9" d="M16.5,16.5v4h-5v-4H16.5 M19,14H9v9h10V14L19,14z"/>
		</g>
	</g>
</g>
<g id="椭圆_1_1_" enable-background="new    ">
	<g id="椭圆_1">
		<g>
			<path fill="#02B5B9" d="M38.5,8.5c3.9,0,7,3.1,7,7s-3.1,7-7,7s-7-3.1-7-7S34.6,8.5,38.5,8.5 M38.5,6c-5.2,0-9.5,4.3-9.5,9.5
				c0,5.2,4.3,9.5,9.5,9.5s9.5-4.3,9.5-9.5C48,10.3,43.7,6,38.5,6L38.5,6z"/>
		</g>
	</g>
</g>
<g id="矩形_6_1_" enable-background="new    ">
	<g id="矩形_6">
		<g>
			<rect x="31" y="12" fill-rule="evenodd" clip-rule="evenodd" fill="#02B5B9" width="15" height="2"/>
		</g>
	</g>
</g>
<g id="矩形_7_1_" enable-background="new    ">
	<g id="矩形_7">
		<g>
			<rect x="31" y="17" fill-rule="evenodd" clip-rule="evenodd" fill="#02B5B9" width="16" height="2"/>
		</g>
	</g>
</g>
<g id="椭圆_2_1_" enable-background="new    ">
	<g id="椭圆_2">
		<g>
			<path fill="#02B5B9" d="M38.5,9.5c0.5,0.1,2,2.1,2,6c0,3.9-1.5,5.9-2,6c-0.5-0.1-2-2.1-2-6C36.5,11.6,38,9.6,38.5,9.5 M38.5,7
				C36,7,34,10.8,34,15.5c0,4.7,2,8.5,4.5,8.5c2.5,0,4.5-3.8,4.5-8.5C43,10.8,41,7,38.5,7L38.5,7z"/>
		</g>
	</g>
</g>
</svg>
