<?xml version="1.0" encoding="utf-8"?>
<!-- Generator: Adobe Illustrator 18.1.1, SVG Export Plug-In . SVG Version: 6.00 Build 0)  -->
<svg version="1.1" xmlns="http://www.w3.org/2000/svg" xmlns:xlink="http://www.w3.org/1999/xlink" x="0px" y="0px"
	 viewBox="0 0 20 20" enable-background="new 0 0 20 20" xml:space="preserve">
<g id="椭圆_3_1_" enable-background="new    ">
	<g id="椭圆_3">
		<g>
			<path fill="#6C6C6C" d="M10,1.5c4.7,0,8.5,3.8,8.5,8.5s-3.8,8.5-8.5,8.5S1.5,14.7,1.5,10S5.3,1.5,10,1.5 M10,0C4.5,0,0,4.5,0,10
				s4.5,10,10,10s10-4.5,10-10S15.5,0,10,0L10,0z"/>
		</g>
	</g>
</g>
<g id="矩形_7_1_" enable-background="new    ">
	<g id="矩形_7">
		<g>
			
				<rect x="4" y="9" transform="matrix(0.7071 -0.7071 0.7071 0.7071 -4.1421 10)" fill-rule="evenodd" clip-rule="evenodd" width="12" height="2"/>
		</g>
	</g>
</g>
<g id="矩形_7_拷贝_1_" enable-background="new    ">
	<g id="矩形_7_拷贝">
		<g>
			
				<rect x="9" y="4" transform="matrix(0.7071 -0.7071 0.7071 0.7071 -4.1421 10)" fill-rule="evenodd" clip-rule="evenodd" width="2" height="12"/>
		</g>
	</g>
</g>
</svg>
