<?xml version="1.0" encoding="utf-8"?>
<!-- Generator: Adobe Illustrator 18.1.1, SVG Export Plug-In . SVG Version: 6.00 Build 0)  -->
<svg version="1.1" xmlns="http://www.w3.org/2000/svg" xmlns:xlink="http://www.w3.org/1999/xlink" x="0px" y="0px"
	 viewBox="0 0 36 31" enable-background="new 0 0 36 31" xml:space="preserve">
<g id="矩形_915_1_" enable-background="new    ">
	<g id="矩形_915">
		<g>
			<path fill-rule="evenodd" clip-rule="evenodd" fill="#4F6CA5" d="M18,0C8.1,0,0,8.1,0,18h2C2,9.2,9.2,2,18,2c8.8,0,16,7.2,16,16
				h2C36,8.1,27.9,0,18,0z"/>
		</g>
	</g>
</g>
<g id="嘴巴_1_" enable-background="new    ">
	<g id="嘴巴">
		<g>
			<path fill="#4F6CA5" d="M18,25c1.1,0,2,0.9,2,2s-0.9,2-2,2s-2-0.9-2-2S16.9,25,18,25 M18,23c-2.2,0-4,1.8-4,4c0,2.2,1.8,4,4,4
				s4-1.8,4-4C22,24.8,20.2,23,18,23L18,23z"/>
		</g>
	</g>
</g>
<g id="鼻子_1_" enable-background="new    ">
	<g id="鼻子">
		<g>
			<path fill="#4F6CA5" d="M18,19c1,0,1.6,0.3,1.9,0.5C19.6,19.7,19,20,18,20s-1.6-0.3-1.9-0.5C16.4,19.3,17,19,18,19 M18,17
				c-2.2,0-4,1.1-4,2.5s1.8,2.5,4,2.5s4-1.1,4-2.5S20.2,17,18,17L18,17z"/>
		</g>
	</g>
</g>
<g id="耳朵_3_" enable-background="new    ">
	<g id="耳朵">
		<g>
			<path fill-rule="evenodd" clip-rule="evenodd" fill="#4F6CA5" d="M8,4v13c0,1.7-1.3,3-3,3c-1.3,0-2.4-0.8-2.8-2
				c-0.1,0-0.1,0-0.2,0H0.1c0.5,2.3,2.5,4,4.9,4c2.8,0,5-2.2,5-5V4H8z"/>
		</g>
	</g>
</g>
<g id="耳朵_2_" enable-background="new    ">
	<g id="耳朵_1_">
		<g>
			<path fill-rule="evenodd" clip-rule="evenodd" fill="#4F6CA5" d="M34.1,18c-0.1,0-0.1,0-0.2,0c-0.4,1.2-1.5,2-2.8,2
				c-1.7,0-3-1.3-3-3V4h-2v13c0,2.8,2.3,5,5,5c2.4,0,4.5-1.7,4.9-4H34.1z"/>
		</g>
	</g>
</g>
<g id="下巴_3_" enable-background="new    ">
	<g id="下巴">
		<g>
			<path fill-rule="evenodd" clip-rule="evenodd" fill="#4F6CA5" d="M12.5,26C10,26,8,24,8,21.5V21H6v1c0,3.3,2.7,6,6,6h1
				c0.3,0,0.7,0,1-0.1v-2.2C13.5,25.9,13,26,12.5,26z"/>
		</g>
	</g>
</g>
<g id="下巴_2_" enable-background="new    ">
	<g id="下巴_1_">
		<g>
			<path fill-rule="evenodd" clip-rule="evenodd" fill="#4F6CA5" d="M28,21v0.5c0,2.5-2,4.5-4.5,4.5c-0.5,0-1-0.1-1.5-0.3v2.2
				c0.3,0.1,0.7,0.1,1,0.1h1c3.3,0,6-2.7,6-6v-1H28z"/>
		</g>
	</g>
</g>
<g id="矩形_921_1_" enable-background="new    ">
	<g id="矩形_921">
		<g>
			<rect x="17" y="20" fill-rule="evenodd" clip-rule="evenodd" fill="#4F6CA5" width="2" height="3"/>
		</g>
	</g>
</g>
<g id="椭圆_924_1_" enable-background="new    ">
	<g id="椭圆_924">
		<g>
			<circle fill-rule="evenodd" clip-rule="evenodd" fill="#4F6CA5" cx="12.5" cy="14.5" r="1.5"/>
		</g>
	</g>
</g>
<g id="椭圆_924_拷贝_1_" enable-background="new    ">
	<g id="椭圆_924_拷贝">
		<g>
			<circle fill-rule="evenodd" clip-rule="evenodd" fill="#4F6CA5" cx="23.5" cy="14.5" r="1.5"/>
		</g>
	</g>
</g>
</svg>
