<?xml version="1.0" encoding="utf-8"?>
<!-- Generator: Adobe Illustrator 18.1.1, SVG Export Plug-In . SVG Version: 6.00 Build 0)  -->
<svg version="1.1" xmlns="http://www.w3.org/2000/svg" xmlns:xlink="http://www.w3.org/1999/xlink" x="0px" y="0px"
	 viewBox="0 0 36 36" enable-background="new 0 0 36 36" xml:space="preserve">
<g id="矩形_1035_1_" enable-background="new    ">
	<g id="矩形_1035">
		<g>
			<path fill="#1A956B" d="M33.5,9l-6,25H14.6l-6-25H33.5 M36,7H6l7,29h16L36,7L36,7z"/>
		</g>
	</g>
</g>
<g id="矩形_1037_1_" enable-background="new    ">
	<g id="矩形_1037">
		<g>
			<polygon fill="#1A956B" points="31,20 10,20 10,22 31,22 31,20 			"/>
		</g>
	</g>
</g>
<g id="椭圆_1036_1_" enable-background="new    ">
	<g id="椭圆_1036">
		<g>
			<path fill="#1A956B" d="M7,2c2.8,0,5,2.2,5,5c0,2.8-2.2,5-5,5S2,9.8,2,7C2,4.2,4.2,2,7,2 M7,0C3.1,0,0,3.1,0,7s3.1,7,7,7
				s7-3.1,7-7S10.9,0,7,0L7,0z"/>
		</g>
	</g>
</g>
<g id="矩形_1038_1_" enable-background="new    ">
	<g id="矩形_1038">
		<g>
			<polygon fill-rule="evenodd" clip-rule="evenodd" fill="#1A956B" points="26.8,0.1 20.3,24.4 22.2,24.9 28.7,0.6 			"/>
		</g>
	</g>
</g>
</svg>
