<?xml version="1.0" encoding="utf-8"?>
<!-- Generator: Adobe Illustrator 18.1.1, SVG Export Plug-In . SVG Version: 6.00 Build 0)  -->
<svg version="1.1" xmlns="http://www.w3.org/2000/svg" xmlns:xlink="http://www.w3.org/1999/xlink" x="0px" y="0px"
	 viewBox="0 0 36 36" enable-background="new 0 0 36 36" xml:space="preserve">
<g id="椭圆_986_拷贝_1_" enable-background="new    ">
	<g id="椭圆_986_拷贝">
		<g>
			<path fill="#888888" d="M17.9,12c1.5,0,3.5,0.3,4.7,1.5c3.8,3.8-1,15.6-4.2,18.9C17.1,33.7,15.3,34,14,34c-2.8,0-5.9-1.4-8.2-3.8
				c-4.1-4.2-5-10-2.1-12.9C5.7,15.2,12.4,12,17.9,12 M17.9,10c-5.8,0-13.1,3.2-15.7,5.8c-3.7,3.7-2.7,10.8,2.1,15.7
				C7.2,34.5,10.8,36,14,36c2.2,0,4.3-0.7,5.8-2.3c3.7-3.7,9.1-16.7,4.2-21.7C22.6,10.6,20.4,10,17.9,10L17.9,10z"/>
		</g>
	</g>
</g>
<g id="椭圆_989_拷贝_3_1_" enable-background="new    ">
	<g id="椭圆_989_拷贝_3">
		<g>
			<path fill="#888888" d="M28.3,2c0.7,0,1.3,0.5,1.3,1.2c0,0.2,0,0.3-0.1,0.5c-0.4,0.8-0.2,1.7,0.3,2.3c0.4,0.4,0.9,0.6,1.4,0.6
				c0.3,0,0.6-0.1,0.9-0.2c0.2-0.1,0.4-0.1,0.6-0.1c0.7,0,1.3,0.5,1.3,1.2c0,0.7-0.6,1.2-1.3,1.2c-0.4,0-0.8-0.2-1-0.5
				c-0.4-0.5-0.9-0.7-1.5-0.7c0,0,0,0,0,0c-0.6,0-1.1,0.2-1.5,0.7l-3.5,4l-1.3-1.3l3.6-4.1C28,5.9,28,4.7,27.3,4
				C27.1,3.8,27,3.6,27,3.2C27,2.5,27.6,2,28.3,2 M28.3,0C26.4,0,25,1.4,25,3.2c0,0.8,0.3,1.6,0.9,2.2L21,10.9l4.2,4.1l4.9-5.6
				c0.6,0.7,1.5,1.2,2.6,1.2c1.8,0,3.3-1.4,3.3-3.2c0-1.8-1.5-3.2-3.3-3.2c-0.5,0-1,0.1-1.4,0.3c0.2-0.4,0.3-0.9,0.3-1.4
				C31.6,1.4,30.1,0,28.3,0L28.3,0z"/>
		</g>
	</g>
</g>
<g id="矩形_990_1_" enable-background="new    ">
	<g id="矩形_990">
		<g>
			<path fill-rule="evenodd" clip-rule="evenodd" fill="#888888" d="M8.9,16.4c-2.4,1.3-4.3,4.2-3,6.7l1.8-1
				c-0.8-1.5,0.7-3.1,2.2-3.9c1.1-0.6,2.5-1.6,3.5-1.4l0.2-1.8C12.1,14.9,10.3,15.6,8.9,16.4z"/>
		</g>
	</g>
</g>
<g id="圆角矩形_990_1_" enable-background="new    ">
	<g id="圆角矩形_990">
		<g>
			<path fill-rule="evenodd" clip-rule="evenodd" fill="#888888" d="M10.5,28H10c-0.6,0-1,0.4-1,1c0,0.6,0.4,1,1,1h0.5
				c0.6,0,1-0.4,1-1C11.5,28.4,11.1,28,10.5,28z"/>
		</g>
	</g>
</g>
<g id="圆角矩形_990_拷贝_1_" enable-background="new    ">
	<g id="圆角矩形_990_拷贝">
		<g>
			<path fill-rule="evenodd" clip-rule="evenodd" fill="#888888" d="M16.5,30H16c-0.6,0-1,0.4-1,1c0,0.6,0.4,1,1,1h0.5
				c0.6,0,1-0.4,1-1C17.5,30.4,17.1,30,16.5,30z"/>
		</g>
	</g>
</g>
<g id="圆角矩形_990_拷贝_2_1_" enable-background="new    ">
	<g id="圆角矩形_990_拷贝_2">
		<g>
			<path fill-rule="evenodd" clip-rule="evenodd" fill="#888888" d="M20.5,24H20c-0.6,0-1,0.4-1,1c0,0.6,0.4,1,1,1h0.5
				c0.6,0,1-0.4,1-1C21.5,24.4,21.1,24,20.5,24z"/>
		</g>
	</g>
</g>
</svg>
