<?xml version="1.0" encoding="utf-8"?>
<!-- Generator: Adobe Illustrator 18.1.1, SVG Export Plug-In . SVG Version: 6.00 Build 0)  -->
<svg version="1.1" xmlns="http://www.w3.org/2000/svg" xmlns:xlink="http://www.w3.org/1999/xlink" x="0px" y="0px"
	 viewBox="0 0 36 35" enable-background="new 0 0 36 35" xml:space="preserve">
<g id="矩形_1143_1_" enable-background="new    ">
	<g id="矩形_1143">
		<g>
			<path fill="#5435BF" d="M11,2.5c0.2,0,0.5,0,0.8,0l0.3,0l0.1,0l0.1,0l0.1,0c0.3,0,0.6,0.1,0.9,0.2l0.1,0l0.1,0L33.5,7V15
				l-20.2,4.2l-0.1,0l-0.1,0c-0.3,0.1-0.6,0.1-0.9,0.2l-0.1,0l-0.1,0l-0.1,0l-0.3,0c-0.3,0-0.6,0-0.8,0c-4.7,0-8.5-3.8-8.5-8.5
				C2.5,6.3,6.3,2.5,11,2.5 M12,0L12,0c-0.3,0-0.7,0-1,0C4.9,0,0,4.9,0,11c0,6.1,4.9,11,11,11c0.3,0,0.7,0,1-0.1V22l0.7-0.1
				c0.4-0.1,0.8-0.1,1.2-0.2L36,17V5L13.8,0.4c-0.4-0.1-0.8-0.2-1.2-0.2L12,0L12,0z"/>
		</g>
	</g>
</g>
<g id="矩形_1145_1_" enable-background="new    ">
	<g id="矩形_1145">
		<g>
			<polygon fill-rule="evenodd" clip-rule="evenodd" fill="#5435BF" points="15,20 12,32 8,32 8,20 5,20 5,35 14,35 18.3,20 			"/>
		</g>
	</g>
</g>
<g id="椭圆_1144_1_" enable-background="new    ">
	<g id="椭圆_1144">
		<g>
			<path fill="#5435BF" d="M12,9.5c0.8,0,1.5,0.7,1.5,1.5s-0.7,1.5-1.5,1.5s-1.5-0.7-1.5-1.5S11.2,9.5,12,9.5 M12,7
				c-2.2,0-4,1.8-4,4s1.8,4,4,4s4-1.8,4-4S14.2,7,12,7L12,7z"/>
		</g>
	</g>
</g>
</svg>
