<?xml version="1.0" encoding="utf-8"?>
<!-- Generator: Adobe Illustrator 18.1.1, SVG Export Plug-In . SVG Version: 6.00 Build 0)  -->
<svg version="1.1" xmlns="http://www.w3.org/2000/svg" xmlns:xlink="http://www.w3.org/1999/xlink" x="0px" y="0px"
	 viewBox="0 0 36 36" enable-background="new 0 0 36 36" xml:space="preserve">
<g id="圆角矩形_783_1_" enable-background="new    ">
	<g id="圆角矩形_783">
		<g>
			<path fill="#0390E8" d="M19.9,4C24.6,4,32,12.6,32,16v16H16.1C12.3,32,4,23.7,4,20.1V4H19.9 M19.9,0C11.9,0,4,0,4,0
				C1.8,0,0,1.8,0,4c0,0,0,8,0,16.1C0,26,10.1,36,16.1,36c8,0,15.9,0,15.9,0c2.2,0,4-1.8,4-4c0,0,0-7.9,0-16C36,10.5,26.8,0,19.9,0
				L19.9,0z"/>
		</g>
	</g>
</g>
<g id="圆角矩形_784_1_" enable-background="new    ">
	<g id="圆角矩形_784">
		<g>
			<path fill-rule="evenodd" clip-rule="evenodd" fill="#0390E8" d="M17.7,12c-1,0-1.7,0.8-1.7,1.8v8.5c0,1,0.8,1.8,1.7,1.8
				c1,0,1.8-0.8,1.8-1.8v-8.5C19.5,12.8,18.7,12,17.7,12z"/>
		</g>
	</g>
</g>
<g id="圆角矩形_784_拷贝_1_" enable-background="new    ">
	<g id="圆角矩形_784_拷贝">
		<g>
			<path fill-rule="evenodd" clip-rule="evenodd" fill="#0390E8" d="M22.2,16h-8.5c-1,0-1.7,0.8-1.7,1.8c0,1,0.8,1.8,1.7,1.8h8.5
				c1,0,1.8-0.8,1.8-1.8C24,16.8,23.2,16,22.2,16z"/>
		</g>
	</g>
</g>
</svg>
