<?xml version="1.0" encoding="utf-8"?>
<!-- Generator: Adobe Illustrator 18.1.1, SVG Export Plug-In . SVG Version: 6.00 Build 0)  -->
<svg version="1.1" xmlns="http://www.w3.org/2000/svg" xmlns:xlink="http://www.w3.org/1999/xlink" x="0px" y="0px"
	 viewBox="0 0 42 52" enable-background="new 0 0 42 52" xml:space="preserve">
<g id="矩形_19_1_" enable-background="new    ">
	<g id="矩形_19">
		<g>
			<path fill="#02B5B9" d="M39.5,2.5v47h-37V17L16.3,2.5H39.5 M42,0H15.2L0,16v36h42V0L42,0z"/>
		</g>
	</g>
</g>
<g id="矩形_20_1_" enable-background="new    ">
	<g id="矩形_20">
		<g>
			<rect x="15" y="2" fill-rule="evenodd" clip-rule="evenodd" fill="#02B5B9" width="2.5" height="14"/>
		</g>
	</g>
</g>
<g id="矩形_21_1_" enable-background="new    ">
	<g id="矩形_21">
		<g>
			<rect x="2" y="15" fill-rule="evenodd" clip-rule="evenodd" fill="#02B5B9" width="15" height="2.5"/>
		</g>
	</g>
</g>
<g id="矩形_22_1_" enable-background="new    ">
	<g id="矩形_22">
		<g>
			<rect x="7" y="20" fill-rule="evenodd" clip-rule="evenodd" fill="#02B5B9" width="28" height="2.5"/>
		</g>
	</g>
</g>
<g id="矩形_23_1_" enable-background="new    ">
	<g id="矩形_23">
		<g>
			<rect x="7" y="24" fill-rule="evenodd" clip-rule="evenodd" fill="#02B5B9" width="23" height="2.5"/>
		</g>
	</g>
</g>
<g id="矩形_24_1_" enable-background="new    ">
	<g id="矩形_24">
		<g>
			<rect x="7" y="35" fill-rule="evenodd" clip-rule="evenodd" fill="#02B5B9" width="14" height="2.5"/>
		</g>
	</g>
</g>
<g id="矩形_25_1_" enable-background="new    ">
	<g id="矩形_25">
		<g>
			<path fill-rule="evenodd" clip-rule="evenodd" fill="#02B5B9" d="M19.8,39H8.3C7.6,39,7,39.6,7,40.3s0.6,1.3,1.3,1.3h11.5
				c0.7,0,1.3-0.6,1.3-1.3S20.4,39,19.8,39z"/>
		</g>
	</g>
</g>
<g id="椭圆_5_1_" enable-background="new    ">
	<g id="椭圆_5">
		<g>
			<path fill="#02B5B9" d="M28.5,31.5c2.2,0,4,1.8,4,4s-1.8,4-4,4s-4-1.8-4-4S26.3,31.5,28.5,31.5 M28.5,29c-3.6,0-6.5,2.9-6.5,6.5
				c0,3.6,2.9,6.5,6.5,6.5c3.6,0,6.5-2.9,6.5-6.5C35,31.9,32.1,29,28.5,29L28.5,29z"/>
		</g>
	</g>
</g>
<g id="矩形_26_1_" enable-background="new    ">
	<g id="矩形_26">
		<g>
			
				<rect x="30" y="40" transform="matrix(0.8775 -0.4796 0.4796 0.8775 -16.8257 20.1373)" fill-rule="evenodd" clip-rule="evenodd" fill="#02B5B9" width="2" height="6"/>
		</g>
	</g>
</g>
<g id="矩形_26_拷贝_1_" enable-background="new    ">
	<g id="矩形_26_拷贝">
		<g>
			<polygon fill-rule="evenodd" clip-rule="evenodd" fill="#02B5B9" points="26.1,40 23,45.1 24.9,46 28,40.9 			"/>
		</g>
	</g>
</g>
</svg>
