<?xml version="1.0" encoding="utf-8"?>
<!-- Generator: Adobe Illustrator 18.1.1, SVG Export Plug-In . SVG Version: 6.00 Build 0)  -->
<svg version="1.1" xmlns="http://www.w3.org/2000/svg" xmlns:xlink="http://www.w3.org/1999/xlink" x="0px" y="0px"
	 viewBox="0 0 63 63" enable-background="new 0 0 63 63" xml:space="preserve">
<g id="圆角矩形_5_1_" enable-background="new    ">
	<g id="圆角矩形_5">
		<g>
			<path fill="#02B5B9" d="M22.1,3.5l37.3,36.2L40.1,59.5L2.8,23.3l0.1-0.1l0.2-0.6L7,8l14.4-4.2L22,3.6L22.1,3.5 M22.1,0.8
				c-0.5,0-1,0.2-1.4,0.6L5,6L0.7,21.9c-0.8,0.8-0.8,2.1,0,2.8l38,36.9c0.4,0.4,0.9,0.6,1.4,0.6c0.5,0,1-0.2,1.4-0.6l20-20.5
				c0.8-0.8,0.8-2.1,0-2.8l-38-36.9C23.1,1,22.6,0.8,22.1,0.8L22.1,0.8z"/>
		</g>
	</g>
</g>
<g id="椭圆_4_1_" enable-background="new    ">
	<g id="椭圆_4">
		<g>
			<path fill="#02B5B9" d="M13.5,12.5c1.1,0,2,0.9,2,2s-0.9,2-2,2s-2-0.9-2-2S12.4,12.5,13.5,12.5 M13.5,10C11,10,9,12,9,14.5
				s2,4.5,4.5,4.5s4.5-2,4.5-4.5S16,10,13.5,10L13.5,10z"/>
		</g>
	</g>
</g>
<g id="FREE_1_" enable-background="new    ">
	<g id="FREE">
		<g>
			<path fill="#02B5B9" d="M25,24.3l-3.4-3.6l2.9-2.8l4,4.2l1.3-1.2l-5.4-5.7l-9.6,9.1l1.4,1.5l4.1-3.9l3.4,3.6L25,24.3z M34.6,31.6
				c2.1-2,1.4-4.1-0.5-6.1l-3-3.1l-9.6,9.1l1.4,1.5l3.9-3.7l1.5,1.6l-1.8,5.9l1.6,1.7l1.8-6.2C31.5,33.1,33.1,33,34.6,31.6z
				 M28,28.2l3.3-3.1l1.4,1.4c1.3,1.4,1.6,2.5,0.5,3.6s-2.5,0.9-3.8-0.5L28,28.2z M35.1,37l3.3,3.5l1.3-1.2l-3.3-3.5l2.7-2.5l4,4.2
				l1.3-1.2l-5.4-5.7l-9.6,9.1l5.5,5.8l1.3-1.2L32,40L35.1,37z M50.2,45l1.3-1.2l-5.4-5.7l-9.6,9.1L42,53l1.3-1.2l-4.1-4.3l3.1-3
				l3.3,3.5l1.3-1.2l-3.3-3.5l2.7-2.5L50.2,45z"/>
		</g>
	</g>
</g>
</svg>
