<?xml version="1.0" encoding="utf-8"?>
<!-- Generator: Adobe Illustrator 18.1.1, SVG Export Plug-In . SVG Version: 6.00 Build 0)  -->
<svg version="1.1" xmlns="http://www.w3.org/2000/svg" xmlns:xlink="http://www.w3.org/1999/xlink" x="0px" y="0px"
	 viewBox="0 0 36 36" enable-background="new 0 0 36 36" xml:space="preserve">
<g id="圆角矩形_968_1_" enable-background="new    ">
	<g id="圆角矩形_968">
		<g>
			<path fill="#888888" d="M32,17c1.1,0,2,0.9,2,2v4c0,1.1-0.9,2-2,2H4c-1.1,0-2-0.9-2-2v-4c0-1.1,0.9-2,2-2H32 M32,15H4
				c-2.2,0-4,1.8-4,4v4c0,2.2,1.8,4,4,4h28c2.2,0,4-1.8,4-4v-4C36,16.8,34.2,15,32,15L32,15z"/>
		</g>
	</g>
</g>
<g id="圆角矩形_968_拷贝_2_1_" enable-background="new    ">
	<g id="圆角矩形_968_拷贝_2">
		<g>
			<path fill="#888888" d="M31,27v5c0,1.1-0.9,2-2,2H7c-1.1,0-2-0.9-2-2v-5H31 M33,24.9c-0.3,0.1-0.7,0.1-1,0.1H4
				c-0.3,0-0.7-0.1-1-0.1V32c0,2.2,1.8,4,4,4h22c2.2,0,4-1.8,4-4V24.9L33,24.9z"/>
		</g>
	</g>
</g>
<g id="圆角矩形_968_拷贝_3_1_" enable-background="new    ">
	<g id="圆角矩形_968_拷贝_3">
		<g>
			<path fill="#888888" d="M18,2c7,0,12.8,5.6,13,12.6c0,0.1-0.1,0.2-0.1,0.4H5.1c0-0.1,0-0.3-0.1-0.4C5.2,7.6,11,2,18,2 M18,0
				C9.7,0,3,6.7,3,15c0,0,0,0.1,0,0.1c0,0,0,0,0,0c0.3,0-0.4,1.9,0,1.9h30c0.3,0-0.3-1.9,0-1.9c0,0,0,0,0,0c0,0,0-0.1,0-0.1
				C33,6.7,26.3,0,18,0L18,0z"/>
		</g>
	</g>
</g>
<g id="圆角矩形_973_1_" enable-background="new    ">
	<g id="圆角矩形_973">
		<g>
			<path fill-rule="evenodd" clip-rule="evenodd" fill="#888888" d="M5,19c-2.2,0-4,1.8-4,4h2c0-1.1,0.9-2,2-2c1.1,0,2,0.9,2,2h2
				C9,20.8,7.2,19,5,19z"/>
		</g>
	</g>
</g>
<g id="圆角矩形_973_拷贝_1_" enable-background="new    ">
	<g id="圆角矩形_973_拷贝">
		<g>
			<path fill-rule="evenodd" clip-rule="evenodd" fill="#888888" d="M11,19c-2.2,0-4,1.8-4,4h2c0-1.1,0.9-2,2-2c1.1,0,2,0.9,2,2h2
				C15,20.8,13.2,19,11,19z"/>
		</g>
	</g>
</g>
<g id="圆角矩形_973_拷贝_2_1_" enable-background="new    ">
	<g id="圆角矩形_973_拷贝_2">
		<g>
			<path fill-rule="evenodd" clip-rule="evenodd" fill="#888888" d="M18,19c-2.2,0-4,1.8-4,4h2c0-1.1,0.9-2,2-2c1.1,0,2,0.9,2,2h2
				C22,20.8,20.2,19,18,19z"/>
		</g>
	</g>
</g>
<g id="圆角矩形_973_拷贝_3_1_" enable-background="new    ">
	<g id="圆角矩形_973_拷贝_3">
		<g>
			<path fill-rule="evenodd" clip-rule="evenodd" fill="#888888" d="M25,19c-2.2,0-4,1.8-4,4h2c0-1.1,0.9-2,2-2c1.1,0,2,0.9,2,2h2
				C29,20.8,27.2,19,25,19z"/>
		</g>
	</g>
</g>
<g id="圆角矩形_973_拷贝_4_1_" enable-background="new    ">
	<g id="圆角矩形_973_拷贝_4">
		<g>
			<path fill-rule="evenodd" clip-rule="evenodd" fill="#888888" d="M31,19c-2.2,0-4,1.8-4,4h2c0-1.1,0.9-2,2-2c1.1,0,2,0.9,2,2h2
				C35,20.8,33.2,19,31,19z"/>
		</g>
	</g>
</g>
<g id="圆角矩形_977_1_" enable-background="new    ">
	<g id="圆角矩形_977">
		<g>
			<path fill-rule="evenodd" clip-rule="evenodd" fill="#888888" d="M10.7,10h-1C9.3,10,9,10.3,9,10.8c0,0.4,0.3,0.7,0.8,0.7h1
				c0.4,0,0.8-0.3,0.8-0.7C11.5,10.3,11.2,10,10.7,10z"/>
		</g>
	</g>
</g>
<g id="圆角矩形_977_拷贝_1_" enable-background="new    ">
	<g id="圆角矩形_977_拷贝">
		<g>
			<path fill-rule="evenodd" clip-rule="evenodd" fill="#888888" d="M18.7,10h-1c-0.4,0-0.8,0.3-0.8,0.8c0,0.4,0.3,0.7,0.8,0.7h1
				c0.4,0,0.8-0.3,0.8-0.7C19.5,10.3,19.2,10,18.7,10z"/>
		</g>
	</g>
</g>
<g id="圆角矩形_977_拷贝_2_1_" enable-background="new    ">
	<g id="圆角矩形_977_拷贝_2">
		<g>
			<path fill-rule="evenodd" clip-rule="evenodd" fill="#888888" d="M25.8,10h-1c-0.4,0-0.8,0.3-0.8,0.8c0,0.4,0.3,0.7,0.8,0.7h1
				c0.4,0,0.8-0.3,0.8-0.7C26.5,10.3,26.2,10,25.8,10z"/>
		</g>
	</g>
</g>
<g id="圆角矩形_977_拷贝_3_1_" enable-background="new    ">
	<g id="圆角矩形_977_拷贝_3">
		<g>
			<path fill-rule="evenodd" clip-rule="evenodd" fill="#888888" d="M22.7,6h-1C21.3,6,21,6.3,21,6.8c0,0.4,0.3,0.7,0.8,0.7h1
				c0.4,0,0.8-0.3,0.8-0.7C23.5,6.3,23.2,6,22.7,6z"/>
		</g>
	</g>
</g>
<g id="圆角矩形_977_拷贝_4_1_" enable-background="new    ">
	<g id="圆角矩形_977_拷贝_4">
		<g>
			<path fill-rule="evenodd" clip-rule="evenodd" fill="#888888" d="M14.7,6h-1C13.3,6,13,6.3,13,6.8c0,0.4,0.3,0.7,0.8,0.7h1
				c0.4,0,0.8-0.3,0.8-0.7C15.5,6.3,15.2,6,14.7,6z"/>
		</g>
	</g>
</g>
</svg>
