<?xml version="1.0" encoding="utf-8"?>
<!-- Generator: Adobe Illustrator 18.1.1, SVG Export Plug-In . SVG Version: 6.00 Build 0)  -->
<svg version="1.1" xmlns="http://www.w3.org/2000/svg" xmlns:xlink="http://www.w3.org/1999/xlink" x="0px" y="0px"
	 viewBox="0 0 36 36" enable-background="new 0 0 36 36" xml:space="preserve">
<g id="矩形_1155_1_" enable-background="new    ">
	<g id="矩形_1155">
		<g>
			<path fill-rule="evenodd" clip-rule="evenodd" fill="#5435BF" d="M34,14L18,8L2,14c-1.1,0-2,0.9-2,2v6c0,1.1,0.9,2,2,2h6v-2H4
				c-1.1,0-2-0.9-2-2v-2c0-1.1,0.9-2,2-2l14-5l14,5c1.1,0,2,0.9,2,2v2c0,1.1-0.9,2-2,2h-4v2h6c1.1,0,2-0.9,2-2v-6
				C36,14.9,35.1,14,34,14z"/>
		</g>
	</g>
</g>
<g id="矩形_1152_1_" enable-background="new    ">
	<g id="矩形_1152">
		<g>
			<path fill="#5435BF" d="M25.5,20.5v13h-15v-13H25.5 M28,18H8v18h20V18L28,18z"/>
		</g>
	</g>
</g>
<g id="矩形_1150_拷贝_1_" enable-background="new    ">
	<g id="矩形_1150_拷贝">
		<g>
			<path fill-rule="evenodd" clip-rule="evenodd" fill="#5435BF" d="M23,0h-2c-2.2,0-4,1.8-4,4v7h2V5c0-1.7,1.3-3,3-3s3,1.3,3,3v1h2
				V4C27,1.8,25.2,0,23,0z"/>
		</g>
	</g>
</g>
</svg>
