<?xml version="1.0" encoding="utf-8"?>
<!-- Generator: Adobe Illustrator 18.1.1, SVG Export Plug-In . SVG Version: 6.00 Build 0)  -->
<svg version="1.1" xmlns="http://www.w3.org/2000/svg" xmlns:xlink="http://www.w3.org/1999/xlink" x="0px" y="0px"
	 viewBox="0 0 36 33" enable-background="new 0 0 36 33" xml:space="preserve">
<g id="圆角矩形_1068_1_" enable-background="new    ">
	<g id="圆角矩形_1068">
		<g>
			<path fill="#D37200" d="M32.5,27.5c1.1,0,2,0.9,2,2s-0.9,2-2,2h-29c-1.1,0-2-0.9-2-2s0.9-2,2-2H32.5 M32.5,26h-29
				C1.6,26,0,27.6,0,29.5S1.6,33,3.5,33h29c1.9,0,3.5-1.6,3.5-3.5S34.4,26,32.5,26L32.5,26z"/>
		</g>
	</g>
</g>
<g id="圆角矩形_1068_拷贝_1_" enable-background="new    ">
	<g id="圆角矩形_1068_拷贝">
		<g>
			<path fill="#D37200" d="M29.5,1.5c1.1,0,2,0.9,2,2L31.3,26H4.5V3.5c0-1.1,0.9-2,2-2H29.5 M29.5,0h-23C4.6,0,3,1.6,3,3.5v24h29.8
				l0.2-24C33,1.6,31.4,0,29.5,0L29.5,0z"/>
		</g>
	</g>
</g>
<g id="矩形_1070_1_" enable-background="new    ">
	<g id="矩形_1070">
		<g>
			<rect x="4" y="20" fill-rule="evenodd" clip-rule="evenodd" fill="#D37200" width="28" height="1.5"/>
		</g>
	</g>
</g>
</svg>
