<?xml version="1.0" encoding="utf-8"?>
<!-- Generator: Adobe Illustrator 18.1.1, SVG Export Plug-In . SVG Version: 6.00 Build 0)  -->
<svg version="1.1" xmlns="http://www.w3.org/2000/svg" xmlns:xlink="http://www.w3.org/1999/xlink" x="0px" y="0px"
	 viewBox="0 0 34 33" enable-background="new 0 0 34 33" xml:space="preserve">
<g id="多边形_1032_1_" enable-background="new    ">
	<g id="多边形_1032">
		<g>
			<path fill="#1A956B" d="M27.9,17.7l3.9,6.8l-3.9,6.8h-7.8l-3.9-6.8l3.9-6.8H27.9 M29,15.7H18.9l-5.1,8.8l5.1,8.8H29l5.1-8.8
				L29,15.7L29,15.7z"/>
		</g>
	</g>
</g>
<g id="多边形_1032_拷贝_1_" enable-background="new    ">
	<g id="多边形_1032_拷贝">
		<g>
			<path fill="#1A956B" d="M13.9,10.7l3.9,6.8l-3.9,6.8H6.1l-3.9-6.8l3.9-6.8H13.9 M15,8.7H4.9l-5.1,8.8l5.1,8.8H15l5.1-8.8L15,8.7
				L15,8.7z"/>
		</g>
	</g>
</g>
<g id="多边形_1032_拷贝_2_1_" enable-background="new    ">
	<g id="多边形_1032_拷贝_2">
		<g>
			<path fill="#1A956B" d="M26.9,2.7l3.9,6.8l-3.9,6.8h-7.8l-3.9-6.8l3.9-6.8H26.9 M28,0.7H17.9l-5.1,8.8l5.1,8.8H28l5.1-8.8L28,0.7
				L28,0.7z"/>
		</g>
	</g>
</g>
</svg>
