<?xml version="1.0" encoding="utf-8"?>
<!-- Generator: Adobe Illustrator 18.1.1, SVG Export Plug-In . SVG Version: 6.00 Build 0)  -->
<svg version="1.1" xmlns="http://www.w3.org/2000/svg" xmlns:xlink="http://www.w3.org/1999/xlink" x="0px" y="0px"
	 viewBox="0 0 42 57" enable-background="new 0 0 42 57" xml:space="preserve">
<g id="圆角矩形_21_1_" enable-background="new    ">
	<g id="圆角矩形_21">
		<g>
			<path fill="#02B5B9" d="M21.1,2.9l17.7,10.3l0.6,0.3h0.2v41h-37v-41h0.2l0.6-0.3L21.1,2.9 M21.1,0L2,11c-1.1,0-2,0.9-2,2v42
				c0,1.1,0.9,2,2,2h38c1.1,0,2-0.9,2-2V13c0-1.1-0.9-2-2-2L21.1,0L21.1,0z"/>
		</g>
	</g>
</g>
<g id="椭圆_14_1_" enable-background="new    ">
	<g id="椭圆_14">
		<g>
			<path fill="#02B5B9" d="M21,10.5c1.4,0,2.5,1.1,2.5,2.5c0,1.4-1.1,2.5-2.5,2.5c-1.4,0-2.5-1.1-2.5-2.5
				C18.5,11.6,19.6,10.5,21,10.5 M21,9c-2.2,0-4,1.8-4,4c0,2.2,1.8,4,4,4c2.2,0,4-1.8,4-4C25,10.8,23.2,9,21,9L21,9z"/>
		</g>
	</g>
</g>
</svg>
