<?xml version="1.0" encoding="utf-8"?>
<!-- Generator: Adobe Illustrator 18.1.1, SVG Export Plug-In . SVG Version: 6.00 Build 0)  -->
<svg version="1.1" xmlns="http://www.w3.org/2000/svg" xmlns:xlink="http://www.w3.org/1999/xlink" x="0px" y="0px"
	 viewBox="0 0 28 35" enable-background="new 0 0 28 35" xml:space="preserve">
<g id="椭圆_1042_1_" enable-background="new    ">
	<g id="椭圆_1042">
		<g>
			<path fill="#1A956B" d="M12.5,12C18.3,12,23,16.7,23,22.5S18.3,33,12.5,33S2,28.3,2,22.5S6.7,12,12.5,12 M12.5,10
				C5.6,10,0,15.6,0,22.5S5.6,35,12.5,35S25,29.4,25,22.5S19.4,10,12.5,10L12.5,10z"/>
		</g>
	</g>
</g>
<g id="矩形_1044_3_" enable-background="new    ">
	<g id="矩形_1044">
		<g>
			<polygon fill-rule="evenodd" clip-rule="evenodd" fill="#1A956B" points="7,0 7,12 9,12 9,2 17,2 17,12 19,12 19,0 			"/>
		</g>
	</g>
</g>
<g id="矩形_1044_2_" enable-background="new    ">
	<g id="矩形_1044_1_">
		<g>
			<rect x="2" y="24" fill-rule="evenodd" clip-rule="evenodd" fill="#1A956B" width="22" height="2"/>
		</g>
	</g>
</g>
<g id="圆角矩形_1045_1_" enable-background="new    ">
	<g id="圆角矩形_1045">
		<g>
			<path fill-rule="evenodd" clip-rule="evenodd" fill="#1A956B" d="M27.5,12.5c-0.4-0.4-1-0.4-1.4,0l-3.7,3.7c-0.4,0.4-0.4,1,0,1.4
				c0.4,0.4,1,0.4,1.4,0l3.7-3.7C27.9,13.5,27.9,12.9,27.5,12.5z"/>
		</g>
	</g>
</g>
</svg>
