<?xml version="1.0" encoding="utf-8"?>
<!-- Generator: Adobe Illustrator 18.1.1, SVG Export Plug-In . SVG Version: 6.00 Build 0)  -->
<svg version="1.1" xmlns="http://www.w3.org/2000/svg" xmlns:xlink="http://www.w3.org/1999/xlink" x="0px" y="0px"
	 viewBox="0 0 36 31" enable-background="new 0 0 36 31" xml:space="preserve">
<g id="椭圆_773_拷贝_3_1_" enable-background="new    ">
	<g id="椭圆_773_拷贝_3">
		<g>
			<path fill="#0390E8" d="M26.5,4c2.7,0,3.7,1,4.2,1.8c1.5,2.2,1.2,6.2,0.6,7.8c-0.8,1.8-7.4,8.2-13,13c-0.1,0.1-0.2,0.1-0.2,0.2
				c-0.1-0.1-0.1-0.1-0.2-0.2c-5.7-5-12.3-11.5-13.2-13.3C4,12,3.6,8.3,5,6.1c0.5-0.8,1.6-2,4.5-2.1c2.1,0,3.9,1.2,4.9,3.1
				c0.7,1.4,2.1,2.2,3.6,2.2c1.5,0,2.9-0.9,3.6-2.2C22.5,5.2,24.4,4,26.5,4 M26.5,0c-3.7,0-6.9,2.2-8.5,5.3C16.4,2.2,13.2,0,9.5,0
				C-1.4,0.3-0.6,11.5,1,15c1.6,3.5,14.2,14.6,14.2,14.6c0.8,0.8,1.8,1.2,2.8,1.2c1,0,2-0.4,2.8-1.2c0,0,12.8-10.9,14.2-14.6
				C36.4,11.3,36.9,0.1,26.5,0L26.5,0z"/>
		</g>
	</g>
</g>
<g id="圆角矩形_776_拷贝_2_1_" enable-background="new    ">
	<g id="圆角矩形_776_拷贝_2">
		<g>
			<path fill-rule="evenodd" clip-rule="evenodd" fill="#0390E8" d="M25.5,13.5c-0.8-0.8-2-0.8-2.8,0l-4.2,4.2c-0.8,0.8-0.8,2,0,2.8
				c0.8,0.8,2,0.8,2.8,0l4.2-4.2C26.3,15.5,26.3,14.2,25.5,13.5z"/>
		</g>
	</g>
</g>
</svg>
