<?xml version="1.0" encoding="utf-8"?>
<!-- Generator: Adobe Illustrator 18.1.1, SVG Export Plug-In . SVG Version: 6.00 Build 0)  -->
<svg version="1.1" xmlns="http://www.w3.org/2000/svg" xmlns:xlink="http://www.w3.org/1999/xlink" x="0px" y="0px"
	 viewBox="0 0 36 36" enable-background="new 0 0 36 36" xml:space="preserve">
<g id="椭圆_765_1_" enable-background="new    ">
	<g id="椭圆_765">
		<g>
			<path fill="#0390E8" d="M18.5,4C21,4,23,6,23,8.5S21,13,18.5,13S14,11,14,8.5S16,4,18.5,4 M18.5,0C13.8,0,10,3.8,10,8.5
				c0,4.7,3.8,8.5,8.5,8.5c4.7,0,8.5-3.8,8.5-8.5C27,3.8,23.2,0,18.5,0L18.5,0z"/>
		</g>
	</g>
</g>
<g id="矩形_767_1_" enable-background="new    ">
	<g id="矩形_767">
		<g>
			<path fill="#0390E8" d="M28.4,23l2.8,9H4.6l2.1-9H28.4 M30,19H5c-1.1,0-2,0.9-2,2L0,34c0,1.1,0.9,2,2,2h32c1.1,0,2-0.9,2-2l-4-13
				C32,19.9,31.1,19,30,19L30,19z"/>
		</g>
	</g>
</g>
<g id="圆角矩形_768_1_" enable-background="new    ">
	<g id="圆角矩形_768">
		<g>
			<path fill-rule="evenodd" clip-rule="evenodd" fill="#0390E8" d="M20,25h-4c-1.1,0-2,0.9-2,2v0.5c0,1.1,0.9,2,2,2h4
				c1.1,0,2-0.9,2-2V27C22,25.9,21.1,25,20,25z"/>
		</g>
	</g>
</g>
</svg>
