<?xml version="1.0" encoding="utf-8"?>
<!-- Generator: Adobe Illustrator 18.1.1, SVG Export Plug-In . SVG Version: 6.00 Build 0)  -->
<svg version="1.1" xmlns="http://www.w3.org/2000/svg" xmlns:xlink="http://www.w3.org/1999/xlink" x="0px" y="0px"
	 viewBox="0 0 52 59" enable-background="new 0 0 52 59" xml:space="preserve">
<g id="椭圆_7_1_" enable-background="new    ">
	<g id="椭圆_7">
		<g>
			<path fill="#02B5B9" d="M26.5,2.5c9.4,0,17,7.6,17,17s-7.6,17-17,17c-9.4,0-17-7.6-17-17S17.1,2.5,26.5,2.5 M26.5,0
				C15.7,0,7,8.7,7,19.5C7,30.3,15.7,39,26.5,39S46,30.3,46,19.5C46,8.7,37.3,0,26.5,0L26.5,0z"/>
		</g>
	</g>
</g>
<g id="椭圆_7_拷贝_1_" enable-background="new    ">
	<g id="椭圆_7_拷贝">
		<g>
			<path fill="#02B5B9" d="M26.5,9.5c5.5,0,10,4.5,10,10s-4.5,10-10,10s-10-4.5-10-10S21,9.5,26.5,9.5 M26.5,7
				C19.6,7,14,12.6,14,19.5S19.6,32,26.5,32S39,26.4,39,19.5S33.4,7,26.5,7L26.5,7z"/>
		</g>
	</g>
</g>
<g id="矩形_41_拷贝_2_1_" enable-background="new    ">
	<g id="矩形_41_拷贝_2">
		<g>
			<polygon fill-rule="evenodd" clip-rule="evenodd" fill="#02B5B9" points="25.7,38.2 16.3,53.6 12.3,47.6 4.4,46.3 13.7,31 
				12,29.9 0.6,48.7 10.8,50.2 16,58.1 27.4,39.3 			"/>
		</g>
	</g>
</g>
<g id="矩形_41_拷贝_3_1_" enable-background="new    ">
	<g id="矩形_41_拷贝_3">
		<g>
			<polygon fill-rule="evenodd" clip-rule="evenodd" fill="#02B5B9" points="40.5,30 38.8,31 48.2,46.3 40.2,47.5 36.1,53.6 
				26.7,38.3 25,39.3 36.5,58 41.7,50.2 52,48.7 			"/>
		</g>
	</g>
</g>
</svg>
