<?xml version="1.0" encoding="utf-8"?>
<!-- Generator: Adobe Illustrator 18.1.1, SVG Export Plug-In . SVG Version: 6.00 Build 0)  -->
<svg version="1.1" id="圆角矩形_825_1_" xmlns="http://www.w3.org/2000/svg" xmlns:xlink="http://www.w3.org/1999/xlink"
	 x="0px" y="0px" viewBox="0 0 36 36" enable-background="new 0 0 36 36" xml:space="preserve">
<g id="圆角矩形_825">
	<g>
		<path fill-rule="evenodd" clip-rule="evenodd" fill="#5435BF" d="M18,0C8.1,0,0,8.1,0,18c0,9.9,8.1,18,18,18c9.9,0,18-8.1,18-18
			c0-4.8,0-18,0-18S23.1,0,18,0z M14,12c1.1,0,2,0.9,2,2c0,1.1-0.9,2-2,2c-1.1,0-2-0.9-2-2C12,12.9,12.9,12,14,12z M24,22
			c0,3.3-2.7,6-6,6s-6-2.7-6-6v-3h12V22z M22,16c-1.1,0-2-0.9-2-2c0-1.1,0.9-2,2-2s2,0.9,2,2C24,15.1,23.1,16,22,16z"/>
	</g>
</g>
</svg>
