<?xml version="1.0" encoding="utf-8"?>
<!-- Generator: Adobe Illustrator 18.1.1, SVG Export Plug-In . SVG Version: 6.00 Build 0)  -->
<svg version="1.1" xmlns="http://www.w3.org/2000/svg" xmlns:xlink="http://www.w3.org/1999/xlink" x="0px" y="0px"
	 viewBox="0 0 46 55" enable-background="new 0 0 46 55" xml:space="preserve">
<g id="椭圆_8_1_" enable-background="new    ">
	<g id="椭圆_8">
		<g>
			<ellipse fill-rule="evenodd" clip-rule="evenodd" fill="#02B5B9" cx="16" cy="47.5" rx="3" ry="2.5"/>
		</g>
	</g>
</g>
<g id="椭圆_9_1_" enable-background="new    ">
	<g id="椭圆_9">
		<g>
			<path fill-rule="evenodd" clip-rule="evenodd" fill="#02B5B9" d="M30.5,27c-0.2,0-0.3,0-0.5,0v26H2V8h12.2c0.3-0.7,0.7-1.4,1.2-2
				H2C0.9,6,0,6.9,0,8v45c0,1.1,0.9,2,2,2h28c1.1,0,2-0.9,2-2V26.9C31.5,27,31,27,30.5,27z"/>
		</g>
	</g>
</g>
<g id="椭圆_9_拷贝_2_1_" enable-background="new    ">
	<g id="椭圆_9_拷贝_2">
		<g>
			<path fill-rule="evenodd" clip-rule="evenodd" fill="#02B5B9" d="M26,29.3V41H6V15h7.2c-0.1-0.7-0.2-1.3-0.2-2H6
				c-1.1,0-2,0.9-2,2v26c0,1.1,0.9,2,2,2h20c1.1,0,2-0.9,2-2V27C27.3,27.4,27.1,28.3,26,29.3z"/>
		</g>
	</g>
</g>
<g id="椭圆_9_拷贝_1_" enable-background="new    ">
	<g id="椭圆_9_拷贝">
		<g>
			<path fill="#02B5B9" d="M29.5,2.7c7.6,0,13.8,4.9,13.8,10.9s-6.2,10.9-13.8,10.9c-0.5,0-1,0-1.5-0.1c-0.1,0-0.2,0-0.4,0
				c-2,0-2.9,1.4-3.4,2.1c-0.2,0.3-0.4,0.6-0.8,0.9c0.1-0.4,0.1-0.8,0.1-1.1c0-1.6-0.7-3-2-3.7c-3.7-2-6-5.4-6-8.9
				C15.7,7.6,21.9,2.7,29.5,2.7 M29.5,0.2c-9,0-16.3,6-16.3,13.4c0,4.6,2.9,8.7,7.3,11.1c1.2,0.6,1.5,3.6-3.5,6.1
				c0.7,0,1.3,0.1,1.8,0.1c8.3,0,6.9-4,8.9-4c0,0,0.1,0,0.1,0c0.6,0,1.1,0.1,1.7,0.1c9,0,16.3-6,16.3-13.4
				C45.8,6.2,38.5,0.2,29.5,0.2L29.5,0.2z"/>
		</g>
	</g>
</g>
<g id="S_拷贝_5_1_" enable-background="new    ">
	<g id="S_拷贝_5">
		<g>
			<path fill-rule="evenodd" clip-rule="evenodd" fill="#02B5B9" d="M34.3,14.6c-0.5-0.5-1.4-1.1-2.8-1.8c-1.4-0.7-2.3-1.2-2.7-1.6
				c-0.4-0.4-0.6-0.9-0.6-1.6c0-0.7,0.3-1.3,0.9-1.7c0.6-0.4,1.4-0.7,2.4-0.7c1,0,2,0.9,2.8,1.3V7.5c-0.9-0.3-1.8-1.1-2.7-1.1
				c-1.4,0-2.5,0.3-3.3,1c-0.8,0.6-1.2,1.4-1.2,2.3c0,0.7,0.2,1.3,0.6,1.8c0.4,0.5,1.4,1.2,2.9,1.9c1.4,0.7,2.3,1.2,2.7,1.6
				c0.4,0.4,0.6,0.9,0.6,1.6c0,0.8-0.3,1.3-0.9,1.8c-0.6,0.4-1.5,0.6-2.7,0.6c-1.1,0-2.2-1-3.3-1.6v1c0.4,0.2,0.9,1.1,1.6,1.2
				c0.7,0.1,1.3,0.2,1.8,0.2c1.5,0,2.6-0.3,3.4-0.9c0.8-0.6,1.2-1.4,1.2-2.4C35,15.8,34.8,15.1,34.3,14.6z"/>
		</g>
	</g>
</g>
<g id="矩形_30_拷贝_5_1_" enable-background="new    ">
	<g id="矩形_30_拷贝_5">
		<g>
			<rect x="30.2" y="4" fill-rule="evenodd" clip-rule="evenodd" fill="#02B5B9" width="1" height="18"/>
		</g>
	</g>
</g>
</svg>
