<?xml version="1.0" encoding="utf-8"?>
<!-- Generator: Adobe Illustrator 18.1.1, SVG Export Plug-In . SVG Version: 6.00 Build 0)  -->
<svg version="1.1" xmlns="http://www.w3.org/2000/svg" xmlns:xlink="http://www.w3.org/1999/xlink" x="0px" y="0px"
	 viewBox="0 0 36 36" enable-background="new 0 0 36 36" xml:space="preserve">
<g id="椭圆_777_1_" enable-background="new    ">
	<g id="椭圆_777">
		<g>
			<path fill="#0390E8" d="M18,4c7.7,0,14,6.3,14,14s-6.3,14-14,14S4,25.7,4,18S10.3,4,18,4 M18,0C8.1,0,0,8.1,0,18s8.1,18,18,18
				s18-8.1,18-18S27.9,0,18,0L18,0z"/>
		</g>
	</g>
</g>
<g id="椭圆_778_1_" enable-background="new    ">
	<g id="椭圆_778">
		<g>
			<circle fill-rule="evenodd" clip-rule="evenodd" fill="#0390E8" cx="18" cy="18" r="4"/>
		</g>
	</g>
</g>
<g id="圆角矩形_779_拷贝_2_1_" enable-background="new    ">
	<g id="圆角矩形_779_拷贝_2">
		<g>
			<path fill-rule="evenodd" clip-rule="evenodd" fill="#0390E8" d="M30.8,7.7c-0.8-0.8-2-0.8-2.8,0l-7.8,7.8c-0.8,0.8-0.8,2,0,2.8
				c0.8,0.8,2,0.8,2.8,0l7.8-7.8C31.6,9.7,31.6,8.5,30.8,7.7z"/>
		</g>
	</g>
</g>
</svg>
