<?xml version="1.0" encoding="utf-8"?>
<!-- Generator: Adobe Illustrator 18.1.1, SVG Export Plug-In . SVG Version: 6.00 Build 0)  -->
<svg version="1.1" xmlns="http://www.w3.org/2000/svg" xmlns:xlink="http://www.w3.org/1999/xlink" x="0px" y="0px"
	 viewBox="0 0 36 36" enable-background="new 0 0 36 36" xml:space="preserve">
<g id="圆角矩形_792_拷贝_1_" enable-background="new    ">
	<g id="圆角矩形_792_拷贝">
		<g>
			<path fill="#0390E8" d="M18,4c7.7,0,14,6.3,14,14c0,6.9-4.9,12.6-11.7,13.8L19.1,32H4V16.9l0.2-1.3C5.4,8.9,11.1,4,18,4 M18,0
				C9.1,0,1.7,6.5,0.3,15H0v19c0,1.1,0.9,2,2,2h19v-0.3c8.5-1.4,15-8.8,15-17.7C36,8.1,27.9,0,18,0L18,0z"/>
		</g>
	</g>
</g>
<g id="圆角矩形_794_1_" enable-background="new    ">
	<g id="圆角矩形_794">
		<g>
			<path fill-rule="evenodd" clip-rule="evenodd" fill="#0390E8" d="M15.3,13h-4.5c-1,0-1.8,0.8-1.8,1.8c0,1,0.8,1.8,1.8,1.8h4.5
				c1,0,1.8-0.8,1.8-1.8C17,13.8,16.2,13,15.3,13z"/>
		</g>
	</g>
</g>
<g id="圆角矩形_794_拷贝_1_" enable-background="new    ">
	<g id="圆角矩形_794_拷贝">
		<g>
			<path fill-rule="evenodd" clip-rule="evenodd" fill="#0390E8" d="M23.3,20H10.8c-1,0-1.8,0.8-1.8,1.8c0,1,0.8,1.8,1.8,1.8h12.5
				c1,0,1.8-0.8,1.8-1.8C25,20.8,24.2,20,23.3,20z"/>
		</g>
	</g>
</g>
</svg>
