<?xml version="1.0" encoding="utf-8"?>
<!-- Generator: Adobe Illustrator 18.1.1, SVG Export Plug-In . SVG Version: 6.00 Build 0)  -->
<svg version="1.1" xmlns="http://www.w3.org/2000/svg" xmlns:xlink="http://www.w3.org/1999/xlink" x="0px" y="0px"
	 viewBox="0 0 36 33" enable-background="new 0 0 36 33" xml:space="preserve">
<g id="矩形_1033_3_" enable-background="new    ">
	<g id="矩形_1033">
		<g>
			<path fill-rule="evenodd" clip-rule="evenodd" fill="#1A956B" d="M18,0C18,0,7.3,4.2,6,14h1.8C8.7,6,18,2.2,18,2.2
				S26.5,6.4,28.2,14H30C28.7,3.5,18,0,18,0z"/>
		</g>
	</g>
</g>
<g id="矩形_1033_2_" enable-background="new    ">
	<g id="矩形_1033_1_">
		<g>
			<path fill-rule="evenodd" clip-rule="evenodd" fill="#1A956B" d="M34,15c0,8.8-7.2,16-16,16S2,23.8,2,15H0c0,9.9,8.1,18,18,18
				c9.9,0,18-8.1,18-18H34z"/>
		</g>
	</g>
</g>
<g id="矩形_1034_1_" enable-background="new    ">
	<g id="矩形_1034">
		<g>
			<path fill-rule="evenodd" clip-rule="evenodd" fill="#1A956B" d="M2,13c-0.7,0-1.3,0-2,0.1v2C0.7,15.1,1.3,15,2,15
				c8.8,0,16,7.2,16,16h2C20,21.1,11.9,13,2,13z"/>
		</g>
	</g>
</g>
<g id="矩形_1035_1_" enable-background="new    ">
	<g id="矩形_1035">
		<g>
			<path fill-rule="evenodd" clip-rule="evenodd" fill="#1A956B" d="M34,13c-7.5,0-13.9,4.5-16.6,11l1.7,1.4
				C21.4,19.2,27.7,15,34,15c0.7,0,1.3,0.1,2,0.1v-2C35.3,13,34.7,13,34,13z"/>
		</g>
	</g>
</g>
</svg>
