<?xml version="1.0" encoding="utf-8"?>
<!-- Generator: Adobe Illustrator 18.1.1, SVG Export Plug-In . SVG Version: 6.00 Build 0)  -->
<svg version="1.1" xmlns="http://www.w3.org/2000/svg" xmlns:xlink="http://www.w3.org/1999/xlink" x="0px" y="0px"
	 viewBox="0 0 36 36" enable-background="new 0 0 36 36" xml:space="preserve">
<g id="圆角矩形_1155_1_" enable-background="new    ">
	<g id="圆角矩形_1155">
		<g>
			<path fill="#5435BF" d="M31.5,11.5c1.1,0,2,0.9,2,2s-0.9,2-2,2h-27c-1.1,0-2-0.9-2-2s0.9-2,2-2H31.5 M31.5,9h-27C2,9,0,11,0,13.5
				S2,18,4.5,18h27c2.5,0,4.5-2,4.5-4.5S34,9,31.5,9L31.5,9z"/>
		</g>
	</g>
</g>
<g id="矩形_1157_1_" enable-background="new    ">
	<g id="矩形_1157">
		<g>
			<path fill-rule="evenodd" clip-rule="evenodd" fill="#5435BF" d="M32.7,18h-2.1c0.2,1,0.4,2,0.4,3c0,7.2-5.8,13-13,13
				c-7.2,0-13-5.8-13-13c0-1,0.1-2,0.4-3H3.3C3.1,19,3,20,3,21c0,8.3,6.7,15,15,15c8.3,0,15-6.7,15-15C33,20,32.9,19,32.7,18z"/>
		</g>
	</g>
</g>
<g id="矩形_1150_拷贝_2_1_" enable-background="new    ">
	<g id="矩形_1150_拷贝_2">
		<g>
			<path fill-rule="evenodd" clip-rule="evenodd" fill="#5435BF" d="M19,0h-2c-2.2,0-4,1.8-4,4v7h2V6V5c0-1.7,1.3-3,3-3s3,1.3,3,3v1
				h2V4C23,1.8,21.2,0,19,0z"/>
		</g>
	</g>
</g>
<g id="圆角矩形_1158_1_" enable-background="new    ">
	<g id="圆角矩形_1158">
		<g>
			<path fill-rule="evenodd" clip-rule="evenodd" fill="#5435BF" d="M8.3,5C7.6,5,7,5.6,7,6.2v2.5C7,9.4,7.6,10,8.3,10
				s1.3-0.6,1.3-1.2V6.2C9.5,5.6,8.9,5,8.3,5z"/>
		</g>
	</g>
</g>
</svg>
