<?xml version="1.0" encoding="utf-8"?>
<!-- Generator: Adobe Illustrator 18.1.1, SVG Export Plug-In . SVG Version: 6.00 Build 0)  -->
<svg version="1.1" xmlns="http://www.w3.org/2000/svg" xmlns:xlink="http://www.w3.org/1999/xlink" x="0px" y="0px"
	 viewBox="0 0 36 36" enable-background="new 0 0 36 36" xml:space="preserve">
<g id="圆角矩形_1003_1_" enable-background="new    ">
	<g id="圆角矩形_1003">
		<g>
			<path fill="#888888" d="M32,13c1.1,0,2,0.9,2,2s-0.9,2-2,2H4c-1.1,0-2-0.9-2-2s0.9-2,2-2H32 M32,11H4c-2.2,0-4,1.8-4,4
				c0,2.2,1.8,4,4,4h28c2.2,0,4-1.8,4-4C36,12.8,34.2,11,32,11L32,11z"/>
		</g>
	</g>
</g>
<g id="圆角矩形_1003_拷贝_1_" enable-background="new    ">
	<g id="圆角矩形_1003_拷贝">
		<g>
			<path fill="#888888" d="M27.6,19L25,31.6l0,0.2V32c0,1.1-0.9,2-2,2H13c-1.1,0-2-0.9-2-2v-0.2l0-0.2L8.4,19H27.6 M30,17H6l3,15
				c0,2.2,1.8,4,4,4h10c2.2,0,4-1.8,4-4L30,17L30,17z"/>
		</g>
	</g>
</g>
<g id="形状_1005_1_" enable-background="new    ">
	<g id="形状_1005">
		<g>
			<path fill="#888888" d="M26.9,3.5c0.5,0.8,1,1.8,1.1,2.8L27.6,7l0.3,0.9C28,8.2,28,8.4,28,8.7c0,1.3-1,2.3-2.3,2.3H10.3
				C9,11,8,10,8,8.7c0-1.3,1-2.3,2.3-2.3h12h0l0,0C22.7,6.3,25,6.1,26.9,3.5 M26.6,0c-1.6,4.2-4.3,4.3-4.3,4.3h-12
				C7.9,4.3,6,6.3,6,8.7c0,2.4,1.9,4.3,4.3,4.3h15.4c2.4,0,4.3-1.9,4.3-4.3c0-0.5-0.1-0.9-0.2-1.4L30,6.9C30.2,3.1,26.6,0,26.6,0
				L26.6,0z"/>
		</g>
	</g>
</g>
<g id="矩形_1006_1_" enable-background="new    ">
	<g id="矩形_1006">
		<g>
			<rect x="8" y="23" fill-rule="evenodd" clip-rule="evenodd" fill="#888888" width="20" height="2"/>
		</g>
	</g>
</g>
<g id="矩形_1006_拷贝_1_" enable-background="new    ">
	<g id="矩形_1006_拷贝">
		<g>
			<rect x="10" y="31" fill-rule="evenodd" clip-rule="evenodd" fill="#888888" width="16" height="1.5"/>
		</g>
	</g>
</g>
</svg>
