<?xml version="1.0" encoding="utf-8"?>
<!-- Generator: Adobe Illustrator 18.1.1, SVG Export Plug-In . SVG Version: 6.00 Build 0)  -->
<svg version="1.1" xmlns="http://www.w3.org/2000/svg" xmlns:xlink="http://www.w3.org/1999/xlink" x="0px" y="0px"
	 viewBox="0 0 13 12" enable-background="new 0 0 13 12" xml:space="preserve">
<g id="矩形_3_1_" enable-background="new    ">
	<g id="矩形_3">
		<g>
			<polygon fill="#6C6C6C" points="13,0 0,0 0,1 13,1 13,0 			"/>
		</g>
	</g>
</g>
<g id="矩形_3_拷贝_1_" enable-background="new    ">
	<g id="矩形_3_拷贝">
		<g>
			<polygon fill="#6C6C6C" points="3,1 2,1 2,4 3,4 3,1 			"/>
		</g>
	</g>
</g>
<g id="矩形_3_拷贝_2_1_" enable-background="new    ">
	<g id="矩形_3_拷贝_2">
		<g>
			<polygon fill="#6C6C6C" points="7,1 6,1 6,4 7,4 7,1 			"/>
		</g>
	</g>
</g>
<g id="矩形_3_拷贝_3_1_" enable-background="new    ">
	<g id="矩形_3_拷贝_3">
		<g>
			<polygon fill="#6C6C6C" points="11,1 10,1 10,4 11,4 11,1 			"/>
		</g>
	</g>
</g>
<g id="矩形_5_1_" enable-background="new    ">
	<g id="矩形_5">
		<g>
			<path fill-rule="evenodd" clip-rule="evenodd" fill="#6C6C6C" d="M6.5,7C4,7,2,9,2,11.5c0,0.2,0,0.3,0.1,0.5h1
				C3,11.8,3,11.7,3,11.5C3,9.6,4.6,8,6.5,8S10,9.6,10,11.5c0,0.2,0,0.3-0.1,0.5h1c0-0.2,0.1-0.3,0.1-0.5C11,9,9,7,6.5,7z"/>
		</g>
	</g>
</g>
<g id="矩形_6_1_" enable-background="new    ">
	<g id="矩形_6">
		<g>
			<polygon fill="#6C6C6C" points="13,4 0,4 0,12 3,12 3,11 1,11 1,5 12,5 12,11 10,11 10,12 13,12 13,4 			"/>
		</g>
	</g>
</g>
</svg>
