<?xml version="1.0" encoding="utf-8"?>
<!-- Generator: Adobe Illustrator 18.1.1, SVG Export Plug-In . SVG Version: 6.00 Build 0)  -->
<svg version="1.1" xmlns="http://www.w3.org/2000/svg" xmlns:xlink="http://www.w3.org/1999/xlink" x="0px" y="0px"
	 viewBox="0 0 20 20" enable-background="new 0 0 20 20" xml:space="preserve">
<g id="矩形_7_1_" enable-background="new    ">
	<g id="矩形_7">
		<g>
			<path fill-rule="evenodd" clip-rule="evenodd" d="M17,0H3C1.3,0,0,1.3,0,3v14c0,1.7,1.3,3,3,3h14c1.7,0,3-1.3,3-3V3
				C20,1.3,18.7,0,17,0z M18,18H2V2h16V18z"/>
		</g>
	</g>
</g>
<g id="矩形_6_拷贝_1_" enable-background="new    ">
	<g id="矩形_6_拷贝">
		<g>
			<polygon fill-rule="evenodd" clip-rule="evenodd" fill="#6C6C6C" points="4,11 4,12 8,12 8,16 9,16 9,11 			"/>
		</g>
	</g>
</g>
<g id="矩形_6_拷贝_3_1_" enable-background="new    ">
	<g id="矩形_6_拷贝_3">
		<g>
			<polygon fill-rule="evenodd" clip-rule="evenodd" fill="#6C6C6C" points="12,8 12,4 11,4 11,9 16,9 16,8 			"/>
		</g>
	</g>
</g>
<g id="矩形_6_1_" enable-background="new    ">
	<g id="矩形_6">
		<g>
			<polygon fill="#6C6C6C" points="16.9,2.4 11.4,7.9 12.1,8.6 17.6,3.1 16.9,2.4 			"/>
		</g>
	</g>
</g>
<g id="矩形_6_拷贝_2_1_" enable-background="new    ">
	<g id="矩形_6_拷贝_2">
		<g>
			<polygon fill="#6C6C6C" points="7.9,11.4 2.4,16.9 3.1,17.6 8.6,12.1 7.9,11.4 			"/>
		</g>
	</g>
</g>
</svg>
