<?xml version="1.0" encoding="utf-8"?>
<!-- Generator: Adobe Illustrator 18.1.1, SVG Export Plug-In . SVG Version: 6.00 Build 0)  -->
<svg version="1.1" xmlns="http://www.w3.org/2000/svg" xmlns:xlink="http://www.w3.org/1999/xlink" x="0px" y="0px"
	 viewBox="0 0 36 35" enable-background="new 0 0 36 35" xml:space="preserve">
<g id="椭圆_945_拷贝_2_1_" enable-background="new    ">
	<g id="椭圆_945_拷贝_2">
		<g>
			<path fill="#4F6CA5" d="M18,9c5.5,0,10,4.5,10,10c0,0.7-0.1,1.4-0.2,2.2l-0.3,1.2l0.9,0.8c1,0.9,1.6,2.1,1.6,3.4
				c0,2.5-2,4.5-4.5,4.5c-0.7,0-1.4-0.2-2.1-0.5l-1.8-1l-0.9,1.9c-0.5,1-1.5,1.7-2.7,1.7c-1.1,0-2.2-0.6-2.7-1.7l-0.9-1.9l-1.8,1
				c-0.7,0.4-1.4,0.5-2.1,0.5C8,31,6,29,6,26.5c0-1.3,0.6-2.5,1.6-3.4l0.9-0.8l-0.3-1.2C8.1,20.4,8,19.7,8,19C8,13.5,12.5,9,18,9
				 M18,7C11.4,7,6,12.4,6,19c0,0.9,0.1,1.8,0.3,2.6C4.9,22.8,4,24.5,4,26.5c0,3.6,2.9,6.5,6.5,6.5c1.1,0,2.1-0.3,3-0.8
				C14.4,33.9,16,35,18,35c2,0,3.6-1.1,4.5-2.8c0.9,0.5,1.9,0.8,3,0.8c3.6,0,6.5-2.9,6.5-6.5c0-2-0.9-3.7-2.3-4.9
				c0.2-0.8,0.3-1.7,0.3-2.6C30,12.4,24.6,7,18,7L18,7z"/>
		</g>
	</g>
</g>
<g id="圆角矩形_945_1_" enable-background="new    ">
	<g id="圆角矩形_945">
		<g>
			<path fill-rule="evenodd" clip-rule="evenodd" fill="#4F6CA5" d="M21,25c0,0-1.6,1-3.2,1c-1.4,0-2.8-1-2.8-1c-0.6,0-1,0.4-1,1
				c0,0.6,0.4,1,1,1c0,0,1.4,1,2.8,1c1.6,0,3.2-1,3.2-1c0.6,0,1-0.4,1-1C22,25.4,21.6,25,21,25z"/>
		</g>
	</g>
</g>
<g id="圆角矩形_946_1_" enable-background="new    ">
	<g id="圆角矩形_946">
		<g>
			<path fill-rule="evenodd" clip-rule="evenodd" fill="#4F6CA5" d="M18,22c-0.6,0-1,0.4-1,1v3c0,0.6,0.4,1,1,1s1-0.4,1-1v-3
				C19,22.4,18.6,22,18,22z"/>
		</g>
	</g>
</g>
<g id="椭圆_947_1_" enable-background="new    ">
	<g id="椭圆_947">
		<g>
			<circle fill-rule="evenodd" clip-rule="evenodd" fill="#4F6CA5" cx="12.5" cy="19.5" r="1.5"/>
		</g>
	</g>
</g>
<g id="椭圆_947_拷贝_1_" enable-background="new    ">
	<g id="椭圆_947_拷贝">
		<g>
			<circle fill-rule="evenodd" clip-rule="evenodd" fill="#4F6CA5" cx="23.5" cy="19.5" r="1.5"/>
		</g>
	</g>
</g>
<g id="形状_949_1_" enable-background="new    ">
	<g id="形状_949">
		<g>
			<path fill="#4F6CA5" d="M2.8,2.2c0.4,0,1.2,0.6,1.6,1l0.1,0.1c1,1.3,3.3,4.5,4.7,6.3L8.8,9.9c-2.4-2-5.4-4.4-6.2-5.3
				c-0.9-1.3-0.3-2.1,0-2.3C2.7,2.2,2.7,2.2,2.8,2.2 M2.8,0.2C2.2,0.2,1.6,0.4,1,1c-2.2,2.5,0,5,0,5c1.2,1.2,7.9,6.6,7.9,6.6
				l2.8-2.8c0,0-4.2-5.9-5.7-7.8C6,1.9,4.4,0.2,2.8,0.2L2.8,0.2z"/>
		</g>
	</g>
</g>
<g id="形状_949_拷贝_2_1_" enable-background="new    ">
	<g id="形状_949_拷贝_2">
		<g>
			<path fill="#4F6CA5" d="M33.2,2c0.1,0,0.2,0,0.4,0.2c0.3,0.3,0.9,0.9,0,2.1c-0.9,0.8-4,3.2-6.5,5.1l-0.3-0.3
				c1.4-1.8,3.6-4.8,4.7-6L31.5,3C31.9,2.6,32.7,2,33.2,2 M33.2,0c-1.7,0-3.3,1.7-3.3,1.8C28.3,3.6,24,9.3,24,9.3l2.9,2.7
				c0,0,6.9-5.2,8.1-6.4c0,0,2.3-2.4,0-4.8C34.4,0.2,33.8,0,33.2,0L33.2,0z"/>
		</g>
	</g>
</g>
</svg>
