<?xml version="1.0" encoding="utf-8"?>
<!-- Generator: Adobe Illustrator 18.1.1, SVG Export Plug-In . SVG Version: 6.00 Build 0)  -->
<svg version="1.1" xmlns="http://www.w3.org/2000/svg" xmlns:xlink="http://www.w3.org/1999/xlink" x="0px" y="0px"
	 viewBox="0 0 55 55" enable-background="new 0 0 55 55" xml:space="preserve">
<g id="矩形_14_1_" enable-background="new    ">
	<g id="矩形_14">
		<g>
			<rect y="0" fill-rule="evenodd" clip-rule="evenodd" fill="#02B5B9" width="2.5" height="54"/>
		</g>
	</g>
</g>
<g id="矩形_15_1_" enable-background="new    ">
	<g id="矩形_15">
		<g>
			<rect x="1" y="52" fill-rule="evenodd" clip-rule="evenodd" fill="#02B5B9" width="54" height="2.5"/>
		</g>
	</g>
</g>
<g id="圆角矩形_6_1_" enable-background="new    ">
	<g id="圆角矩形_6">
		<g>
			<path fill="#02B5B9" d="M18.5,33.5v11h-7v-11H18.5 M19,31h-8c-1.1,0-2,0.9-2,2v12c0,1.1,0.9,2,2,2h8c1.1,0,2-0.9,2-2V33
				C21,31.9,20.1,31,19,31L19,31z"/>
		</g>
	</g>
</g>
<g id="圆角矩形_7_1_" enable-background="new    ">
	<g id="圆角矩形_7">
		<g>
			<path fill="#02B5B9" d="M35.5,18.5v26h-7v-26H35.5 M36,16h-8c-1.1,0-2,0.9-2,2v27c0,1.1,0.9,2,2,2h8c1.1,0,2-0.9,2-2V18
				C38,16.9,37.1,16,36,16L36,16z"/>
		</g>
	</g>
</g>
<g id="圆角矩形_7_拷贝_1_" enable-background="new    ">
	<g id="圆角矩形_7_拷贝">
		<g>
			<path fill="#02B5B9" d="M52.5,2.5v42h-7v-42H52.5 M53,0h-8c-1.1,0-2,0.9-2,2v43c0,1.1,0.9,2,2,2h8c1.1,0,2-0.9,2-2V2
				C55,0.9,54.1,0,53,0L53,0z"/>
		</g>
	</g>
</g>
</svg>
