<?xml version="1.0" encoding="utf-8"?>
<!-- Generator: Adobe Illustrator 18.1.1, SVG Export Plug-In . SVG Version: 6.00 Build 0)  -->
<svg version="1.1" xmlns="http://www.w3.org/2000/svg" xmlns:xlink="http://www.w3.org/1999/xlink" x="0px" y="0px"
	 viewBox="0 0 28 36" enable-background="new 0 0 28 36" xml:space="preserve">
<g id="圆角矩形_1101_1_" enable-background="new    ">
	<g id="圆角矩形_1101">
		<g>
			<path fill="#5EA6C8" d="M25.5,2.5v31h-23v-31H25.5 M26,0H2C0.9,0,0,0.9,0,2v32c0,1.1,0.9,2,2,2h24c1.1,0,2-0.9,2-2V2
				C28,0.9,27.1,0,26,0L26,0z"/>
		</g>
	</g>
</g>
<g id="矩形_1102_1_" enable-background="new    ">
	<g id="矩形_1102">
		<g>
			<rect x="2" y="12" fill-rule="evenodd" clip-rule="evenodd" fill="#5EA6C8" width="24" height="2.5"/>
		</g>
	</g>
</g>
<g id="椭圆_1103_1_" enable-background="new    ">
	<g id="椭圆_1103">
		<g>
			<circle fill-rule="evenodd" clip-rule="evenodd" fill="#5EA6C8" cx="9" cy="7" r="2"/>
		</g>
	</g>
</g>
<g id="圆角矩形_1104_1_" enable-background="new    ">
	<g id="圆角矩形_1104">
		<g>
			<path fill-rule="evenodd" clip-rule="evenodd" fill="#5EA6C8" d="M8.5,19C7.7,19,7,19.7,7,20.5v7C7,28.3,7.7,29,8.5,29
				s1.5-0.7,1.5-1.5v-7C10,19.7,9.3,19,8.5,19z"/>
		</g>
	</g>
</g>
</svg>
