<?xml version="1.0" encoding="utf-8"?>
<!-- Generator: Adobe Illustrator 18.1.1, SVG Export Plug-In . SVG Version: 6.00 Build 0)  -->
<svg version="1.1" xmlns="http://www.w3.org/2000/svg" xmlns:xlink="http://www.w3.org/1999/xlink" x="0px" y="0px"
	 viewBox="0 0 43 56" enable-background="new 0 0 43 56" xml:space="preserve">
<g id="圆角矩形_23_1_" enable-background="new    ">
	<g id="圆角矩形_23">
		<g>
			<path fill="#02B5B9" d="M40,15.5c0.3,0,0.5,0.2,0.5,0.5v37c0,0.3-0.2,0.5-0.5,0.5H3c-0.3,0-0.5-0.2-0.5-0.5V16
				c0-0.3,0.2-0.5,0.5-0.5H40 M40,13H3c-1.7,0-3,1.3-3,3v37c0,1.7,1.3,3,3,3h37c1.7,0,3-1.3,3-3V16C43,14.3,41.7,13,40,13L40,13z"/>
		</g>
	</g>
</g>
<g id="矩形_50_1_" enable-background="new    ">
	<g id="矩形_50">
		<g>
			<path fill-rule="evenodd" clip-rule="evenodd" fill="#02B5B9" d="M27,0H16c-2.2,0-4,1.8-4,4v15h2V3h15v16h2V4C31,1.8,29.2,0,27,0
				z"/>
		</g>
	</g>
</g>
<g id="椭圆_15_1_" enable-background="new    ">
	<g id="椭圆_15">
		<g>
			<path fill="#02B5B9" d="M13,20.5c0.8,0,1.5,0.7,1.5,1.5c0,0.8-0.7,1.5-1.5,1.5c-0.8,0-1.5-0.7-1.5-1.5
				C11.5,21.2,12.2,20.5,13,20.5 M13,19c-1.7,0-3,1.3-3,3c0,1.7,1.3,3,3,3c1.7,0,3-1.3,3-3C16,20.3,14.7,19,13,19L13,19z"/>
		</g>
	</g>
</g>
<g id="椭圆_15_拷贝_1_" enable-background="new    ">
	<g id="椭圆_15_拷贝">
		<g>
			<path fill="#02B5B9" d="M30,20.5c0.8,0,1.5,0.7,1.5,1.5c0,0.8-0.7,1.5-1.5,1.5c-0.8,0-1.5-0.7-1.5-1.5
				C28.5,21.2,29.2,20.5,30,20.5 M30,19c-1.7,0-3,1.3-3,3c0,1.7,1.3,3,3,3c1.7,0,3-1.3,3-3C33,20.3,31.7,19,30,19L30,19z"/>
		</g>
	</g>
</g>
</svg>
