<?xml version="1.0" encoding="utf-8"?>
<!-- Generator: Adobe Illustrator 18.1.1, SVG Export Plug-In . SVG Version: 6.00 Build 0)  -->
<svg version="1.1" xmlns="http://www.w3.org/2000/svg" xmlns:xlink="http://www.w3.org/1999/xlink" x="0px" y="0px"
	 viewBox="0 0 63 63" enable-background="new 0 0 63 63" xml:space="preserve">
<g id="圆角矩形_5_1_" enable-background="new    ">
	<g id="圆角矩形_5">
		<g>
			<path fill="#02B5B9" d="M22.1,3.5l37.3,36.2L40.1,59.5L2.8,23.3l0.1-0.1l0.2-0.6L7,8l14.4-4.2L22,3.6L22.1,3.5 M22.1,0.8
				c-0.5,0-1,0.2-1.4,0.6L5,6L0.7,21.9c-0.8,0.8-0.8,2.1,0,2.8l38,36.9c0.4,0.4,0.9,0.6,1.4,0.6c0.5,0,1-0.2,1.4-0.6l20-20.5
				c0.8-0.8,0.8-2.1,0-2.8l-38-36.9C23.1,1,22.6,0.8,22.1,0.8L22.1,0.8z"/>
		</g>
	</g>
</g>
<g id="椭圆_4_1_" enable-background="new    ">
	<g id="椭圆_4">
		<g>
			<path fill="#02B5B9" d="M13.5,12.5c1.1,0,2,0.9,2,2s-0.9,2-2,2s-2-0.9-2-2S12.4,12.5,13.5,12.5 M13.5,10C11,10,9,12,9,14.5
				s2,4.5,4.5,4.5s4.5-2,4.5-4.5S16,10,13.5,10L13.5,10z"/>
		</g>
	</g>
</g>
<g id="SALE_1_" enable-background="new    ">
	<g id="SALE">
		<g>
			<path fill="#02B5B9" d="M23.5,26.9c1.4-1.3,1.4-2.8,0.8-4.4l-0.7-1.9c-0.4-1.1-0.8-2.2,0-2.9c0.8-0.7,1.9-0.5,2.8,0.5
				c0.8,0.9,1.1,1.8,1.1,3l1.7-0.1c0.1-1.4-0.4-3-1.5-4.1c-1.7-1.9-4.1-2.2-5.6-0.8c-1.4,1.3-1.2,3-0.8,4.3l0.7,1.9
				c0.4,1.3,0.8,2.2-0.1,3c-0.8,0.8-2,0.6-3.1-0.6c-0.9-0.9-1.3-2.3-1.2-3.7l-1.9,0.1c-0.1,1.7,0.5,3.5,1.7,4.8
				C19.4,28.2,21.9,28.4,23.5,26.9z M33.8,23.9L21,29.6l1.4,1.6l3.6-1.7l3.1,3.4l-2,3.4l1.5,1.6l6.8-12.2L33.8,23.9z M31,29.8
				l-1,1.6l-2.4-2.7l1.7-0.8c1.4-0.7,2.7-1.3,4.1-2.1l0,0.1C32.5,27.2,31.7,28.5,31,29.8z M40.7,31.6L39.3,30l-9.8,8.9l5.2,5.7
				l1.3-1.2l-3.8-4.1L40.7,31.6z M50,44.3l1.3-1.2L46,37.4l-9.8,8.9l5.4,5.9l1.3-1.2l-4-4.4l3.2-2.9l3.3,3.6l1.3-1.2l-3.3-3.6
				l2.7-2.5L50,44.3z"/>
		</g>
	</g>
</g>
</svg>
