<?xml version="1.0" encoding="utf-8"?>
<!-- Generator: Adobe Illustrator 18.1.1, SVG Export Plug-In . SVG Version: 6.00 Build 0)  -->
<svg version="1.1" xmlns="http://www.w3.org/2000/svg" xmlns:xlink="http://www.w3.org/1999/xlink" x="0px" y="0px"
	 viewBox="0 0 56 45" enable-background="new 0 0 56 45" xml:space="preserve">
<g id="形状_1_1_" enable-background="new    ">
	<g id="形状_1">
		<g>
			<path fill="#02B5B9" d="M27,2.5c10.6,0,19.7,6.6,21.2,15.4l0.4,2.1l0,0l-0.2,1.9c-0.3,3.4-1.8,6.6-4.3,9.4L43.5,32v1l0,0.2l0,0
				V41c0,0.8-0.7,1.5-1.5,1.5h-4c-0.8,0-1.5-0.7-1.5-1.5v-0.9v-3.2l-3.1,0.8c-2.1,0.5-4.2,0.8-6.4,0.8c-1.2,0-2.4-0.1-3.6-0.3
				l-2.9-0.4v2.9V41c0,0.8-0.7,1.5-1.5,1.5h-4c-0.8,0-1.5-0.7-1.5-1.5v-4.9c0-0.1,0-0.1,0-0.2l0.1-1.3l-1.1-0.8
				c-2.8-2.1-4.8-4.8-6-7.7L6,24.5H4.3H3c-0.3,0-0.5-0.2-0.5-0.5v-6c0-0.3,0.2-0.5,0.5-0.5h0.9h1.8l0.6-1.7c0.9-2.9,2.8-5.6,5.4-7.8
				l0.9-0.7V6.1V3.5h3.3l1,1.1L18.4,4C21.1,3,24,2.5,27,2.5 M27,0c-3.4,0-6.6,0.6-9.5,1.7C17.1,1.3,16.6,1,16,1h-4c-1.1,0-2,0.9-2,2
				v3.1C7.2,8.5,5,11.6,3.9,15H3c-1.7,0-3,1.3-3,3v6c0,1.7,1.3,3,3,3h1.3c1.3,3.4,3.7,6.4,6.8,8.8c0,0.1,0,0.2,0,0.2v5
				c0,2.2,1.8,4,4,4h4c2.2,0,4-1.8,4-4v-0.3c1.3,0.2,2.6,0.3,4,0.3c2.4,0,4.8-0.3,7-0.9V41c0,2.2,1.8,4,4,4h4c2.2,0,4-1.8,4-4v-8
				c0,0,0,0,0,0c2.7-3,4.5-6.8,4.9-10.8L52,22c8.6-8.4,0-11,0-11c0.2,4-0.5,5.7-1.3,6.5C49,7.6,39,0,27,0L27,0z"/>
		</g>
	</g>
</g>
<g id="椭圆_3_1_" enable-background="new    ">
	<g id="椭圆_3">
		<g>
			<circle fill-rule="evenodd" clip-rule="evenodd" fill="#02B5B9" cx="15" cy="16" r="2"/>
		</g>
	</g>
</g>
<g id="矩形_8_1_" enable-background="new    ">
	<g id="矩形_8">
		<g>
			<path fill-rule="evenodd" clip-rule="evenodd" fill="#02B5B9" d="M33.3,6.1c-4.7-0.2-10.2-0.4-10.2-0.4l-0.1,2c0,0,5,0.2,9.6,0.3
				c3.8,0.1,7.3,3.3,7.3,3.3l0.1-2C40,9.3,36.9,6.2,33.3,6.1z"/>
		</g>
	</g>
</g>
</svg>
