<?xml version="1.0" encoding="utf-8"?>
<!-- Generator: Adobe Illustrator 18.1.1, SVG Export Plug-In . SVG Version: 6.00 Build 0)  -->
<svg version="1.1" xmlns="http://www.w3.org/2000/svg" xmlns:xlink="http://www.w3.org/1999/xlink" x="0px" y="0px"
	 viewBox="0 0 36 36" enable-background="new 0 0 36 36" xml:space="preserve">
<g id="椭圆_883_1_" enable-background="new    ">
	<g id="椭圆_883">
		<g>
			<path fill="#FE8F71" d="M17,4c7.2,0,13,5.8,13,13s-5.8,13-13,13C9.8,30,4,24.2,4,17S9.8,4,17,4 M17,0C7.6,0,0,7.6,0,17
				s7.6,17,17,17c9.4,0,17-7.6,17-17S26.4,0,17,0L17,0z"/>
		</g>
	</g>
</g>
<g id="圆角矩形_884_1_" enable-background="new    ">
	<g id="圆角矩形_884">
		<g>
			<path fill-rule="evenodd" clip-rule="evenodd" fill="#FE8F71" d="M35.7,33.1l-6.4-6.4c-0.6-0.6-1.5-0.6-2.1,0
				c-0.6,0.6-0.6,1.5,0,2.1l6.4,6.4c0.6,0.6,1.5,0.6,2.1,0C36.3,34.7,36.3,33.7,35.7,33.1z"/>
		</g>
	</g>
</g>
</svg>
