<?xml version="1.0" encoding="utf-8"?>
<!-- Generator: Adobe Illustrator 18.1.1, SVG Export Plug-In . SVG Version: 6.00 Build 0)  -->
<svg version="1.1" id="综合查询_拷贝_1_" xmlns="http://www.w3.org/2000/svg" xmlns:xlink="http://www.w3.org/1999/xlink"
	 x="0px" y="0px" viewBox="0 0 28 28" enable-background="new 0 0 28 28" xml:space="preserve">
<g id="椭圆_6">
	<g>
		<path fill="#999999" d="M11.5,2c5.2,0,9.5,4.3,9.5,9.5S16.7,21,11.5,21S2,16.7,2,11.5S6.3,2,11.5,2 M11.5,0C5.1,0,0,5.1,0,11.5
			S5.1,23,11.5,23S23,17.9,23,11.5S17.9,0,11.5,0L11.5,0z"/>
	</g>
</g>
<g id="圆角矩形_18_拷贝">
	<g>
		<path fill-rule="evenodd" clip-rule="evenodd" fill="#999999" d="M27.9,26.4l-7.4-8.1c-0.4-0.4-1-0.4-1.4-0.1
			c-0.4,0.4-0.4,1-0.1,1.4l7.4,8.1c0.4,0.4,1,0.4,1.4,0.1C28.3,27.4,28.3,26.8,27.9,26.4z"/>
	</g>
</g>
</svg>
