<?xml version="1.0" encoding="utf-8"?>
<!-- Generator: Adobe Illustrator 18.1.1, SVG Export Plug-In . SVG Version: 6.00 Build 0)  -->
<svg version="1.1" xmlns="http://www.w3.org/2000/svg" xmlns:xlink="http://www.w3.org/1999/xlink" x="0px" y="0px"
	 viewBox="0 0 50 58" enable-background="new 0 0 50 58" xml:space="preserve">
<g id="圆角矩形_25_1_" enable-background="new    ">
	<g id="圆角矩形_25">
		<g>
			<path fill="#02B5B9" d="M25.2,2.5c9.7,0,19.6,4.7,19.7,4.8l0.5,0.2H46c0.8,0,1.5,0.7,1.5,1.5l0,26.5c-1.9,4-10.1,20-23.1,20
				c-8.3,0-15.6-6.5-21.5-19.3c-0.1-0.3-0.3-0.6-0.4-0.9V9c0-0.8,0.7-1.5,1.5-1.5l0.6,0l0.5-0.2C5.2,7.2,15.4,2.5,25.2,2.5 M25.2,0
				C14.6,0,4,5,4,5C1.8,5,0,6.8,0,9v27c0.5,0.2,8,22,24.4,22C40.9,58,50,36,50,36c0,0,0,0,0,0V9c0-2.2-1.8-4-4-4C46,5,35.6,0,25.2,0
				L25.2,0z"/>
		</g>
	</g>
</g>
<g id="圆角矩形_25_拷贝_1_" enable-background="new    ">
	<g id="圆角矩形_25_拷贝">
		<g>
			<path fill="#02B5B9" d="M25.2,10.5c6.8,0,13.8,3.3,13.9,3.3l0.5,0.2h0.6c0.2,0,0.4,0.1,0.4,0.3l0,18.5c-1.4,3-7.1,13.6-15.9,13.6
				c-5.7,0-10.7-4.5-14.9-13.2c-0.1-0.2-0.2-0.3-0.2-0.5V14.4c0-0.2,0.2-0.3,0.4-0.3l0.5,0l0.5-0.2C11,13.8,18.2,10.5,25.2,10.5
				 M25.2,8c-7.6,0-15.3,3.5-15.3,3.5c-1.6,0-2.9,1.3-2.9,2.8v19.1C7.4,33.6,12.7,49,24.6,49C36.4,49,43,33.4,43,33.4c0,0,0,0,0,0
				V14.4c0-1.6-1.3-2.8-2.9-2.8C40.1,11.5,32.7,8,25.2,8L25.2,8z"/>
		</g>
	</g>
</g>
<g id="矩形_53_1_" enable-background="new    ">
	<g id="矩形_53">
		<g>
			<rect x="24" y="10" fill-rule="evenodd" clip-rule="evenodd" fill="#02B5B9" width="2.5" height="38"/>
		</g>
	</g>
</g>
</svg>
