<?xml version="1.0" encoding="utf-8"?>
<!-- Generator: Adobe Illustrator 18.1.1, SVG Export Plug-In . SVG Version: 6.00 Build 0)  -->
<svg version="1.1" xmlns="http://www.w3.org/2000/svg" xmlns:xlink="http://www.w3.org/1999/xlink" x="0px" y="0px"
	 viewBox="0 0 20 20" enable-background="new 0 0 20 20" xml:space="preserve">
<g id="椭圆_2_1_" enable-background="new    ">
	<g id="椭圆_2">
		<g>
			<path fill="#6C6C6C" d="M9,2c3.9,0,7,3.1,7,7s-3.1,7-7,7s-7-3.1-7-7S5.1,2,9,2 M9,0C4,0,0,4,0,9s4,9,9,9s9-4,9-9S14,0,9,0L9,0z"
				/>
		</g>
	</g>
</g>
<g id="圆角矩形_3_1_" enable-background="new    ">
	<g id="圆角矩形_3">
		<g>
			<path fill-rule="evenodd" clip-rule="evenodd" fill="#6C6C6C" d="M19.7,18.3l-3.5-3.5c-0.4-0.4-1-0.4-1.4,0c-0.4,0.4-0.4,1,0,1.4
				l3.5,3.5c0.4,0.4,1,0.4,1.4,0C20.1,19.3,20.1,18.7,19.7,18.3z"/>
		</g>
	</g>
</g>
<g id="圆角矩形_2_1_" enable-background="new    ">
	<g id="圆角矩形_2">
		<g>
			<path fill-rule="evenodd" clip-rule="evenodd" fill="#6C6C6C" d="M13,8H5C4.4,8,4,8.4,4,9s0.4,1,1,1h8c0.6,0,1-0.4,1-1
				S13.6,8,13,8z"/>
		</g>
	</g>
</g>
</svg>
