<?xml version="1.0" encoding="utf-8"?>
<!-- Generator: Adobe Illustrator 18.1.1, SVG Export Plug-In . SVG Version: 6.00 Build 0)  -->
<svg version="1.1" xmlns="http://www.w3.org/2000/svg" xmlns:xlink="http://www.w3.org/1999/xlink" x="0px" y="0px"
	 viewBox="0 0 32 36" enable-background="new 0 0 32 36" xml:space="preserve">
<g id="形状_1075_1_" enable-background="new    ">
	<g id="形状_1075">
		<g>
			<path fill="#D37200" d="M20.5,2.3c4.3,3.9,8,10.8,9.4,13.8C25,18.8,12,27.8,3.3,34c-1.6-2.3-2.2-5.6-1.6-8.7
				c0.4-1.9,1.5-5.2,5-6.9l0.2-0.1L7,18.1c4.3-3.9,3.4-10.9,2.8-14c0.1,0,0.2,0,0.3,0c0.5,0,0.8,0.1,1,0.2c1.2,1.4,2.6,2,4,2
				C17.6,6.3,19.4,4,20.5,2.3 M20,0c0,0-2,4.8-5,4.8c-0.9,0-2-0.5-3-1.8c0,0-0.7-0.4-1.9-0.4C9.5,2.6,8.8,2.7,8,3c0,0,2.9,9.6-2,14
				c-7.1,3.4-7.7,14-3,19c0,0,26.7-18.8,28.9-19.2C31.2,15.2,26.1,4.4,20,0L20,0z M32,16.8C32,16.8,31.9,16.8,32,16.8
				c0,0.1,0,0.2,0,0.2C32.1,16.9,32.1,16.8,32,16.8L32,16.8z"/>
		</g>
	</g>
</g>
<g id="形状_1075_拷贝_1_" enable-background="new    ">
	<g id="形状_1075_拷贝">
		<g>
			<polygon fill-rule="evenodd" clip-rule="evenodd" fill="#D37200" points="19,19 1,32 2,33 20,20 			"/>
		</g>
	</g>
</g>
<g id="形状_1075_拷贝_2_1_" enable-background="new    ">
	<g id="形状_1075_拷贝_2">
		<g>
			<polygon fill-rule="evenodd" clip-rule="evenodd" fill="#D37200" points="28,12 23,16 24,17 29,13 			"/>
		</g>
	</g>
</g>
<g id="圆角矩形_1078_1_" enable-background="new    ">
	<g id="圆角矩形_1078">
		<g>
			<path fill-rule="evenodd" clip-rule="evenodd" fill="#D37200" d="M15.8,29L15,28.2c-0.2-0.2-0.6-0.2-0.8,0
				c-0.2,0.2-0.2,0.6,0,0.8l0.8,0.8c0.2,0.2,0.6,0.2,0.8,0C16,29.6,16,29.2,15.8,29z"/>
		</g>
	</g>
</g>
<g id="圆角矩形_1078_拷贝_1_" enable-background="new    ">
	<g id="圆角矩形_1078_拷贝">
		<g>
			<path fill-rule="evenodd" clip-rule="evenodd" fill="#D37200" d="M10.8,32L10,31.2c-0.2-0.2-0.6-0.2-0.8,0
				c-0.2,0.2-0.2,0.6,0,0.8l0.8,0.8c0.2,0.2,0.6,0.2,0.8,0C11,32.6,11,32.2,10.8,32z"/>
		</g>
	</g>
</g>
<g id="圆角矩形_1078_拷贝_2_1_" enable-background="new    ">
	<g id="圆角矩形_1078_拷贝_2">
		<g>
			<path fill-rule="evenodd" clip-rule="evenodd" fill="#D37200" d="M7.8,35L7,34.2c-0.2-0.2-0.6-0.2-0.8,0c-0.2,0.2-0.2,0.6,0,0.8
				L7,35.8c0.2,0.2,0.6,0.2,0.8,0C8,35.6,8,35.2,7.8,35z"/>
		</g>
	</g>
</g>
<g id="圆角矩形_1078_拷贝_3_1_" enable-background="new    ">
	<g id="圆角矩形_1078_拷贝_3">
		<g>
			<path fill-rule="evenodd" clip-rule="evenodd" fill="#D37200" d="M20.8,25L20,24.2c-0.2-0.2-0.6-0.2-0.8,0
				c-0.2,0.2-0.2,0.6,0,0.8l0.8,0.8c0.2,0.2,0.6,0.2,0.8,0C21,25.6,21,25.2,20.8,25z"/>
		</g>
	</g>
</g>
<g id="圆角矩形_1078_拷贝_4_1_" enable-background="new    ">
	<g id="圆角矩形_1078_拷贝_4">
		<g>
			<path fill-rule="evenodd" clip-rule="evenodd" fill="#D37200" d="M24.8,23L24,22.2c-0.2-0.2-0.6-0.2-0.8,0
				c-0.2,0.2-0.2,0.6,0,0.8l0.8,0.8c0.2,0.2,0.6,0.2,0.8,0C25,23.6,25,23.2,24.8,23z"/>
		</g>
	</g>
</g>
<g id="圆角矩形_1078_拷贝_5_1_" enable-background="new    ">
	<g id="圆角矩形_1078_拷贝_5">
		<g>
			<path fill-rule="evenodd" clip-rule="evenodd" fill="#D37200" d="M29.8,20L29,19.2c-0.2-0.2-0.6-0.2-0.8,0
				c-0.2,0.2-0.2,0.6,0,0.8l0.8,0.8c0.2,0.2,0.6,0.2,0.8,0C30,20.6,30,20.2,29.8,20z"/>
		</g>
	</g>
</g>
</svg>
