<?xml version="1.0" encoding="utf-8"?>
<!-- Generator: Adobe Illustrator 18.1.1, SVG Export Plug-In . SVG Version: 6.00 Build 0)  -->
<svg version="1.1" xmlns="http://www.w3.org/2000/svg" xmlns:xlink="http://www.w3.org/1999/xlink" x="0px" y="0px"
	 viewBox="0 0 36 36" enable-background="new 0 0 36 36" xml:space="preserve">
<g id="矩形_1106_1_" enable-background="new    ">
	<g id="矩形_1106">
		<g>
			<path fill-rule="evenodd" clip-rule="evenodd" fill="#5EA6C8" d="M28,0H8C5.8,0,4,1.8,4,4v4h3V5c0-1.1,0.9-2,2-2h18
				c1.1,0,2,0.9,2,2v3h3V4C32,1.8,30.2,0,28,0z"/>
		</g>
	</g>
</g>
<g id="矩形_1109_1_" enable-background="new    ">
	<g id="矩形_1109">
		<g>
			<path fill="#5EA6C8" d="M32,10.5c0.8,0,1.5,0.7,1.5,1.5v12l0,0.1l0,0.1l0,0.3l0,0.3l0,0.1l0,0.1v2c0,0.8-0.7,1.5-1.5,1.5H4
				c-0.8,0-1.5-0.7-1.5-1.5v-2l0-0.1l0-0.1l0-0.3l0-0.3l0-0.1l0-0.1V12c0-0.8,0.7-1.5,1.5-1.5h2c0.8,0,1.5,0.7,1.5,1.5v4v2.5H10h16
				h2.5V16v-4c0-0.8,0.7-1.5,1.5-1.5H32 M32,8h-2c-2.2,0-4,1.8-4,4v4H10v-4c0-2.2-1.8-4-4-4H4c-2.2,0-4,1.8-4,4v12
				c0,0.2,0,0.3,0.1,0.5C0,24.7,0,24.8,0,25v2c0,2.2,1.8,4,4,4h28c2.2,0,4-1.8,4-4v-2c0-0.2,0-0.3-0.1-0.5c0-0.2,0.1-0.3,0.1-0.5V12
				C36,9.8,34.2,8,32,8L32,8z"/>
		</g>
	</g>
</g>
<g id="圆角矩形_1107_1_" enable-background="new    ">
	<g id="圆角矩形_1107">
		<g>
			<path fill-rule="evenodd" clip-rule="evenodd" fill="#5EA6C8" d="M8.3,30C7.6,30,7,30.6,7,31.3v3.5C7,35.4,7.6,36,8.3,36
				c0.7,0,1.3-0.6,1.3-1.2v-3.5C9.5,30.6,8.9,30,8.3,30z"/>
		</g>
	</g>
</g>
<g id="圆角矩形_1107_拷贝_1_" enable-background="new    ">
	<g id="圆角矩形_1107_拷贝">
		<g>
			<path fill-rule="evenodd" clip-rule="evenodd" fill="#5EA6C8" d="M26.3,30c-0.7,0-1.3,0.6-1.3,1.3v3.5c0,0.7,0.6,1.2,1.3,1.2
				s1.3-0.6,1.3-1.2v-3.5C27.5,30.6,26.9,30,26.3,30z"/>
		</g>
	</g>
</g>
</svg>
