<?xml version="1.0" encoding="utf-8"?>
<!-- Generator: Adobe Illustrator 18.1.1, SVG Export Plug-In . SVG Version: 6.00 Build 0)  -->
<svg version="1.1" xmlns="http://www.w3.org/2000/svg" xmlns:xlink="http://www.w3.org/1999/xlink" x="0px" y="0px"
	 viewBox="0 0 66 54" enable-background="new 0 0 66 54" xml:space="preserve">
<g id="圆角矩形_22_1_" enable-background="new    ">
	<g id="圆角矩形_22">
		<g>
			<path fill="#02B5B9" d="M60,15.5c1.9,0,3.5,1.6,3.5,3.5v17c0,1.9-1.6,3.5-3.5,3.5H6c-1.9,0-3.5-1.6-3.5-3.5V19
				c0-1.9,1.6-3.5,3.5-3.5H60 M60,13H6c-3.3,0-6,2.7-6,6v17c0,3.3,2.7,6,6,6h54c3.3,0,6-2.7,6-6V19C66,15.7,63.3,13,60,13L60,13z"/>
		</g>
	</g>
</g>
<g id="圆角矩形_22_拷贝_1_" enable-background="new    ">
	<g id="圆角矩形_22_拷贝">
		<g>
			<path fill-rule="evenodd" clip-rule="evenodd" fill="#02B5B9" d="M17.2,10c2.6-1.5,6-1.6,8.7-0.6c1.4-2.1,7.5-6.3,7.5-6.3
				s6.5,4.4,7.8,6.7c2.9-1.2,6.5-1,9.3,0.6c1.1,0.7,1.9,1.5,2.5,2.5h2.6c-0.4-1.8-1.5-3.5-3.4-4.7c-3-1.9-7-2.1-10.2-0.7
				C40.5,5,33.4,0,33.4,0s-6.6,4.8-8.2,7.1c-3-1.2-6.7-1-9.5,0.7c-2.2,1.3-3.5,3.2-3.8,5.2h2.4C14.9,11.9,15.8,10.8,17.2,10z
				 M49.2,45.2c-2.7,1.4-6,1.5-8.7,0.5c-1.5,2-7.6,5.2-7.6,5.2s-6-3.4-7.4-5.4c-2.8,1-6.1,0.8-8.7-0.7c-1.2-0.7-2.1-1.6-2.7-2.7
				h-2.6c0.3,1.9,1.6,3.8,3.6,5c2.8,1.7,6.5,1.9,9.5,0.8c1.5,2.4,8.1,6.2,8.1,6.2s6.7-3.6,8.3-5.9c3,1.2,6.6,1.1,9.6-0.5
				c2.4-1.3,3.8-3.4,4-5.6h-2.4C51.7,43.2,50.7,44.3,49.2,45.2z"/>
		</g>
	</g>
</g>
<g id="SPECIAL_1_" enable-background="new    ">
	<g id="SPECIAL">
		<g>
			<path fill="#02B5B9" d="M13.1,27.7c-0.3-0.2-0.6-0.4-1-0.5c-0.4-0.1-0.8-0.3-1.3-0.4c-0.4-0.1-0.7-0.2-0.8-0.2
				c-0.2-0.1-0.3-0.1-0.5-0.2c-0.2-0.1-0.3-0.2-0.4-0.3C9,26,8.9,25.8,8.9,25.7c0-0.3,0.1-0.5,0.4-0.7c0.3-0.2,0.6-0.3,1.1-0.3
				c0.5,0,0.8,0.1,1.1,0.3c0.2,0.2,0.4,0.4,0.6,0.8c0.1,0.2,0.2,0.4,0.3,0.5c0.1,0.1,0.3,0.1,0.5,0.1c0.2,0,0.4-0.1,0.5-0.2
				c0.1-0.2,0.2-0.4,0.2-0.6c0-0.2-0.1-0.5-0.2-0.7c-0.1-0.2-0.3-0.5-0.6-0.7c-0.3-0.2-0.6-0.4-1-0.5c-0.4-0.1-0.8-0.2-1.4-0.2
				c-0.7,0-1.2,0.1-1.7,0.3c-0.5,0.2-0.9,0.5-1.1,0.8c-0.3,0.4-0.4,0.8-0.4,1.3c0,0.5,0.1,0.9,0.4,1.2c0.2,0.3,0.6,0.6,1,0.8
				s0.9,0.4,1.5,0.5c0.5,0.1,0.8,0.2,1.1,0.3s0.5,0.2,0.7,0.4c0.2,0.2,0.3,0.4,0.3,0.7c0,0.4-0.2,0.7-0.5,0.9S11,31,10.5,31
				c-0.4,0-0.7-0.1-0.9-0.2c-0.2-0.1-0.4-0.3-0.5-0.5c-0.1-0.2-0.2-0.4-0.4-0.7c-0.1-0.2-0.2-0.4-0.3-0.5C8.3,29.1,8.1,29,7.9,29
				c-0.2,0-0.4,0.1-0.6,0.2c-0.1,0.2-0.2,0.3-0.2,0.5c0,0.4,0.1,0.7,0.4,1.1c0.2,0.4,0.6,0.7,1,0.9c0.6,0.3,1.3,0.5,2.1,0.5
				c0.7,0,1.3-0.1,1.8-0.4s0.9-0.6,1.2-1c0.3-0.4,0.4-0.9,0.4-1.4c0-0.4-0.1-0.8-0.2-1.1C13.6,28.2,13.4,27.9,13.1,27.7z M21.3,24.2
				c-0.3-0.2-0.6-0.4-0.9-0.5c-0.4-0.1-0.9-0.2-1.5-0.2h-2.2c-0.4,0-0.7,0.1-0.8,0.2s-0.3,0.4-0.3,0.8v6.6c0,0.3,0.1,0.6,0.2,0.8
				c0.2,0.2,0.4,0.3,0.6,0.3c0.2,0,0.5-0.1,0.6-0.3s0.2-0.4,0.2-0.8v-2.4h1.6c1.1,0,1.9-0.2,2.4-0.7s0.8-1.1,0.8-2
				c0-0.4-0.1-0.8-0.2-1.1C21.8,24.7,21.6,24.4,21.3,24.2z M20.1,26.9c-0.1,0.2-0.4,0.3-0.6,0.4c-0.3,0.1-0.6,0.1-1,0.1h-1.2v-2.6
				h1.2c0.8,0,1.3,0.1,1.5,0.4c0.2,0.2,0.3,0.5,0.3,0.9C20.4,26.5,20.3,26.7,20.1,26.9z M29.5,30.8h-4.1v-2.4H29
				c0.3,0,0.5-0.1,0.6-0.2s0.2-0.3,0.2-0.5c0-0.2-0.1-0.4-0.2-0.5C29.5,27.1,29.3,27,29,27h-3.6v-2.1h3.9c0.3,0,0.5-0.1,0.6-0.2
				s0.2-0.3,0.2-0.5c0-0.2-0.1-0.4-0.2-0.5s-0.3-0.2-0.6-0.2h-4.6c-0.2,0-0.4,0-0.6,0.1c-0.2,0.1-0.3,0.2-0.3,0.3
				c-0.1,0.2-0.1,0.4-0.1,0.6v6.5c0,0.4,0.1,0.6,0.2,0.8c0.2,0.2,0.4,0.3,0.8,0.3h4.7c0.3,0,0.5-0.1,0.6-0.2
				c0.1-0.1,0.2-0.3,0.2-0.5c0-0.2-0.1-0.4-0.2-0.5C30,30.8,29.8,30.8,29.5,30.8z M38.4,28.7c-0.2,0-0.4,0.1-0.5,0.2
				c-0.1,0.1-0.2,0.3-0.3,0.6c-0.2,0.5-0.4,0.8-0.8,1.1c-0.3,0.2-0.8,0.4-1.3,0.4c-0.5,0-0.9-0.1-1.2-0.3c-0.3-0.2-0.6-0.5-0.8-1
				c-0.2-0.4-0.3-1-0.3-1.7c0-1,0.2-1.8,0.6-2.3c0.4-0.5,1-0.8,1.7-0.8c0.4,0,0.8,0.1,1.1,0.3c0.3,0.2,0.6,0.5,0.8,1
				c0.1,0.3,0.3,0.4,0.4,0.5s0.3,0.2,0.5,0.2c0.2,0,0.4-0.1,0.5-0.2s0.2-0.3,0.2-0.5c0-0.4-0.1-0.7-0.4-1.2c-0.3-0.4-0.7-0.8-1.2-1
				c-0.5-0.3-1.2-0.4-1.9-0.4c-0.6,0-1.1,0.1-1.6,0.3c-0.5,0.2-0.9,0.5-1.3,0.9C32.3,25,32,25.5,31.8,26c-0.2,0.5-0.3,1.2-0.3,1.9
				c0,0.4,0,0.8,0.1,1.2c0.1,0.4,0.2,0.7,0.4,1.1c0.2,0.3,0.4,0.6,0.6,0.9c0.3,0.3,0.5,0.5,0.8,0.7c0.3,0.2,0.6,0.3,1,0.4
				c0.4,0.1,0.8,0.1,1.2,0.1c0.6,0,1.1-0.1,1.6-0.3c0.4-0.2,0.8-0.4,1.1-0.7c0.3-0.3,0.5-0.6,0.6-0.9c0.1-0.3,0.2-0.6,0.2-0.9
				c0-0.2-0.1-0.4-0.2-0.5C38.8,28.8,38.6,28.7,38.4,28.7z M41.7,23.4c-0.3,0-0.5,0.1-0.6,0.3c-0.2,0.2-0.2,0.4-0.2,0.8v6.8
				c0,0.4,0.1,0.6,0.2,0.8c0.2,0.2,0.4,0.3,0.6,0.3c0.3,0,0.5-0.1,0.6-0.3c0.2-0.2,0.2-0.4,0.2-0.8v-6.8c0-0.4-0.1-0.6-0.2-0.8
				C42.2,23.5,42,23.4,41.7,23.4z M49.5,25c-0.1-0.3-0.2-0.5-0.3-0.7c-0.1-0.2-0.2-0.3-0.3-0.5c-0.1-0.1-0.2-0.3-0.4-0.4
				c-0.2-0.1-0.4-0.1-0.6-0.1c-0.2,0-0.4,0-0.6,0.1c-0.2,0.1-0.3,0.2-0.4,0.4c-0.1,0.1-0.2,0.3-0.3,0.6c-0.1,0.2-0.2,0.4-0.2,0.6
				l-2.2,5.6c-0.1,0.2-0.2,0.4-0.2,0.5c0,0.1-0.1,0.2-0.1,0.4c0,0.2,0.1,0.4,0.3,0.5c0.2,0.2,0.4,0.2,0.6,0.2c0.3,0,0.4-0.1,0.6-0.2
				c0.1-0.2,0.2-0.4,0.4-0.9l0.4-1.1h3.5l0.4,1.1c0.1,0.1,0.1,0.3,0.2,0.5c0.1,0.2,0.1,0.3,0.2,0.4c0.1,0.1,0.1,0.2,0.2,0.2
				c0.1,0,0.2,0.1,0.4,0.1c0.2,0,0.4-0.1,0.6-0.2c0.2-0.2,0.2-0.3,0.2-0.5c0-0.2-0.1-0.5-0.3-0.9L49.5,25z M46.7,28.8l1.3-3.5
				l1.3,3.5H46.7z M59.3,30.9c-0.2-0.1-0.4-0.2-0.6-0.2h-3.5v-6.3c0-0.4-0.1-0.6-0.2-0.8c-0.2-0.2-0.4-0.3-0.6-0.3
				c-0.3,0-0.5,0.1-0.6,0.3s-0.2,0.4-0.2,0.8v6.6c0,0.4,0.1,0.6,0.2,0.8c0.2,0.2,0.4,0.3,0.8,0.3h4.2c0.3,0,0.5-0.1,0.7-0.2
				c0.1-0.1,0.2-0.3,0.2-0.5C59.5,31.2,59.5,31.1,59.3,30.9z"/>
		</g>
	</g>
</g>
</svg>
