<?xml version="1.0" encoding="utf-8"?>
<!-- Generator: Adobe Illustrator 18.1.1, SVG Export Plug-In . SVG Version: 6.00 Build 0)  -->
<svg version="1.1" xmlns="http://www.w3.org/2000/svg" xmlns:xlink="http://www.w3.org/1999/xlink" x="0px" y="0px"
	 viewBox="0 0 54 54" enable-background="new 0 0 54 54" xml:space="preserve">
<g id="圆角矩形_3_1_" enable-background="new    ">
	<g id="圆角矩形_3">
		<g>
			<path fill="#02B5B9" d="M51.5,2.5v49h-49v-49H51.5 M52,0H2C0.9,0,0,0.9,0,2v50c0,1.1,0.9,2,2,2h50c1.1,0,2-0.9,2-2V2
				C54,0.9,53.1,0,52,0L52,0z"/>
		</g>
	</g>
</g>
<g id="矩形_2_1_" enable-background="new    ">
	<g id="矩形_2">
		<g>
			<path fill="#02B5B9" d="M44.5,9.5v34h-34v-34H44.5 M47,7H8v39h39V7L47,7z"/>
		</g>
	</g>
</g>
<g id="矩形_3_1_" enable-background="new    ">
	<g id="矩形_3">
		<g>
			<rect x="6" y="16" fill-rule="evenodd" clip-rule="evenodd" fill="#02B5B9" width="3" height="4"/>
		</g>
	</g>
</g>
<g id="矩形_3_拷贝_1_" enable-background="new    ">
	<g id="矩形_3_拷贝">
		<g>
			<rect x="6" y="34" fill-rule="evenodd" clip-rule="evenodd" fill="#02B5B9" width="3" height="4"/>
		</g>
	</g>
</g>
<g id="椭圆_1_拷贝_1_" enable-background="new    ">
	<g id="椭圆_1_拷贝">
		<g>
			<path fill-rule="evenodd" clip-rule="evenodd" fill="#02B5B9" d="M27,20c-3.9,0-7,3.1-7,7c0,3.9,3.1,7,7,7c3.9,0,7-3.1,7-7
				C34,23.1,30.9,20,27,20z M27,32c-2.8,0-5-2.2-5-5c0-2.8,2.2-5,5-5c2.8,0,5,2.2,5,5C32,29.8,29.8,32,27,32z"/>
		</g>
	</g>
</g>
<g id="椭圆_1_拷贝_2_1_" enable-background="new    ">
	<g id="椭圆_1_拷贝_2">
		<g>
			<path fill-rule="evenodd" clip-rule="evenodd" fill="#02B5B9" d="M19.2,20.6l3.6,3.6c0.4-0.6,0.9-1,1.4-1.4l-3.6-3.6L19.2,20.6z
				 M22.8,29.8l-3.6,3.6l1.4,1.4l3.6-3.6C23.7,30.8,23.2,30.3,22.8,29.8z M31.2,24.2l3.6-3.6l-1.4-1.4l-3.6,3.6
				C30.3,23.2,30.8,23.7,31.2,24.2z M22,27c0-0.3,0-0.7,0.1-1H17v2h5.1C22,27.7,22,27.3,22,27z M26,22.1c0.3-0.1,0.7-0.1,1-0.1
				c0.3,0,0.7,0,1,0.1V17h-2V22.1z M31.9,26c0.1,0.3,0.1,0.7,0.1,1c0,0.3,0,0.7-0.1,1H37v-2H31.9z M29.8,31.2l3.6,3.6l1.4-1.4
				l-3.6-3.6C30.8,30.3,30.3,30.8,29.8,31.2z M26,31.9V37h2v-5.1C27.7,32,27.3,32,27,32C26.7,32,26.3,32,26,31.9z"/>
		</g>
	</g>
</g>
</svg>
