<?xml version="1.0" encoding="utf-8"?>
<!-- Generator: Adobe Illustrator 18.1.1, SVG Export Plug-In . SVG Version: 6.00 Build 0)  -->
<svg version="1.1" xmlns="http://www.w3.org/2000/svg" xmlns:xlink="http://www.w3.org/1999/xlink" x="0px" y="0px"
	 viewBox="0 0 32 36" enable-background="new 0 0 32 36" xml:space="preserve">
<g id="圆角矩形_1063_1_" enable-background="new    ">
	<g id="圆角矩形_1063">
		<g>
			<path fill="#D37200" d="M30,31v3H2v-3H30 M31,29H1c-0.6,0-1,0.4-1,1v5c0,0.6,0.4,1,1,1h30c0.6,0,1-0.4,1-1v-5
				C32,29.4,31.6,29,31,29L31,29z"/>
		</g>
	</g>
</g>
<g id="椭圆_1069_1_" enable-background="new    ">
	<g id="椭圆_1069">
		<g>
			<path fill="#D37200" d="M25,2c-0.7,2.3-1,4.6-1,7c0,5.9,2.1,11.5,6,15.9V29H2v-4.1c3.9-4.4,6-10,6-15.9c0-2.4-0.3-4.7-1-7h1.3
				c0.9,3.4,4,6,7.7,6c3.7,0,6.9-2.6,7.7-6H25 M27.9,0H22c0,3.3-2.7,6-6,6c-3.3,0-6-2.7-6-6H4.1C5.3,2.7,6,5.8,6,9
				c0,5.8-2.3,11.2-6,15.1V30c0,0.6,0.4,1,1,1h30c0.6,0,1-0.4,1-1v-5.9c-3.7-3.9-6-9.2-6-15.1C26,5.8,26.7,2.7,27.9,0L27.9,0z"/>
		</g>
	</g>
</g>
<g id="矩形_1066_1_" enable-background="new    ">
	<g id="矩形_1066">
		<g>
			<path fill-rule="evenodd" clip-rule="evenodd" fill="#D37200" d="M23,0h-2c0,0.2,0,0.3,0,0.5C21,6.3,18.8,11,16,11
				c-2.8,0-5-4.7-5-10.5c0-0.2,0-0.3,0-0.5H9c0,0.2,0,0.3,0,0.5C9,7.4,12.1,13,16,13c3.9,0,7-5.6,7-12.5C23,0.3,23,0.2,23,0z"/>
		</g>
	</g>
</g>
</svg>
