<?xml version="1.0" encoding="utf-8"?>
<!-- Generator: Adobe Illustrator 18.1.1, SVG Export Plug-In . SVG Version: 6.00 Build 0)  -->
<svg version="1.1" xmlns="http://www.w3.org/2000/svg" xmlns:xlink="http://www.w3.org/1999/xlink" x="0px" y="0px"
	 viewBox="0 0 36 25" enable-background="new 0 0 36 25" xml:space="preserve">
<g id="圆角矩形_880_1_" enable-background="new    ">
	<g id="圆角矩形_880">
		<g>
			<path fill-rule="evenodd" clip-rule="evenodd" fill="#FE8F71" d="M6.5,14h-5C0.7,14,0,14.7,0,15.5S0.7,17,1.5,17h5
				C7.3,17,8,16.3,8,15.5S7.3,14,6.5,14z"/>
		</g>
	</g>
</g>
<g id="圆角矩形_880_拷贝_1_" enable-background="new    ">
	<g id="圆角矩形_880_拷贝">
		<g>
			<path fill-rule="evenodd" clip-rule="evenodd" fill="#FE8F71" d="M34.5,8h-5C28.7,8,28,8.7,28,9.5s0.7,1.5,1.5,1.5h5
				c0.8,0,1.5-0.7,1.5-1.5S35.3,8,34.5,8z"/>
		</g>
	</g>
</g>
<g id="矩形_2_1_" enable-background="new    ">
	<g id="矩形_2">
		<g>
			<path fill-rule="evenodd" clip-rule="evenodd" fill="#FE8F71" d="M27,0c-1.6,0-8.9,20-11,20c-2.1,0-3.3-11-5-11s-4,5-4,5v3
				c0,0,2-3,3-3s4,11,6,11S25.6,6,27,6s1.4,5,1.4,5H31V9C31,9,28.6,0,27,0z"/>
		</g>
	</g>
</g>
</svg>
