<?xml version="1.0" encoding="utf-8"?>
<!-- Generator: Adobe Illustrator 18.1.1, SVG Export Plug-In . SVG Version: 6.00 Build 0)  -->
<svg version="1.1" xmlns="http://www.w3.org/2000/svg" xmlns:xlink="http://www.w3.org/1999/xlink" x="0px" y="0px"
	 viewBox="0 0 54 42" enable-background="new 0 0 54 42" xml:space="preserve">
<g id="矩形_44_1_" enable-background="new    ">
	<g id="矩形_44">
		<g>
			<path fill="#02B5B9" d="M51.5,2.5v23h-27v-23H51.5 M54,0H22v28h32V0L54,0z"/>
		</g>
	</g>
</g>
<g id="椭圆_10_1_" enable-background="new    ">
	<g id="椭圆_10">
		<g>
			<path fill="#02B5B9" d="M46,32.5c1.9,0,3.5,1.6,3.5,3.5c0,1.9-1.6,3.5-3.5,3.5s-3.5-1.6-3.5-3.5C42.5,34.1,44.1,32.5,46,32.5
				 M46,30c-3.3,0-6,2.7-6,6c0,3.3,2.7,6,6,6s6-2.7,6-6C52,32.7,49.3,30,46,30L46,30z"/>
		</g>
	</g>
</g>
<g id="椭圆_10_拷贝_1_" enable-background="new    ">
	<g id="椭圆_10_拷贝">
		<g>
			<path fill="#02B5B9" d="M15,32.5c1.9,0,3.5,1.6,3.5,3.5c0,1.9-1.6,3.5-3.5,3.5s-3.5-1.6-3.5-3.5C11.5,34.1,13.1,32.5,15,32.5
				 M15,30c-3.3,0-6,2.7-6,6c0,3.3,2.7,6,6,6c3.3,0,6-2.7,6-6C21,32.7,18.3,30,15,30L15,30z"/>
		</g>
	</g>
</g>
<g id="矩形_45_1_" enable-background="new    ">
	<g id="矩形_45">
		<g>
			<rect x="23" y="32" fill-rule="evenodd" clip-rule="evenodd" fill="#02B5B9" width="14" height="2"/>
		</g>
	</g>
</g>
<g id="椭圆_11_1_" enable-background="new    ">
	<g id="椭圆_11">
		<g>
			<path fill="#02B5B9" d="M16.5,11.5v14c-0.3,0-0.7,0-1,0c-4.7,0-9,2.8-10.9,7H2.5V22.3l6-10.8H16.5 M19,9H7L0,21.7V35h6.3
				c1.1-4,4.8-7,9.2-7c1.2,0,2.4,0.2,3.5,0.7V9L19,9z"/>
		</g>
	</g>
</g>
</svg>
