<?xml version="1.0" encoding="utf-8"?>
<!-- Generator: Adobe Illustrator 18.1.1, SVG Export Plug-In . SVG Version: 6.00 Build 0)  -->
<svg version="1.1" xmlns="http://www.w3.org/2000/svg" xmlns:xlink="http://www.w3.org/1999/xlink" x="0px" y="0px"
	 viewBox="0 0 56 52" enable-background="new 0 0 56 52" xml:space="preserve">
<g id="圆角矩形_20_1_" enable-background="new    ">
	<g id="圆角矩形_20">
		<g>
			<path fill="#02B5B9" d="M52,2.5c0.8,0,1.5,0.7,1.5,1.5v44c0,0.8-0.7,1.5-1.5,1.5H4c-0.8,0-1.5-0.7-1.5-1.5V4
				c0-0.8,0.7-1.5,1.5-1.5H52 M52,0H4C1.8,0,0,1.8,0,4v44c0,2.2,1.8,4,4,4h48c2.2,0,4-1.8,4-4V4C56,1.8,54.2,0,52,0L52,0z"/>
		</g>
	</g>
</g>
<g id="矩形_42_1_" enable-background="new    ">
	<g id="矩形_42">
		<g>
			<rect x="6" y="6" fill-rule="evenodd" clip-rule="evenodd" fill="#02B5B9" width="48" height="2.5"/>
		</g>
	</g>
</g>
<g id="矩形_42_拷贝_1_" enable-background="new    ">
	<g id="矩形_42_拷贝">
		<g>
			<rect x="2" y="13" fill-rule="evenodd" clip-rule="evenodd" fill="#02B5B9" width="52" height="2.1"/>
		</g>
	</g>
</g>
<g id="矩形_43_1_" enable-background="new    ">
	<g id="矩形_43">
		<g>
			<path fill-rule="evenodd" clip-rule="evenodd" fill="#02B5B9" d="M42,28h12v-3H42c-2.2,0-4,1.8-4,4v7c0,2.2,1.8,4,4,4h12v-3H42
				c-1.1,0-2-0.9-2-2v-5C40,28.9,40.9,28,42,28z"/>
		</g>
	</g>
</g>
</svg>
