<?xml version="1.0" encoding="utf-8"?>
<!-- Generator: Adobe Illustrator 18.1.1, SVG Export Plug-In . SVG Version: 6.00 Build 0)  -->
<svg version="1.1" xmlns="http://www.w3.org/2000/svg" xmlns:xlink="http://www.w3.org/1999/xlink" x="0px" y="0px"
	 viewBox="0 0 28 36" enable-background="new 0 0 28 36" xml:space="preserve">
<g id="圆角矩形_1159_1_" enable-background="new    ">
	<g id="圆角矩形_1159">
		<g>
			<path fill="#5435BF" d="M24,2.5c0.8,0,1.5,0.7,1.5,1.5v28c0,0.8-0.7,1.5-1.5,1.5H4c-0.8,0-1.5-0.7-1.5-1.5V4
				c0-0.8,0.7-1.5,1.5-1.5H24 M24,0H4C1.8,0,0,1.8,0,4v28c0,2.2,1.8,4,4,4h20c2.2,0,4-1.8,4-4V4C28,1.8,26.2,0,24,0L24,0z"/>
		</g>
	</g>
</g>
<g id="矩形_1160_1_" enable-background="new    ">
	<g id="矩形_1160">
		<g>
			<rect x="2" y="9" fill-rule="evenodd" clip-rule="evenodd" fill="#5435BF" width="24" height="2.5"/>
		</g>
	</g>
</g>
<g id="椭圆_1161_1_" enable-background="new    ">
	<g id="椭圆_1161">
		<g>
			<path fill="#5435BF" d="M14,18.5c2.5,0,4.5,2,4.5,4.5s-2,4.5-4.5,4.5s-4.5-2-4.5-4.5S11.5,18.5,14,18.5 M14,16c-3.9,0-7,3.1-7,7
				s3.1,7,7,7s7-3.1,7-7S17.9,16,14,16L14,16z"/>
		</g>
	</g>
</g>
</svg>
