<?xml version="1.0" encoding="utf-8"?>
<!-- Generator: Adobe Illustrator 18.1.1, SVG Export Plug-In . SVG Version: 6.00 Build 0)  -->
<svg version="1.1" xmlns="http://www.w3.org/2000/svg" xmlns:xlink="http://www.w3.org/1999/xlink" x="0px" y="0px"
	 viewBox="0 0 20 20" enable-background="new 0 0 20 20" xml:space="preserve">
<g id="椭圆_2_1_" enable-background="new    ">
	<g id="椭圆_2">
		<g>
			<path fill="#6C6C6C" d="M8,2c3.3,0,6,2.7,6,6s-2.7,6-6,6s-6-2.7-6-6S4.7,2,8,2 M8,0C3.6,0,0,3.6,0,8s3.6,8,8,8s8-3.6,8-8
				S12.4,0,8,0L8,0z"/>
		</g>
	</g>
</g>
<g id="圆角矩形_1_1_" enable-background="new    ">
	<g id="圆角矩形_1">
		<g>
			<path fill="#6C6C6C" d="M13.1,12.3c-0.1,0-0.3,0-0.4,0.1c-0.2,0.2-0.2,0.5,0,0.7l6.4,6.4c0.1,0.1,0.2,0.1,0.4,0.1s0.3,0,0.4-0.1
				c0.2-0.2,0.2-0.5,0-0.7l-6.4-6.4C13.4,12.4,13.3,12.3,13.1,12.3L13.1,12.3z"/>
		</g>
	</g>
</g>
<g id="圆角矩形_1_拷贝_1_" enable-background="new    ">
	<g id="圆角矩形_1_拷贝">
		<g>
			<path fill="#6C6C6C" d="M12.8,12.6c-0.1,0-0.3,0-0.4,0.1c-0.2,0.2-0.2,0.5,0,0.7l6.4,6.4c0.1,0.1,0.2,0.1,0.4,0.1s0.3,0,0.4-0.1
				c0.2-0.2,0.2-0.5,0-0.7l-6.4-6.4C13.1,12.7,12.9,12.6,12.8,12.6L12.8,12.6z"/>
		</g>
	</g>
</g>
</svg>
